<?xml version="1.0" standalone="no"?>
<!DOCTYPE svg PUBLIC "-//W3C//DTD SVG 1.1//EN" "http://www.w3.org/Graphics/SVG/1.1/DTD/svg11.dtd" >
<svg>
<metadata>
Created by FontForge 20090622 at Sun Oct  6 00:44:39 2019
 By deploy user
Copyright (c) 2018 Commercial Type, Inc.. All rights reserved.
</metadata>
<defs>
<font id="SchnyderWideMBold" horiz-adv-x="496" >
  <font-face 
    font-family="Schnyder Wide M Bold"
    font-weight="700"
    font-stretch="normal"
    units-per-em="1000"
    panose-1="0 0 0 0 0 0 0 0 0 0"
    ascent="800"
    descent="-200"
    x-height="468"
    cap-height="746"
    bbox="-115 -300 1183 1089"
    underline-thickness="16"
    underline-position="-80"
    unicode-range="U+000D-U+FB04"
  />
<missing-glyph horiz-adv-x="199" 
 />
    <glyph glyph-name="f_f" unicode="ff" horiz-adv-x="582" 
d="M304 10l-5 -2q17 5 26 12q10 8 14 24t6 47q1 20 1 80v284h-158v-284q0 -39 2 -79q1 -28 8 -46q6 -16 20 -24t39 -12v-10h-231v10q17 5 26 12q10 8 14 24t6 47q1 20 1 80v284h-54v11q18 3 30 8t17 13t7 21q2 16 2 29v29q0 53 19 90q20 38 48 60t63 33q36 11 63 11
q51 0 83 -13q34 -14 44 -39q25 28 60 42q36 14 66 14q28 0 48 -4q24 -5 39 -13q16 -9 27 -23q10 -13 10 -33q0 -14 -10 -27t-34 -13q-25 0 -36 12q-10 12 -15 35q-7 34 -14 44q-6 9 -20 9q-24 0 -36 -27t-12 -96v-161h99v-14h-99v-284q0 -59 1 -79q1 -28 8 -46q6 -16 20 -24
q13 -8 39 -12v-10h-232v10zM345 468l-1 113q0 35 9 62q-23 0 -32 12q-10 13 -14 35q-5 20 -9 30q-5 12 -9 17t-12 7q-10 2 -18 2q-30 0 -51 -29t-21 -99v-150h158z" />
    <glyph glyph-name="f_i" unicode="fi" horiz-adv-x="535" 
d="M29 10l-4 -11q17 5 26 12q10 8 14 24t6 47q1 20 1 80v284h-54v11q18 3 30 8t17 13t7 21q2 16 2 29v45q0 49 15 83t39 57q24 22 53 33q30 11 56 11q48 0 78 -15t30 -47q0 -14 -10 -27t-33 -13q-22 0 -31 12q-8 11 -13 34q-6 32 -10 39q-4 9 -15 9q-23 0 -33 -27
q-11 -28 -11 -96v-160h110l167 14v-312q0 -59 1 -79q1 -29 6 -46t15 -24t30 -12v-10h-219v10q17 4 28 12q11 7 15 24q4 16 6 47q1 20 1 80v148q0 56 -1 74q-1 26 -6 40t-14 17t-27 6h-110v-284q0 -39 2 -79q1 -28 8 -46q6 -16 20 -24q13 -8 39 -12v-10h-231v10zM404 521
q-29 0 -48 19t-19 48q0 27 19 46t48 19t48 -19t19 -46q0 -29 -19 -48t-48 -19z" />
    <glyph glyph-name="f_l" unicode="fl" horiz-adv-x="536" 
d="M29 10v-7q17 5 26 12q10 8 14 24t6 47q1 20 1 80v284h-54v11q18 3 30 8t17 13t7 21q2 16 2 29v44q0 48 18 83t45 57t59 33q33 11 60 11q28 0 48 -4q24 -5 39 -13q18 -10 26 -22q9 -13 9 -33q0 -13 -9 -25t-30 -12q-26 0 -35 12q-10 13 -14 36q-8 35 -15 44t-24 9
q-28 0 -46 -27t-18 -96v-160h95v-14h-95v-284q0 -39 2 -79q1 -28 8 -46q6 -16 20 -24q13 -8 39 -12v-10h-231v10zM301 3l-3 -1q17 4 28 12q10 8 15 24q4 16 6 47q1 20 1 80v390v65q0 24 -4 35q-5 12 -13 15q-11 4 -26 5v12l163 84v-607q0 -59 1 -79q1 -29 6 -46t15 -24
t30 -12v-10h-219v10z" />
    <glyph glyph-name="f_f_i" unicode="ffi" horiz-adv-x="811" 
d="M29 10l-8 -13q17 5 26 12q10 8 14 24t6 47q1 20 1 80v284h-54v11q18 3 30 8t17 13t7 21q2 16 2 29v29q0 53 19 90t48 60t63 33q36 11 63 11q51 0 83 -13q34 -14 44 -37q25 28 59 42t63 14q48 0 79 -15t31 -47q0 -14 -10 -27t-33 -13t-32 12q-10 13 -14 34q-6 32 -10 39
q-5 9 -15 9q-22 0 -33 -27q-11 -28 -11 -96v-160h110l166 14v-312q0 -59 1 -79q1 -29 6 -46t15 -24t30 -12v-10h-219v10q19 5 29 12t15 24q4 16 6 47q1 20 1 80v148q0 56 -1 74q-1 26 -6 40t-14 17t-27 6h-110v-284q0 -59 1 -79q1 -28 8 -46q6 -16 20 -24q13 -8 39 -12v-10
h-232v10q17 5 26 12q10 8 14 24t6 47q1 20 1 80v284h-158v-284q0 -39 2 -79q1 -28 8 -46q6 -16 20 -24q13 -8 39 -12v-10h-231v10zM342 457l-1 112q0 35 9 63q-23 0 -32 12q-10 13 -14 35q-4 19 -9 30q-5 12 -9 17t-12 7q-10 2 -18 2q-30 0 -51 -29q-21 -28 -21 -99v-150
h158zM675 520h-1q-29 0 -48 19t-19 48q0 26 20 46q19 19 48 19t48 -19t19 -46q0 -29 -19 -48t-48 -19z" />
    <glyph glyph-name="f_f_l" unicode="ffl" horiz-adv-x="812" 
d="M304 10l-2 -9q17 5 26 12q10 8 14 24t6 47q1 20 1 80v284h-158v-284q0 -39 2 -79q1 -28 8 -46q6 -16 20 -24q13 -7 39 -12v-10h-231v10q17 5 26 12q10 8 14 24t6 47q1 20 1 80v284h-54v11q18 3 30 8t17 13t7 21q2 16 2 29v29q0 53 19 90t48 60t63 33q36 11 63 11
q50 0 86 -14q35 -14 44 -42q28 31 66 46q37 15 69 15q30 0 50 -4q24 -5 39 -13q18 -10 26 -22q9 -13 9 -33q0 -13 -9 -25t-29 -12q-26 0 -35 12q-10 13 -14 36q-4 17 -9 28q-4 9 -9 16q-4 6 -10 7q-8 2 -15 2q-28 0 -45 -27q-17 -28 -17 -96v-160h95v-14h-95v-284
q0 -59 1 -79q1 -28 8 -46q6 -16 20 -24q13 -8 39 -12v-10h-232v10zM348 461l-1 109q0 35 11 66h-1q-24 0 -33 12q-10 13 -14 35q-4 19 -9 30q-5 12 -9 17t-12 7q-10 2 -18 2q-30 0 -51 -29q-21 -28 -21 -99v-150h158zM574 1l-3 -1q17 4 28 12t15 24t6 47q1 20 1 80v390v65
q0 24 -4 35q-5 12 -13 15q-11 4 -26 5v12l163 84v-607q0 -59 1 -79q1 -29 6 -46q4 -17 15 -24t30 -12v-10h-219v10z" />
    <glyph glyph-name="f_b" unicode="fb" horiz-adv-x="879" 
d="M29 10v-7q17 5 26 12q10 8 14 24t6 47q1 20 1 80v284h-54v11q18 3 30 8t17 13t7 21q2 16 2 29v44q0 48 18 83t45 57t59 33q33 11 60 11q28 0 48 -4q24 -5 39 -13q18 -10 26 -22q9 -13 9 -33q0 -13 -9 -25t-30 -12q-26 0 -35 12q-10 13 -14 36q-8 35 -15 44t-24 9
q-28 0 -46 -27t-18 -96v-160h95v-14h-95v-284q0 -39 2 -79q1 -28 8 -46q6 -16 20 -24q13 -8 39 -12v-10h-231v10zM588 -15l-4 2q-35 0 -65 6q-23 5 -55 14l-26 8t-19 6q-19 6 -35 6t-20 -9t-6 -15h-12v538v69q0 24 -5 39q-5 14 -13 18q-9 5 -25 6v11l162 86v-402l13 14
q12 14 29 29q17 16 38 29q19 12 47 22q26 9 56 9q37 0 74 -14t65 -42q29 -29 47 -72t18 -102q0 -62 -22 -109t-59 -81q-35 -32 -84 -49t-99 -17zM499 15l-2 -2q9 -5 26 -11q18 -6 59 -6q32 0 56 10q26 10 45 36q19 25 30 71q11 47 11 114q0 73 -9 116t-24 67t-35 32
q-21 8 -42 8q-24 0 -42 -7q-21 -8 -36 -19q-18 -13 -32 -27q-19 -19 -27 -28l-13 -14v-251q0 -40 6 -58q6 -17 29 -31z" />
    <glyph glyph-name="f_f_b" unicode="ffb" horiz-adv-x="1154" 
d="M304 10l-2 -9q17 5 26 12q10 8 14 24t6 47q1 20 1 80v284h-158v-284q0 -39 2 -79q1 -28 8 -46q6 -16 20 -24q13 -7 39 -12v-10h-231v10q17 5 26 12q10 8 14 24t6 47q1 20 1 80v284h-54v11q18 3 30 8t17 13t7 21q2 16 2 29v29q0 53 19 90t48 60t63 33q36 11 63 11
q50 0 86 -14q35 -14 44 -42q28 31 66 46q37 15 69 15q30 0 50 -4q24 -5 39 -13q18 -10 26 -22q9 -13 9 -33q0 -13 -9 -25t-29 -12q-26 0 -35 12q-10 13 -14 36q-4 17 -9 28q-4 9 -9 16q-4 6 -10 7q-8 2 -15 2q-28 0 -45 -27q-17 -28 -17 -96v-160h95v-14h-95v-284
q0 -59 1 -79q1 -28 8 -46q6 -16 20 -24q13 -8 39 -12v-10h-232v10zM348 461l-1 109q0 35 11 66h-1q-24 0 -33 12q-10 13 -14 35q-4 19 -9 30q-5 12 -9 17t-12 7q-10 2 -18 2q-30 0 -51 -29q-21 -28 -21 -99v-150h158zM860 -17l-4 2q-35 0 -65 6q-23 5 -55 14l-26 8t-19 6
q-19 6 -35 6t-20 -9t-6 -15h-12v538v69q0 24 -5 39q-5 14 -13 18q-9 5 -25 6v11l162 86v-402l13 14q12 14 29 29q17 16 38 29q19 12 47 22q26 9 56 9q37 0 74 -14t65 -42q29 -29 47 -72t18 -102q0 -62 -22 -109t-59 -81q-35 -32 -84 -49t-99 -17zM771 13l-2 -2q9 -5 26 -11
q18 -6 59 -6q32 0 56 10q26 10 45 36q19 25 30 71q11 47 11 114q0 73 -9 116t-24 67t-35 32q-21 8 -42 8q-24 0 -42 -7q-21 -8 -36 -19q-18 -13 -32 -27q-19 -19 -27 -28l-13 -14v-251q0 -40 6 -58q6 -17 29 -31z" />
    <glyph glyph-name="f_f_h" unicode="ffh" horiz-adv-x="1136" 
d="M304 10l-2 -9q17 5 26 12q10 8 14 24t6 47q1 20 1 80v284h-158v-284q0 -39 2 -79q1 -28 8 -46q6 -16 20 -24q13 -7 39 -12v-10h-231v10q17 5 26 12q10 8 14 24t6 47q1 20 1 80v284h-54v11q18 3 30 8t17 13t7 21q2 16 2 29v29q0 53 19 90t48 60t63 33q36 11 63 11
q50 0 86 -14q35 -14 44 -42q28 31 66 46q37 15 69 15q30 0 50 -4q24 -5 39 -13q18 -10 26 -22q9 -13 9 -33q0 -13 -9 -25t-29 -12q-26 0 -35 12q-10 13 -14 36q-4 17 -9 28q-4 9 -9 16q-4 6 -10 7q-8 2 -15 2q-28 0 -45 -27q-17 -28 -17 -96v-160h95v-14h-95v-284
q0 -59 1 -79q1 -28 8 -46q6 -16 20 -24q13 -8 39 -12v-10h-232v10zM348 461l-1 109q0 35 11 66h-1q-24 0 -33 12q-10 13 -14 35q-4 19 -9 30q-5 12 -9 17t-12 7q-10 2 -18 2q-30 0 -51 -29q-21 -28 -21 -99v-150h158zM577 1l-4 -7q17 5 26 12q10 8 14 24t6 47q1 20 1 80v375
q0 57 -1 74q-2 26 -6 38q-5 12 -14 17q-7 4 -27 7v12l166 84v-421l32 30q12 10 34 30q18 17 39 30q19 12 45 22q24 9 51 9q23 0 47 -6q23 -6 43 -21q18 -14 31 -41q12 -26 12 -66v-171v-79q0 -28 5 -46q4 -16 14 -24q9 -7 26 -12v-10h-214v10q19 5 29 12q10 8 15 24
q4 16 6 47q1 20 1 80v210q0 38 -16 53t-42 15q-27 0 -57 -21q-26 -18 -67 -56l-32 -29v-171q0 -59 1 -79q1 -29 6 -46t15 -24t29 -12v-10h-214v10z" />
    <glyph glyph-name="f_f_j" unicode="ffj" horiz-adv-x="811" 
d="M304 10l-11 -13q17 5 26 12q10 8 14 24t6 47q1 20 1 80v284h-158v-284q0 -39 2 -79q1 -28 8 -46q6 -16 20 -24q14 -7 39 -12v-10h-231v10q17 5 26 12q10 8 14 24t6 47q1 20 1 80v284h-54v11q18 3 30 8t17 13t7 21q2 16 2 29v29q0 53 19 90q20 37 48 60t63 33q36 11 63 11
q51 0 83 -13q34 -14 44 -37q25 28 59 42t63 14q47 0 79 -15q31 -15 31 -47q0 -14 -10 -27t-33 -13t-32 12q-10 13 -14 34q-6 32 -10 39q-4 9 -15 9q-23 0 -33 -27q-11 -28 -11 -96v-160h110l166 14v-388q0 -58 -22 -106q-22 -49 -84 -94q-34 -24 -55 -32q-24 -9 -46 -9
q-19 0 -35 11q-15 10 -15 33q0 20 12 29t28 9q14 0 24 -7q11 -8 20 -17q12 -12 18 -17q8 -7 18 -7q6 0 10 4t7 10q4 7 5 18q2 16 2 31v49v321q0 56 -1 74q-1 26 -6 40t-14 17t-27 6h-110v-284q0 -59 1 -79q1 -28 8 -46q6 -16 20 -24q13 -8 39 -12v-10h-232v10zM339 457
l-1 112q0 35 9 63q-23 0 -32 12q-10 13 -14 35q-5 19 -9 30q-5 12 -9 17t-12 7q-10 2 -18 2q-30 0 -51 -29q-21 -28 -21 -99v-150h158zM672 520h-1q-29 0 -48 19t-19 48q0 26 20 46q19 19 48 19t48 -19t19 -46q0 -29 -19 -48t-48 -19z" />
    <glyph glyph-name="f_f_k" unicode="ffk" horiz-adv-x="1096" 
d="M304 10l-2 -9q17 5 26 12q10 8 14 24t6 47q1 20 1 80v284h-158v-284q0 -39 2 -79q1 -28 8 -46q6 -16 20 -24q13 -7 39 -12v-10h-231v10q17 5 26 12q10 8 14 24t6 47q1 20 1 80v284h-54v11q18 3 30 8t17 13t7 21q2 16 2 29v29q0 53 19 90t48 60t63 33q36 11 63 11
q50 0 86 -14q35 -14 44 -42q28 31 66 46q37 15 69 15q30 0 50 -4q24 -5 39 -13q18 -10 26 -22q9 -13 9 -33q0 -13 -9 -25t-29 -12q-26 0 -35 12q-10 13 -14 36q-4 17 -9 28q-4 9 -9 16q-4 6 -10 7q-8 2 -15 2q-28 0 -45 -27q-17 -28 -17 -96v-160h95v-14h-95v-284
q0 -59 1 -79q1 -28 8 -46q6 -16 20 -24q13 -8 39 -12v-10h-232v10zM348 461l-1 109q0 35 11 66h-1q-24 0 -33 12q-10 13 -14 35q-4 19 -9 30q-5 12 -9 17t-12 7q-10 2 -18 2q-30 0 -51 -29q-21 -28 -21 -99v-150h158zM577 1l-2 -3q17 5 26 12q10 8 14 24t6 47q1 20 1 80v372
q0 57 -1 75q-2 28 -6 41q-5 14 -15 17q-11 3 -28 6v12l167 84v-527l199 150q32 23 27 39q-4 16 -30 19v10h129v-10q-24 -8 -49 -22q-28 -15 -64 -43l-119 -90l209 -253q19 -23 28 -30q11 -7 24 -12v-10h-215v10q23 3 26 18q3 16 -22 44l-142 172v-71q0 -59 1 -79
q1 -29 6 -46t15 -24t29 -12v-10h-214v10z" />
    <glyph glyph-name="f_h" unicode="fh" horiz-adv-x="861" 
d="M29 10v-7q17 5 26 12q10 8 14 24t6 47q1 20 1 80v284h-54v11q18 3 30 8t17 13t7 21q2 16 2 29v44q0 48 18 83t45 57t59 33q33 11 60 11q28 0 48 -4q24 -5 39 -13q18 -10 26 -22q9 -13 9 -33q0 -13 -9 -25t-30 -12q-26 0 -35 12q-10 13 -14 36q-8 35 -15 44t-24 9
q-28 0 -46 -27t-18 -96v-160h95v-14h-95v-284q0 -39 2 -79q1 -28 8 -46q6 -16 20 -24q13 -8 39 -12v-10h-231v10zM305 3l-4 -7q17 5 26 12q10 8 14 24t6 47q1 20 1 80v375q0 57 -1 74q-2 26 -6 38q-5 12 -14 17q-7 4 -27 7v12l166 84v-421l32 30q12 10 34 30q18 17 39 30
q19 12 45 22q24 9 51 9q23 0 47 -6q23 -6 43 -21q18 -14 31 -41q12 -26 12 -66v-171v-79q0 -28 5 -46q4 -16 14 -24q9 -7 26 -12v-10h-214v10q19 5 29 12q10 8 15 24q4 16 6 47q1 20 1 80v210q0 38 -16 53t-42 15q-27 0 -57 -21q-26 -18 -67 -56l-32 -29v-171q0 -59 1 -79
q1 -29 6 -46t15 -24t29 -12v-10h-214v10z" />
    <glyph glyph-name="f_j" unicode="fj" horiz-adv-x="535" 
d="M29 10l1 -11q17 5 26 12q10 8 14 24t6 47q1 20 1 80v284h-54v11q18 3 30 8t17 13t7 21q2 16 2 29v45q0 49 15 83t39 57q24 22 53 33q30 11 56 11q48 0 78 -15t30 -47q0 -14 -10 -27t-33 -13q-22 0 -31 12q-8 11 -13 34q-7 30 -12 39t-15 9q-22 0 -34 -27t-12 -96v-160
h110l167 14v-388q0 -58 -22 -106q-22 -49 -84 -94q-34 -24 -55 -32q-24 -9 -46 -9q-20 0 -36 11q-15 10 -15 33q0 20 11 29q10 9 27 9q14 0 24 -7q11 -8 20 -17l17 -17q7 -7 17 -7q6 0 10 4q6 6 8 10q2 5 4 18q2 16 2 31v49v321q0 56 -1 74q-1 26 -6 40t-14 17t-27 6h-110
v-284q0 -39 2 -79q1 -28 8 -46q6 -16 20 -24q13 -8 39 -12v-10h-231v10zM409 521q-29 0 -48 19t-19 48q0 27 19 46t48 19t48 -19t19 -46q0 -29 -19 -48t-48 -19z" />
    <glyph glyph-name="f_k" unicode="fk" horiz-adv-x="820" 
d="M29 10v-7q17 5 26 12q10 8 14 24t6 47q1 20 1 80v284h-54v11q18 3 30 8t17 13t7 21q2 16 2 29v44q0 48 18 83t45 57t59 33q33 11 60 11q28 0 48 -4q24 -5 39 -13q18 -10 26 -22q9 -13 9 -33q0 -13 -9 -25t-30 -12q-26 0 -35 12q-10 13 -14 36q-8 35 -15 44t-24 9
q-28 0 -46 -27t-18 -96v-160h95v-14h-95v-284q0 -39 2 -79q1 -28 8 -46q6 -16 20 -24q13 -8 39 -12v-10h-231v10zM305 3l-2 -3q17 5 26 12q10 8 14 24t6 47q1 20 1 80v372q0 57 -1 75q-2 28 -6 41q-5 14 -15 17q-11 3 -28 6v12l167 84v-527l199 150q32 23 27 39
q-4 16 -30 19v10h129v-10q-23 -8 -49 -22q-28 -15 -64 -43l-119 -90l209 -253q19 -23 28 -30q11 -7 24 -12v-10h-215v10q23 3 26 18q3 16 -22 44l-142 172v-71q0 -59 1 -79q1 -29 6 -46t15 -24t29 -12v-10h-214v10z" />
    <glyph glyph-name="g_j" unicode="gj" horiz-adv-x="760" 
d="M633 538l-1 -2q-29 0 -48 19t-19 46q0 28 19 47q20 20 48 20q29 0 48 -19q20 -20 20 -46q0 -27 -19 -46t-48 -19zM483 -147l-4 -3q-18 0 -34 11q-15 11 -15 33q0 20 11 29t27 9q14 0 24 -7q10 -8 20 -17l17 -17q7 -7 17 -7q6 0 10 4q6 6 8 10q4 7 5 18q2 16 2 31v49v250
q0 56 -1 74q-1 26 -6 40q-4 13 -14 18q-8 4 -27 7v11l165 86v-388q0 -58 -22 -106q-22 -49 -84 -94q-33 -24 -54 -32q-22 -9 -45 -9zM231 162l3 -9q-21 0 -49 5q-25 4 -49 15l-9 -8q-19 -15 -27 -24q-7 -8 -7 -17q0 -10 9 -17t42 -9l164 -13q51 -5 80 -13q33 -9 51 -22
q20 -14 27 -31q8 -19 8 -43q0 -37 -18 -67t-51 -51q-32 -20 -78 -31q-43 -10 -97 -10q-40 0 -81 6t-72 18t-51 30q-19 18 -19 44q0 17 9 30t24 24t33 18q17 7 38 12q-35 11 -51 30t-16 47q0 32 21 54q22 24 46 42l11 9q-37 18 -63 50q-25 31 -25 78q0 39 18 69t48 51
q29 20 66 31q38 11 69 11q27 0 55 -6q30 -6 54 -19q25 24 53 36q27 12 50 12q24 0 34 -10t10 -27t-10 -26q-11 -9 -24 -9q-11 0 -21 5q-6 3 -18 11t-18 11q-10 5 -20 5q-15 0 -29 -11q35 -19 60 -53q24 -33 24 -78q0 -39 -19 -67q-20 -30 -49 -47q-30 -18 -66 -27t-70 -9z
M234 165l1 -2q17 0 33 6t30 23q15 18 23 43q9 27 9 68q0 39 -8 69q-8 29 -21 47q-14 19 -31 26q-19 8 -36 8t-35 -8q-16 -7 -30 -26q-14 -18 -21 -46q-8 -30 -8 -69q0 -40 9 -67t22 -43q14 -17 30 -23q17 -6 33 -6zM80 -85l-2 -4q0 -46 40 -67t114 -21q50 0 86 9q38 9 60 22
q24 14 36 30t12 33q0 29 -33 39t-105 15l-127 12l-18 3q-6 1 -16 3q-26 -8 -36 -28q-11 -22 -11 -46z" />
    <glyph glyph-name=".notdef" horiz-adv-x="199" 
 />
    <glyph glyph-name=".null" horiz-adv-x="0" 
 />
    <glyph glyph-name="nonmarkingreturn" unicode="&#xd;" horiz-adv-x="199" 
 />
    <glyph glyph-name="NULL" horiz-adv-x="0" 
 />
    <glyph glyph-name="NULL" horiz-adv-x="0" 
 />
    <glyph glyph-name="space" unicode=" " horiz-adv-x="199" 
 />
    <glyph glyph-name="exclam" unicode="!" horiz-adv-x="270" 
d="M129 217v-1q-10 101 -23 186q-10 66 -23 131l-18 87q-7 31 -7 56q0 41 21 62t57 21t57 -21t21 -62q0 -25 -7 -56l-18 -87l-24 -130q-13 -77 -24 -186h-12zM136 -15q-30 0 -50 19q-21 20 -21 51t21 51q22 20 50 20t50 -20q21 -20 21 -51t-21 -51q-20 -19 -50 -19z" />
    <glyph glyph-name="quotedbl" unicode="&#x22;" horiz-adv-x="380" 
d="M265 512l-1 -4q-4 22 -14 54l-18 56q-1 3 -16 51q-7 22 -7 38q0 25 15 41q15 17 47 17q30 0 45 -16q15 -17 15 -40q0 -15 -7 -37q-15 -48 -16 -51l-18 -55q-8 -25 -13 -54h-12zM102 508l-2 -4q-5 29 -13 54l-18 56q-1 3 -16 51q-7 22 -7 38q0 25 15 41q15 17 45 17
q32 0 47 -16q15 -17 15 -40q0 -15 -7 -37q-15 -48 -16 -51l-18 -55q-8 -25 -13 -54h-12z" />
    <glyph glyph-name="numbersign" unicode="#" horiz-adv-x="553" 
d="M23 282h139l44 236h-135v16h138l41 216h17l-41 -216h157l41 216h17l-41 -216h137v-16h-140l-44 -236h137v-16h-140l-50 -265h-17l50 265h-157l-50 -265h-17l50 265h-136v16zM336 282l44 236h-157l-44 -236h157z" />
    <glyph glyph-name="dollar" unicode="$" horiz-adv-x="591" 
d="M253 843l3 -94q10 2 17 2h18h21q14 0 21 -1v88h17v-89q41 -4 78 -17q36 -12 59 -27q24 -15 37 -34t13 -39q0 -22 -13 -34q-14 -12 -33 -12q-25 0 -40 18q-14 17 -25 52q-6 18 -9 26q-5 13 -12 23t-21 19q-15 10 -34 14v-284q50 -15 88 -34q41 -20 70 -46t46 -63t17 -84
q0 -40 -15 -79t-43 -70t-69 -52q-42 -22 -93 -29v-100h-17v98q-6 -1 -18 -1h-19h-21h-21v-97h-17v99q-49 4 -91 18t-72 33q-28 19 -46 44q-16 23 -16 50q0 25 15 39q14 13 41 13q50 0 60 -55q4 -23 11 -48q7 -23 16 -38q10 -16 29 -27q18 -11 51 -15v332q-100 32 -150 81
q-50 50 -50 129q0 42 15 76t42 60t63 42q37 17 80 23v90h17zM484 158v-3q0 25 -6 46q-6 20 -21 37q-15 16 -40 31q-28 17 -64 29v-296q71 14 101 57t30 99zM297 -4v-1h20q6 0 18 2v305l-62 19l-17 5v-329q6 -1 20 -1h21zM116 605l-1 -1q0 -49 30 -76q29 -26 93 -49v251
q-53 -10 -88 -42q-34 -31 -34 -83zM334 450l-1 279q-19 3 -44 3h-18q-12 0 -17 -1v-260q10 -3 32 -9l36 -9z" />
    <glyph glyph-name="percent" unicode="%" horiz-adv-x="802" 
d="M209 379h-1q-32 0 -62 13q-32 14 -57 37q-25 24 -42 59q-17 36 -17 80t17 80q17 35 42 59t57 36q31 12 62 12q30 0 63 -12q34 -12 59 -36t42 -59q17 -36 17 -80t-17 -80q-17 -35 -42 -59q-25 -23 -58 -37q-32 -13 -63 -13zM118 9l544 745l15 -11l-544 -744zM208 391
q16 0 33 9t30 30q14 21 21 55q8 37 8 84t-8 84q-7 34 -21 55q-13 21 -30 30t-33 9q-14 0 -31 -9t-30 -30q-14 -21 -21 -55q-8 -37 -8 -84t8 -84q7 -32 20 -55q12 -21 29 -30t33 -9zM592 -6h-3q-31 0 -63 13q-33 14 -58 37q-25 24 -42 59q-17 36 -17 80t17 80q17 35 42 59
t59 36q33 12 63 12t62 -12t59 -36t44 -59q17 -36 17 -80t-17 -80t-43 -59t-58 -37q-30 -13 -62 -13zM589 6q17 0 33 9t30 30t21 55q8 37 8 84q0 50 -9 84q-9 35 -22 55q-14 21 -30 30t-31 9t-31 -9t-30 -30q-13 -20 -22 -55q-9 -34 -9 -84q0 -47 8 -84q7 -34 21 -55t30 -30
t33 -9z" />
    <glyph glyph-name="ampersand" unicode="&#x26;" horiz-adv-x="864" 
d="M183 584v-4q0 36 17 68t45 56q30 25 67 38q40 14 83 14q36 0 71 -11q34 -11 59 -30t40 -43t15 -51q0 -34 -18 -61t-45 -48t-60 -36q-29 -13 -61 -25l9 -9l226 -240l4 -4l11 19l58 105q35 65 26 94q-9 31 -52 41v10h162v-10q-14 -4 -31 -11q-12 -5 -25 -20
q-11 -12 -27 -38q-19 -30 -38 -66l-57 -105q-6 -10 -9 -14q-6 -8 -9 -13l84 -86l54 -52q19 -18 36 -28t30 -14v-10h-188l-89 94q-52 -53 -111 -79q-57 -25 -120 -25q-71 0 -128 15q-56 15 -97 42q-40 27 -63 65q-22 37 -22 83q0 53 24 92q24 40 58 66q35 28 73 45
q37 17 71 30q-37 46 -55 82t-18 74zM166 200l1 -2q0 -42 9 -79t30 -64q20 -26 54 -43q32 -16 80 -16q60 0 114 25q56 26 107 78l-253 266q-10 10 -24 26t-21 23q-19 -10 -37 -28t-31 -43q-14 -26 -21 -61q-8 -38 -8 -82zM291 629l2 -1q0 -25 9 -49q8 -22 23 -45
q12 -19 30 -40q11 -13 33 -37q46 19 78 57t32 99q0 62 -27 95t-74 33q-25 0 -45 -9t-33 -24t-21 -36q-7 -20 -7 -43z" />
    <glyph glyph-name="quotesingle" unicode="'" horiz-adv-x="219" 
d="M103 512l-2 -4q-5 29 -13 54l-18 56q-1 3 -16 51q-7 22 -7 38q0 25 15 41q15 17 45 17q32 0 47 -16q15 -17 15 -40q0 -15 -7 -37q-15 -48 -16 -51l-18 -55q-8 -25 -13 -54h-12z" />
    <glyph glyph-name="parenleft" unicode="(" horiz-adv-x="357" 
d="M332 -107l-1 -1q-38 29 -85 70q-48 42 -90 99q-43 58 -71 128q-29 72 -29 156t29 156q28 69 71 126t90 98t85 70l8 -9q-21 -18 -51 -56q-28 -36 -54 -90q-25 -54 -42 -128q-16 -71 -16 -168q0 -92 17 -168q16 -73 42 -127q25 -54 54 -90t51 -57z" />
    <glyph glyph-name="parenright" unicode=")" horiz-adv-x="357" 
d="M18 -98l-1 -2q23 21 51 57q30 37 53 90q25 56 41 128q17 76 17 168t-17 168q-16 72 -41 128q-25 55 -52 90q-30 38 -51 56l7 9q38 -29 85 -70q49 -43 90 -97q43 -57 71 -126q29 -72 29 -156t-29 -156q-27 -68 -71 -127q-42 -57 -90 -99q-47 -41 -85 -70z" />
    <glyph glyph-name="asterisk" unicode="*" horiz-adv-x="346" 
d="M202 498l-7 -6q0 -34 -29 -34q-30 0 -30 34q0 22 12 49q13 29 17 60q-22 -29 -33 -55q-12 -27 -27 -42q-11 -12 -23 -12t-22 10t-10 22t14 23q9 9 18 14q10 6 24 12l27 14q13 7 27 18q-34 -4 -61 -15q-28 -11 -48 -11q-34 0 -34 30q0 29 34 29q19 0 49 -11q31 -12 60 -17
q-14 10 -27 18q-18 10 -26 14q-16 8 -23 12q-9 5 -18 14q-13 10 -13 24t10 24q11 9 22 9q13 0 23 -13q15 -15 27 -42q10 -23 32 -55q-5 37 -16 62q-12 27 -12 48q0 34 30 34q29 0 29 -34q0 -22 -10 -48q-10 -27 -15 -60q17 25 31 56q12 27 27 42q23 24 45 3q9 -9 9 -22
q0 -14 -12 -24q-9 -9 -18 -14q-7 -4 -23 -12q-3 -1 -8 -3.5t-9.5 -5t-8.5 -4.5q-14 -7 -27 -18q31 6 60 17q28 11 48 11q35 0 35 -29q0 -30 -35 -30q-20 0 -48 11q-27 11 -60 15q13 -10 27 -18q9 -5 27 -13q13 -6 24 -12q12 -7 18 -13q25 -25 4 -48q-10 -10 -22 -10
q-13 0 -23 12q-16 18 -26 43t-32 55q4 -34 15 -60q11 -27 11 -48z" />
    <glyph glyph-name="plus" unicode="+" horiz-adv-x="537" 
d="M260 138v205h-207v17h207v206h17v-206h207v-17h-207v-205h-17z" />
    <glyph glyph-name="comma" unicode="," horiz-adv-x="244" 
d="M153 20h-4q-7 -10 -18 -16t-30 -6q-24 0 -42 18t-18 46t21 48q20 19 47 19q15 0 30 -6t27 -18q11 -11 19 -31q8 -21 8 -45q0 -58 -36 -97q-35 -38 -93 -58l-5 8q48 19 76 47q27 27 27 62q0 20 -9 29z" />
    <glyph glyph-name="hyphen" unicode="-" horiz-adv-x="312" 
d="M60 316h214l-22 -87h-214z" />
    <glyph glyph-name="period" unicode="." horiz-adv-x="234" 
d="M117 -14q-30 0 -50 19q-21 19 -21 51t21 51q22 20 50 20t50 -20q21 -19 21 -51t-21 -51q-20 -19 -50 -19z" />
    <glyph glyph-name="slash" unicode="/" horiz-adv-x="505" 
d="M481 795l-489 -962l-16 8l487 964z" />
    <glyph glyph-name="zero" unicode="0" horiz-adv-x="768" 
d="M386 759h-2q66 0 129 -30q64 -30 111 -82q49 -53 77 -123q29 -72 29 -150q0 -79 -29 -151q-28 -70 -77 -123q-47 -51 -110 -82q-62 -30 -128 -30t-129 30t-112 82t-79 123t-30 151t30 150q30 71 79 123t112 82t129 30zM384 747l-1 -2q-39 0 -76 -19q-37 -20 -66 -63
q-28 -42 -46 -114q-18 -71 -18 -173q0 -104 16 -174q16 -71 45 -115q28 -43 66 -63t81 -20t81 20q37 19 64 63q27 43 42 116q15 72 15 174q0 103 -18 173q-18 72 -46 114q-29 44 -64 63q-37 20 -75 20z" />
    <glyph glyph-name="one" unicode="1" horiz-adv-x="366" 
d="M34 0v10q29 4 48 14q18 9 27 36t12 78t3 143v148q0 52 -2 100q-2 38 -10 53q-9 16 -27 18t-50 -3v9l222 160v-486q0 -74 2 -142q1 -51 9 -78t24 -36q18 -10 45 -14v-10h-303z" />
    <glyph glyph-name="two" unicode="2" horiz-adv-x="592" 
d="M283 116l-8 2q71 0 139 2q51 2 78 9t39 21t21 36h13l-36 -141q-7 -26 -12 -34q-4 -7 -21 -7h-497l216 202q55 51 94 99q37 47 60 90q23 45 32 84q9 41 9 81q0 90 -36 139t-111 49q-35 0 -54 -10t-30 -27q-10 -15 -16 -39q-4 -15 -10 -45q-6 -31 -21 -46t-43 -15
q-26 0 -42 16q-17 17 -17 45q0 21 14 46q13 23 44 43t74 32t104 12q47 0 96 -10q51 -10 93 -36q41 -25 70 -66q28 -40 28 -99q0 -48 -21 -93q-20 -43 -59 -88q-37 -43 -91 -85q-52 -41 -118 -85l-121 -82h140z" />
    <glyph glyph-name="three" unicode="3" horiz-adv-x="645" 
d="M280 5h-5q49 0 85 18t59 50q22 31 33 77q11 47 11 99q0 49 -6 86q-6 38 -21 65q-15 28 -39 41q-25 14 -60 14q-27 0 -52 -5q-20 -4 -40 -14q-18 -9 -33 -21l-33 -27l-9 9l273 242h-119q-88 0 -138 -3q-52 -3 -75 -10q-25 -7 -34 -21q-10 -15 -17 -36h-13l37 147
q6 23 11 30q5 6 15 6h466v-10l-326 -289q17 8 37 12q19 4 48 4q53 0 101 -12q49 -12 86 -39q38 -27 60 -69q22 -41 22 -100q0 -54 -25 -100q-25 -47 -69 -81q-43 -34 -104 -54q-62 -20 -129 -20q-58 0 -106 12q-47 12 -81 32q-33 20 -51 45t-18 51q0 24 15 39t41 15
q31 0 46 -16q16 -17 20 -52q3 -23 9 -44q6 -19 20 -37q13 -16 39 -25q25 -9 69 -9z" />
    <glyph glyph-name="four" unicode="4" horiz-adv-x="706" 
d="M536 205h-3q2 -71 4 -99q3 -37 9 -56q6 -20 18 -27t30 -12v-10h-253v10q19 4 31 12q12 7 18 27q6 19 9 56q2 28 4 99h-391v8l493 544h31v-465h143l-40 -87h-103zM400 292v335l-303 -335h303z" />
    <glyph glyph-name="five" unicode="5" horiz-adv-x="646" 
d="M171 642l-69 -218q37 26 84 41q48 15 102 15q66 0 123 -15q58 -15 99 -43q42 -29 66 -70q24 -42 24 -96q0 -56 -25 -105t-69 -85t-105 -57t-133 -21q-53 0 -98 12q-47 12 -78 31q-32 19 -52 45q-19 25 -19 52q0 26 15 39q16 14 38 14q31 0 46 -15q15 -16 20 -50
q4 -24 9 -45q4 -20 17 -36q12 -15 36 -24t67 -9q50 0 87 22q39 23 62 58q24 36 36 82t12 94q0 98 -42 155t-133 57q-63 0 -114 -20q-49 -20 -81 -45l-9 7l102 337h397l-26 -76q-8 -23 -12 -27t-18 -4h-359z" />
    <glyph glyph-name="six" unicode="6" horiz-adv-x="709" 
d="M408 746l-4 -4q-94 0 -154 -75q-59 -74 -73 -226q33 30 83 52q48 21 106 21q62 0 117 -18q56 -18 98 -51q43 -34 68 -79q25 -46 25 -105q0 -62 -28 -112q-28 -51 -72 -87q-42 -35 -96 -55q-51 -19 -102 -19q-56 0 -116 24q-62 25 -110 70q-49 46 -82 117t-33 165t34 165
q35 73 88 123q54 51 120 78t129 27q54 0 97 -9t73 -24t46 -34t16 -40q0 -24 -15 -37q-14 -13 -34 -13q-27 0 -45 15t-27 51q-5 23 -12 38t-21 24q-15 10 -31 14t-45 4zM174 362l-1 -1q0 -94 15 -163q15 -68 42 -112q28 -45 64 -65q38 -21 81 -21q82 0 121 66t39 195
q0 66 -14 114q-13 46 -38 75q-25 30 -55 41q-32 12 -66 12q-61 0 -106 -22q-46 -23 -81 -57q-1 -10 -1 -30v-32z" />
    <glyph glyph-name="seven" unicode="7" horiz-adv-x="595" 
d="M238 0h-18l292 642h-278q-64 0 -98 -3q-35 -3 -53 -9t-26 -17q-10 -13 -17 -27h-12l35 126q7 22 12 30t19 8h478v-10z" />
    <glyph glyph-name="eight" unicode="8" horiz-adv-x="648" 
d="M614 213v-8q0 -50 -23 -93q-22 -41 -60 -70q-39 -30 -88 -44q-51 -15 -105 -15q-66 0 -122 15q-57 15 -96 40q-40 25 -63 59q-22 32 -22 72q0 34 15 64q15 29 41 54q27 25 60 44q35 19 75 33q-81 39 -120 84t-39 102q0 48 21 86t57 65t82 42q47 15 94 15q64 0 112 -13
q51 -14 83 -37q33 -24 51 -54t18 -64q0 -29 -13 -54t-36 -46q-22 -20 -52 -37q-27 -15 -63 -28q92 -42 142 -91q51 -50 51 -121zM337 -6l-2 1q45 0 80 11q33 10 56 29q23 18 33 42q10 23 10 53q0 41 -14 71q-13 28 -41 51q-28 24 -69 41q-42 18 -96 39l-51 21
q-46 -22 -76 -63q-30 -40 -30 -114q0 -40 10 -71q11 -33 33 -57t62 -39q39 -15 95 -15zM351 447v-5q32 -12 53 -21q38 19 61 56q22 35 22 99q0 36 -10 65q-11 31 -31 51q-21 21 -52 33q-32 12 -75 12q-38 0 -68 -9q-29 -9 -51 -26q-21 -16 -33 -39t-12 -50q0 -28 14 -51
q13 -22 39 -42t62 -38q40 -20 81 -35z" />
    <glyph glyph-name="nine" unicode="9" horiz-adv-x="708" 
d="M299 3l2 -8q113 0 165 78t63 225q-33 -30 -83 -52q-48 -21 -107 -21q-60 0 -117 17q-56 17 -97 49t-67 80q-25 46 -25 108q0 61 29 113q28 51 72 87q42 35 96 55t102 20q60 0 120 -21t108 -66t78 -114t30 -163q0 -91 -30 -166q-30 -74 -81 -127t-118 -81
q-66 -28 -141 -28q-58 0 -99 10q-43 10 -73 27t-45 36t-15 41q0 24 15 38q16 14 35 14q27 0 45 -15t26 -50q5 -23 12 -39t20 -27q12 -10 32 -15q22 -5 48 -5zM172 477v-6q0 -64 12 -109q12 -44 35 -75q22 -29 54 -43q30 -13 69 -13q62 0 107 22q47 23 81 57q2 22 2 35v37
q0 94 -15 162q-15 69 -40 111q-25 43 -62 63t-80 20q-163 0 -163 -261z" />
    <glyph glyph-name="colon" unicode=":" horiz-adv-x="241" 
d="M121 301v-1q-30 0 -50 19q-21 19 -21 51t21 51q22 20 50 20q30 0 50 -19q21 -20 21 -51t-21 -51q-20 -19 -50 -19zM121 -15q-30 0 -50 19q-21 20 -21 51t21 51q22 20 50 20t50 -20q21 -20 21 -51t-21 -51q-20 -19 -50 -19z" />
    <glyph glyph-name="semicolon" unicode=";" horiz-adv-x="245" 
d="M125 301v-1q-30 0 -50 19q-21 19 -21 51t21 51q22 20 50 20q30 0 50 -19q21 -20 21 -51t-21 -51q-20 -19 -50 -19zM156 19h-5q-5 -9 -17 -16q-10 -6 -30 -6q-24 0 -42 18t-18 46q0 29 21 48q20 19 47 19q15 0 30 -6t27 -18q11 -11 19 -31q7 -18 7 -45q0 -58 -36 -97
q-35 -38 -92 -58l-5 8q48 19 76 47q27 27 27 62q0 20 -9 29z" />
    <glyph glyph-name="less" unicode="&#x3c;" horiz-adv-x="508" 
d="M60 360l389 167v-19l-368 -157l368 -158v-18l-389 166v19z" />
    <glyph glyph-name="equal" unicode="=" horiz-adv-x="533" 
d="M51 429h431v-15h-431v15zM51 280h431v-16h-431v16z" />
    <glyph glyph-name="greater" unicode="&#x3e;" horiz-adv-x="508" 
d="M60 175v18l368 158l-368 157v19l389 -167v-19z" />
    <glyph glyph-name="question" unicode="?" horiz-adv-x="440" 
d="M131 204l-1 -2q-2 50 9 90t27 75q17 36 36 65q18 28 36 62q14 27 28 65q12 33 12 73q0 54 -23 85q-23 30 -77 30q-22 0 -30 -12q-7 -11 -13 -34q-7 -29 -21 -49q-13 -19 -45 -19q-23 0 -37 13q-15 14 -15 33q0 35 40 57q41 23 123 23q53 0 95 -12t72 -33t47 -50t17 -63
q0 -45 -19 -77t-48 -61q-28 -29 -63 -54q-34 -26 -64 -55q-30 -30 -51 -66q-22 -37 -23 -84h-12zM151 -16q-30 0 -50 19q-21 19 -21 51t21 51q22 20 50 20t50 -20q21 -19 21 -51t-21 -51q-20 -19 -50 -19z" />
    <glyph glyph-name="at" unicode="@" horiz-adv-x="919" 
d="M777 -64l3 -6q-16 -14 -47 -33q-29 -18 -69 -33q-38 -14 -91 -25q-49 -10 -114 -10q-80 0 -160 20q-77 19 -138 62q-60 42 -96 110q-36 67 -36 162q0 62 20 120t54 107q35 50 81 90t102 69q57 29 117 44q61 15 125 15q81 0 147 -22q67 -22 117 -63t77 -99t27 -130
q0 -70 -27 -128q-27 -59 -77 -101q-49 -41 -123 -64q-72 -22 -165 -16l14 87l-15 -15q-23 -23 -33 -32q-17 -15 -30 -23q-16 -10 -33 -14q-20 -5 -40 -5q-29 0 -54 9t-45 29q-18 18 -31 50q-12 30 -12 71q0 64 24 120t63 96t90 63q52 23 102 23q28 0 47 -6q16 -5 36 -14
l30 -13q13 -6 27 -6q13 0 24 8q10 7 18 21h11l-55 -329q-10 -58 -6 -76t38 -7q75 24 122 92t47 171q0 72 -25 128q-26 58 -70 96q-45 39 -108 60t-139 21q-81 0 -156 -27t-132 -78t-91 -124q-34 -72 -34 -166q0 -90 27 -159t77 -116q49 -46 117 -70q67 -24 149 -24
q63 0 110 10q54 11 89 25q35 13 67 32q27 16 45 32zM349 134v-2q0 -56 17 -82q16 -25 42 -25q9 0 18 3q11 4 21 10q16 10 26 19q18 16 33 31l18 18l41 248q3 18 3 35t-6 30q-6 14 -19 21q-14 8 -36 8q-29 0 -57 -21q-29 -21 -51 -61q-23 -40 -36 -99q-14 -61 -14 -133z" />
    <glyph glyph-name="A" unicode="A" horiz-adv-x="808" 
d="M15 9l1 1q13 5 23 12t22 22q10 13 25 39q12 22 30 62l221 511l-10 24q-15 37 -30 47t-35 15v9h160q8 0 11 -3q4 -4 8 -14l266 -605q21 -48 39 -78q18 -29 48 -40v-11h-241v11q32 8 38 27t-14 66l-57 130h-352l-39 -91q-10 -21 -16 -43q-6 -21 -3 -39q3 -17 15 -31t37 -21
v-9h-147v9zM515 247l-172 392l-169 -392h341z" />
    <glyph glyph-name="B" unicode="B" horiz-adv-x="701" 
d="M19 10h-4q21 6 33 15t18 36q5 24 7 80q2 70 2 142v183q0 107 -1 142q-2 55 -7 79q-6 26 -18 37q-11 10 -33 16v9h294q79 0 135 -13q59 -14 98 -36q40 -23 59 -54q20 -32 20 -66q0 -26 -11 -54q-11 -27 -38 -50q-26 -22 -72 -40q-43 -17 -115 -25v-3q75 -8 129 -27t87 -45
q34 -27 50 -55q16 -29 16 -57q0 -56 -26 -99q-25 -41 -75 -70q-49 -29 -120 -42q-68 -13 -159 -13h-269v10zM210 738l1 -323h91q58 0 95 9t60 29t32 50t9 73q0 37 -10 66q-10 30 -33 51q-22 21 -59 33q-36 12 -88 12h-98zM211 403l-1 -391h69q71 0 120 11q47 11 75 34
q29 24 39 61q11 39 11 90q0 42 -8 80q-8 37 -31 62q-24 26 -66 39q-44 14 -111 14h-97z" />
    <glyph glyph-name="C" unicode="C" horiz-adv-x="769" 
d="M438 -14v-3q-88 0 -162 33t-126 87q-52 53 -82 123q-30 69 -30 144q0 94 36 166q36 73 93 122t131 75q75 26 147 26q47 0 81 -6t60 -15q28 -10 46 -15q21 -6 41 -6q28 0 35 28h13v-182h-13q-14 49 -39 83t-60 57t-76 33q-44 11 -88 11q-51 0 -97 -21q-45 -20 -82 -65
q-36 -43 -57 -111t-21 -160q0 -102 21 -174q21 -71 59 -117q38 -45 90 -66t114 -21q47 0 83 10q39 11 68 27q30 17 54 36q22 18 40 39l9 -8q-14 -20 -39 -42q-26 -23 -61 -42t-83 -33q-45 -13 -105 -13z" />
    <glyph glyph-name="D" unicode="D" horiz-adv-x="817" 
d="M19 10v1q21 6 33 15t18 36q5 24 7 80q2 70 2 142v183q0 107 -1 142q-2 55 -7 79q-6 26 -18 37q-11 10 -33 16v9h263q112 0 206 -23q91 -23 156 -69q65 -47 99 -115q35 -70 35 -159q0 -84 -32 -156q-31 -69 -95 -121q-62 -50 -156 -79q-91 -28 -214 -28h-263v10zM214 739
l-2 -728h68q88 0 154 21q65 21 109 66q44 46 65 117q21 72 21 174q0 108 -25 174q-26 68 -71 107t-109 54t-142 15h-68z" />
    <glyph glyph-name="E" unicode="E" horiz-adv-x="675" 
d="M19 10l-5 -3q21 6 33 15t18 36q5 24 7 80q2 70 2 142v183q0 107 -1 142q-2 55 -7 79q-6 26 -18 37q-11 10 -33 16v9h566q9 0 14 -3t9 -21l19 -110h-12q-17 39 -33 62q-17 24 -44 38t-69 18q-47 5 -109 5h-145v-315h76q48 0 72 7q26 8 39 19q13 12 18 29q3 11 9 35h11
v-190h-11q-6 24 -9 35q-5 17 -18 29q-13 11 -39 19q-24 7 -72 7h-76v-399h166q72 0 111 4q43 4 70 18t44 41q18 29 32 72h12l-13 -123q-2 -17 -6 -20q-5 -3 -15 -3h-593v10z" />
    <glyph glyph-name="F" unicode="F" horiz-adv-x="669" 
d="M19 10l-4 -2q21 6 33 15t18 36q5 24 7 80q2 70 2 142v183q0 107 -1 142q-2 56 -7 80q-6 27 -18 36t-33 15v9h597q9 0 14 -3q4 -3 6 -20l18 -120h-12l-30 63q-14 26 -38 41t-64 21q-41 6 -108 6h-187v-314h89q45 0 69 7q26 8 39 19q12 11 19 29q7 20 11 36h11v-190h-11
q-6 24 -10 35q-7 18 -19 29q-13 11 -39 19q-24 7 -69 7h-89v-129q0 -72 2 -142q1 -49 8 -79q6 -27 18 -36t33 -15v-10h-255v10z" />
    <glyph glyph-name="G" unicode="G" horiz-adv-x="840" 
d="M454 -15l-4 -6q-90 0 -165 31q-77 32 -132 85q-55 54 -87 126q-32 73 -32 155q0 65 18 119q18 53 50 96q33 44 73 74t89 52q44 20 96 31q47 10 96 10q45 0 78 -6q27 -5 58 -14q9 -3 25 -7t22 -6q21 -6 45 -6q10 0 21 6q10 6 15 20h12v-184h-12q-22 85 -89 135t-172 50
q-54 0 -103 -18q-50 -18 -87 -58t-60 -110q-22 -67 -22 -172q0 -104 20 -181q20 -76 54 -122q35 -47 84 -69q48 -22 108 -22q55 0 94 14q38 14 59 39t30 63t9 84v10q0 40 -3 63q-3 24 -10 36q-7 13 -19 19q-14 7 -33 11v9h257v-9q-18 -5 -28 -10q-12 -6 -19 -25
q-7 -18 -10 -55q-3 -36 -3 -97v-28q-13 -17 -40 -39q-28 -22 -70 -43t-96 -36t-117 -15z" />
    <glyph glyph-name="H" unicode="H" horiz-adv-x="814" 
d="M19 10l-5 -4q21 6 33 15t18 36q5 24 7 80q2 70 2 142v183q0 107 -1 142q-2 56 -7 80q-6 27 -18 36t-33 15v9h255v-9q-21 -6 -33 -15t-18 -36q-5 -24 -7 -79q-1 -35 -1 -142v-50h386v50q0 107 -1 142q-2 56 -7 80q-6 27 -18 36t-33 15v9h254v-9q-21 -6 -33 -15t-18 -36
q-5 -24 -7 -79q-1 -35 -1 -142v-183q0 -72 2 -142q2 -55 7 -79q6 -27 18 -36t33 -15v-10h-254v10q21 6 33 15t18 36q5 24 7 80q2 70 2 142v121h-386v-121q0 -72 2 -142q1 -49 8 -79q6 -27 18 -36t33 -15v-10h-255v10z" />
    <glyph glyph-name="I" unicode="I" horiz-adv-x="293" 
d="M19 10l-3 -2q21 6 33 15t18 36q5 24 7 80q2 70 2 142v183q0 107 -1 142q-2 56 -7 80q-6 27 -18 36t-33 15v9h255v-9q-21 -6 -33 -15t-18 -36q-5 -24 -7 -79q-1 -35 -1 -142v-183q0 -72 2 -142q1 -49 8 -79q6 -27 18 -36t33 -15v-10h-255v10z" />
    <glyph glyph-name="J" unicode="J" horiz-adv-x="485" 
d="M201 -10l-3 -5q-35 0 -72 8q-33 7 -60 23q-26 16 -41 36q-15 21 -15 47t17 38t36 12q26 0 40 -13q16 -14 23 -48q2 -7 5 -20.5t5 -18.5q4 -17 12 -27q7 -10 19 -16t32 -6q31 0 53 20q21 20 21 72v374q0 109 -1 144q-2 56 -7 80q-6 27 -18 36t-33 15v9h254v-9
q-21 -6 -33 -15t-18 -36q-5 -24 -7 -79q-1 -35 -1 -144v-268q0 -51 -18 -90q-18 -40 -46 -66t-66 -40q-36 -13 -78 -13z" />
    <glyph glyph-name="K" unicode="K" horiz-adv-x="731" 
d="M19 10l-4 -4q21 6 33 15t18 36q5 24 7 80q2 70 2 142v183q0 107 -1 142q-2 56 -7 80q-6 27 -18 36t-33 15v9h253v-9q-21 -6 -33 -15t-18 -36q-5 -24 -7 -79q-1 -35 -1 -142v-51l312 235q51 37 54 57t-39 32v9h150v-9q-10 -3 -28 -11q-16 -7 -30 -16q-15 -9 -38 -26
l-52 -38l-229 -173l333 -396l26 -29q11 -12 20 -20q9 -7 18 -12q6 -3 20 -9v-9h-254v9q15 4 22.5 11t6.5 17q-2 22 -33 59l-258 306v-117q0 -72 2 -142q1 -49 8 -79q6 -27 18 -36t33 -15v-10h-253v10z" />
    <glyph glyph-name="L" unicode="L" horiz-adv-x="642" 
d="M19 10l-2 -1q21 6 33 15t18 36q5 24 7 80q2 70 2 142v183q0 107 -1 142q-2 56 -7 80q-6 27 -18 36t-33 15v9h258v-9q-22 -6 -34 -15t-18 -36q-7 -30 -8 -79q-1 -35 -1 -142v-455h149q58 0 96 6q37 6 65 23q27 16 45 47q16 27 37 80h13l-26 -144q-5 -17 -9 -20
q-5 -3 -15 -3h-551v10z" />
    <glyph glyph-name="M" unicode="M" horiz-adv-x="954" 
d="M19 10l-5 -3q21 7 33 18t18 39q7 31 8 81q2 70 2 144v176q0 107 -1 142q-2 55 -7 79q-6 26 -18 37q-11 10 -33 16v9h197q8 0 11 -4t12 -24l244 -558l248 586h201v-9q-21 -6 -33 -15t-18 -36q-5 -24 -7 -79q-1 -35 -1 -142v-183q0 -72 2 -142q2 -55 7 -79q6 -27 18 -36
t33 -15v-10h-255v10q21 6 33 15t18 36q5 24 7 80q2 70 2 142v442l-309 -729h-15l-320 730v-436q0 -74 2 -144q1 -52 9 -81t21 -39t38 -18v-10h-142v10z" />
    <glyph glyph-name="N" unicode="N" horiz-adv-x="748" 
d="M19 10l-5 -2q20 9 33 20q12 10 18 39q5 26 7 81q2 70 2 142v176q0 107 -1 142q-2 55 -7 79q-6 26 -18 37q-11 10 -33 16v9h208q8 0 11 -1q6 -2 9 -4t10 -9q6 -6 15 -18l397 -520v264q0 107 -1 142q-2 53 -9 81t-21 39q-15 12 -37 20v9h142v-9q-20 -9 -33 -20
q-12 -11 -18 -39q-5 -26 -7 -81q-1 -35 -1 -142v-463h-32l-557 731v-437q0 -72 2 -142q1 -52 9 -81t21 -39q14 -11 38 -20v-10h-142v10z" />
    <glyph glyph-name="O" unicode="O" horiz-adv-x="865" 
d="M432 -15v-2q-76 0 -147 30q-70 30 -125 83q-54 52 -87 125q-33 72 -33 153q0 80 33 150t87 123q55 53 125 83q71 30 147 30t148 -30t127 -82t88 -123t33 -150q0 -81 -33 -153t-88 -124q-57 -54 -127 -83q-72 -30 -148 -30zM432 -5h-6q49 0 94 21q44 21 79 66
q34 44 55 117q21 72 21 174q0 104 -22 173q-23 71 -57 116q-35 46 -78 65q-45 20 -89 20t-89 -20q-43 -19 -78 -65t-56 -116q-21 -71 -21 -173q0 -100 20 -174q19 -72 54 -117t79 -66q45 -21 94 -21z" />
    <glyph glyph-name="P" unicode="P" horiz-adv-x="667" 
d="M19 10l-1 1q21 6 33 15t18 36q5 24 7 80q2 70 2 142v183q0 107 -1 142q-2 56 -7 80q-6 27 -18 36t-33 15v9h321q73 0 127 -10q58 -11 98 -33q41 -23 63 -58t22 -88q0 -55 -23 -96q-22 -40 -63 -67q-40 -26 -97 -40q-55 -13 -123 -13h-129v-62q0 -72 2 -142q1 -49 8 -79
q6 -27 18 -36t35 -15v-10h-259v10zM213 739l-1 -376h126q39 0 74 11q33 10 57 33q24 22 36 59q12 36 12 87q0 55 -13 90q-14 37 -37 57q-24 21 -57 30t-72 9h-125z" />
    <glyph glyph-name="Q" unicode="Q" horiz-adv-x="864" 
d="M432 -11l-7 -2q-77 0 -147 27t-126 78q-55 50 -88 123q-33 72 -33 160q0 83 33 153q33 71 87 122t126 81t150 30q79 0 149 -30t126 -81q54 -50 88 -122q33 -70 33 -153q0 -57 -15 -108q-15 -52 -42 -95q-26 -42 -65 -78t-84 -59q7 -16 11 -30q9 -27 21 -54q13 -28 28 -48
q15 -19 38 -34q20 -13 50 -13q29 0 48 13t33 27l7 -7q-5 -6 -17 -18q-10 -10 -24 -17q-15 -8 -36 -12q-23 -5 -50 -5q-40 0 -72 7q-36 8 -63 25t-52 48q-24 30 -39 78q-33 -6 -68 -6zM425 748l-1 -1q-45 0 -91 -20q-44 -19 -79 -63q-34 -43 -55 -115t-21 -175q0 -90 10 -151
q11 -65 31 -109q21 -44 51 -70t69 -36q-33 19 -47 46q-15 28 -15 57q0 25 9 44t26 33q16 13 38 21t47 8q69 0 119 -38q50 -37 84 -114q32 40 52 114q19 72 19 195q0 103 -21 175q-22 74 -55 116q-35 44 -79 63q-46 20 -91 20zM289 109l-1 -2q0 -53 38 -82q37 -28 96 -28
q22 0 33 1q22 2 33 4q-4 9 -5 17l-4 18q-10 45 -21 76q-10 30 -24 48q-13 17 -30 25q-15 7 -39 7q-28 0 -52 -21t-24 -63z" />
    <glyph glyph-name="R" unicode="R" horiz-adv-x="731" 
d="M19 10l-2 -5q21 6 33 15t18 36q5 24 7 80q2 70 2 142v183q0 107 -1 142q-2 56 -7 80q-6 27 -18 36t-33 15v9h305q100 0 165 -13q69 -14 108 -37q41 -24 59 -57t18 -73q0 -51 -27 -87t-72 -60q-44 -23 -103 -34q-61 -11 -123 -11h-26q38 -4 75 -17q33 -12 63 -35
q28 -22 49 -57q22 -36 35 -84q10 -31 23 -65q12 -30 27 -51t33 -33t41 -12q24 0 38 9t24 21l7 -6q-3 -5 -14 -16q-9 -9 -22 -16q-11 -6 -33 -13q-20 -6 -45 -6q-43 0 -77 9t-63 32q-28 22 -49 63q-20 39 -34 102q-13 60 -27 97t-31 54q-18 17 -40 22q-25 5 -54 5h-35v-92
q0 -72 2 -142q1 -49 8 -79q6 -27 18 -36t33 -15v-10h-255v10zM212 733l1 -348h138q193 0 193 167q0 41 -10 72q-10 33 -36 57q-26 25 -69 38q-45 14 -111 14h-106z" />
    <glyph glyph-name="S" unicode="S" horiz-adv-x="634" 
d="M317 -11l-4 -9q-54 0 -90 9q-32 8 -61 20l-47 20q-21 9 -46 9q-23 0 -30 -22h-12v193h12q6 -47 27 -88q21 -40 56 -69t83 -44t108 -15q95 0 141 39q47 39 47 111q0 33 -11 60q-10 25 -36 46t-66 39q-43 19 -101 38q-53 17 -101 38q-45 20 -78 45t-51 60t-18 81
q0 39 17 78q16 37 50 66q33 29 79 45q48 17 105 17q48 0 77 -7t56 -17l42 -17q17 -7 35 -7q26 0 32 22h12v-155h-12q-19 77 -83 124q-62 46 -159 46q-85 0 -126 -35t-41 -93q0 -23 10 -42q11 -21 34 -38q24 -18 63 -36q38 -17 95 -36q53 -16 108 -38q49 -19 87 -45
q39 -26 59 -61q21 -36 21 -85q0 -57 -23 -105q-22 -46 -62 -78q-39 -31 -90 -48q-49 -16 -108 -16z" />
    <glyph glyph-name="T" unicode="T" horiz-adv-x="745" 
d="M244 10l-2 -2q21 6 33 15t18 36q7 30 8 80q2 70 2 142v454h-36q-55 0 -98 -5q-39 -4 -66 -21q-26 -16 -43 -48q-15 -29 -28 -86h-15l16 148q1 17 5 21q3 3 14 3h636q10 0 15 -3t6 -21l18 -148h-14q-13 53 -30 84q-17 32 -43 48q-28 17 -66 23q-39 6 -96 6h-39v-454
q0 -72 2 -142q2 -55 7 -79q6 -27 18 -36t33 -15v-10h-255v10z" />
    <glyph glyph-name="U" unicode="U" horiz-adv-x="780" 
d="M413 -13l-5 -5q-80 0 -141 19q-63 19 -108 57q-45 37 -69 95q-24 57 -24 133v177q0 107 -1 142q-2 56 -7 80q-6 28 -16 36q-10 9 -30 15v9h250v-9q-21 -6 -33 -15t-18 -36q-5 -24 -7 -79q-1 -35 -1 -142v-207q0 -68 7 -113q8 -48 30 -81q22 -32 63 -49q39 -16 106 -16
q63 0 116 14q50 13 87 47q35 32 55 87q19 53 19 133v192q0 102 -1 135q-1 46 -8 76q-6 26 -20 39q-13 12 -38 21v9h142v-9q-21 -9 -33 -21t-18 -39q-5 -24 -7 -76q-1 -33 -1 -135v-192q0 -80 -20 -137q-20 -56 -57 -90q-38 -35 -91 -50q-54 -15 -121 -15z" />
    <glyph glyph-name="V" unicode="V" horiz-adv-x="769" 
d="M102 606l-2 -3l-25 58q-12 27 -19 39q-10 16 -19 24q-11 9 -24 15v9h226v-9q-24 -6 -28 -25q-5 -20 15 -63l220 -509l206 480q9 21 16 43q6 18 4 34q-1 14 -12 25q-10 10 -33 16v9h127v-9q-10 -4 -21 -11q-8 -5 -19 -18q-10 -12 -21 -33q-13 -25 -26 -56l-269 -628h-28z
" />
    <glyph glyph-name="W" unicode="W" horiz-adv-x="1061" 
d="M95 623l-4 -4l-18 47q-7 20 -15 33q-8 14 -18 23q-11 9 -25 15v10h221v-10q-10 -3 -18 -9t-9 -16q-1 -9 2 -27q3 -14 14 -42l202 -497l98 243l-95 232q-14 37 -19 47q-9 20 -18 33q-10 15 -18 23q-10 10 -21 14v10h216v-10q-11 -3 -19 -9t-9 -16t3 -28q5 -18 15 -45
l50 -123l44 104q20 51 20 78q0 28 -35 39v10h113v-10q-14 -5 -21 -10q-9 -6 -18 -18q-7 -10 -19 -33l-25 -55l-51 -121l145 -358l186 478q8 20 13 42q5 20 2 34q-3 15 -13 25q-11 11 -33 17v10h127v-10q-14 -5 -21 -10q-9 -6 -18 -18q-8 -10 -19 -33t-24 -55l-245 -629h-28
l-156 379l-154 -379h-29z" />
    <glyph glyph-name="X" unicode="X" horiz-adv-x="780" 
d="M16 9h1q16 7 29 15q14 9 28 22q15 14 33 33t42 48l187 227l-196 275q-25 36 -37 50q-18 22 -30 32q-17 15 -25 20q-13 8 -25 12v9h257v-9q-28 -5 -30 -27t33 -72l148 -208l160 192q42 50 39 78t-39 36v9h140v-9q-15 -6 -27 -15q-16 -12 -26 -22q-13 -13 -31 -34l-43 -51
l-166 -197l207 -291q25 -36 37 -51q18 -23 30 -35q10 -10 26 -22q10 -7 27 -16v-9h-268v9q17 4 27 12q10 7 12 20q2 12 -6 30q-8 19 -25 43l-164 231l-182 -222q-19 -23 -28 -43q-9 -19 -7 -33t12 -23q11 -10 27 -14v-9h-147v9z" />
    <glyph glyph-name="Y" unicode="Y" horiz-adv-x="735" 
d="M243 10l-2 -4q21 6 33 15t18 36q5 24 7 80q2 70 2 142v70l-186 285q-28 41 -46 63q-21 25 -56 39v9h253v-9q-24 -8 -30 -28t23 -66l170 -262l158 239q37 55 38 80q1 13 -9 22.5t-30 15.5v9h133v-9q-14 -6 -22 -10q-11 -5 -25 -18q-14 -12 -30 -33t-39 -54l-167 -252v-88
q0 -72 2 -142q1 -49 8 -79q6 -27 18 -36t33 -15v-10h-254v10z" />
    <glyph glyph-name="Z" unicode="Z" horiz-adv-x="723" 
d="M508 738l-205 -2q-57 0 -100 -8q-40 -7 -67 -24q-28 -17 -45 -40q-19 -25 -33 -55h-12l27 140h599l-489 -738h257q64 0 107 8q40 7 66 26q25 18 42 48q17 31 33 76h11l-22 -169h-650z" />
    <glyph glyph-name="bracketleft" unicode="[" horiz-adv-x="326" 
d="M303 793v-12h-125v-875h125v-12h-229v899h229z" />
    <glyph glyph-name="backslash" unicode="\" horiz-adv-x="505" 
d="M529 -159l-17 -8l-487 962l17 10z" />
    <glyph glyph-name="bracketright" unicode="]" horiz-adv-x="325" 
d="M251 -106h-228v12h124v875h-124v12h228v-899z" />
    <glyph glyph-name="asciicircum" unicode="^" horiz-adv-x="426" 
d="M208 756h11l174 -267l-12 -8l-168 258l-168 -258l-11 8z" />
    <glyph glyph-name="underscore" unicode="_" horiz-adv-x="396" 
d="M-6 -80h408v-16h-408v16z" />
    <glyph glyph-name="grave" unicode="`" horiz-adv-x="446" 
d="M161 598l-3 1q-19 10 -31 24q-12 13 -12 35q0 20 12 32t33 12q20 0 33 -12t30 -36l88 -128l-7 -7z" />
    <glyph glyph-name="a" unicode="a" horiz-adv-x="484" 
d="M162 -9l-10 -2q-64 0 -102 30t-38 80q0 26 11 45q10 17 32 33q23 16 51 29l71 30l50 21q35 15 54 32q18 17 18 39v66q0 20 -7 33q-8 14 -19 21q-14 8 -25 11q-14 3 -29 3q-17 0 -29 -3q-13 -3 -20 -10q-10 -10 -14 -16q-6 -9 -12 -21q-12 -20 -22 -33q-12 -15 -36 -15
q-20 0 -32 12t-12 29q0 16 14 30t38 23q26 10 57 14q37 5 72 5q28 0 66 -5q36 -5 63 -19q29 -15 48 -40t19 -66v-234q0 -25 2 -51q1 -20 6 -30q5 -11 12 -14t18 -3q6 0 14 2q4 1 12 5l3 -9q-8 -5 -24 -12q-15 -7 -48 -7q-52 0 -76 18t-30 51l-18 -16q-22 -22 -53 -39
t-75 -17zM129 117l-2 -3q0 -47 17 -75q16 -27 51 -27q23 0 45 15t39 30l17 16v214q-8 -11 -24 -21q-18 -11 -46 -24l-25 -11q-42 -17 -57 -42t-15 -72z" />
    <glyph glyph-name="b" unicode="b" horiz-adv-x="593" 
d="M302 -8l-4 2q-35 0 -65 6q-23 5 -55 14l-26 8t-19 6q-19 6 -35 6t-20 -9t-6 -15h-12v538v69q0 24 -5 39q-5 14 -13 18q-9 5 -25 6v11l162 86v-402l13 14q12 14 29 29q17 16 38 29q19 12 47 22q26 9 56 9q37 0 74 -14t65 -42q29 -29 47 -72q18 -44 18 -102q0 -62 -22 -109
t-59 -81q-35 -32 -84 -49t-99 -17zM213 22l-2 -2q9 -5 26 -11q18 -6 59 -6q32 0 56 10q26 11 45 36t30 71q11 47 11 114q0 72 -9 116q-9 43 -24 67t-35 32q-21 8 -42 8q-24 0 -42 -7q-21 -8 -36 -19q-18 -13 -32 -27q-19 -19 -27 -28l-13 -14v-251q0 -40 6 -58q6 -17 29 -31
z" />
    <glyph glyph-name="c" unicode="c" horiz-adv-x="476" 
d="M280 -8l-5 -3q-55 0 -102 18t-81 49q-34 32 -54 75q-19 42 -19 94q0 59 24 105q24 47 62 80q37 33 84 51t93 18q34 0 66 -6q33 -6 54 -16q23 -11 36 -25q14 -16 14 -34t-12 -30t-32 -12q-15 0 -27 5q-10 4 -18 14q-7 9 -12 23l-11 32q-8 20 -18 27q-11 8 -36 8
q-24 0 -49 -9t-46 -33q-20 -23 -34 -65q-13 -39 -13 -105q0 -122 41 -181q40 -58 126 -58q46 0 80 17q33 17 59 47l9 -9q-29 -35 -74 -56t-105 -21z" />
    <glyph glyph-name="d" unicode="d" horiz-adv-x="598" 
d="M243 -8l1 -4q-38 0 -75 15q-38 15 -68 45q-29 30 -49 73q-19 42 -19 102q0 59 21 105q21 47 57 80t83 51q46 18 98 18q40 0 72 -12q31 -12 53 -29v111q0 55 -1 72q-2 25 -6 39t-15 18q-8 4 -27 7v12l165 84v-607q0 -59 1 -79q1 -29 6 -46q4 -17 15 -24q11 -8 28 -12v-10
h-167v86l-14 -14q-34 -33 -72 -57t-87 -24zM155 237l-2 -3q0 -66 9 -109t24 -69t36 -36q20 -10 45 -10q37 0 70 21q36 23 65 52l14 14v322q-23 20 -53 32t-71 12q-62 0 -99 -57q-38 -58 -38 -169z" />
    <glyph glyph-name="e" unicode="e" 
d="M287 -9l-2 -5q-45 0 -93 14q-46 13 -84 44q-37 30 -61 76q-24 47 -24 113q0 61 26 107q25 45 63 75q37 30 80 45q42 15 75 15q51 0 87 -13q39 -14 63 -34q26 -22 41 -48q16 -28 17 -55h-321q-4 -19 -6 -42q-1 -15 -1 -48q0 -49 12 -90q12 -42 34 -69q22 -28 56 -45
q32 -16 77 -16q46 0 77 14q28 12 55 35l8 -8q-28 -25 -71 -46q-39 -19 -108 -19zM265 462l-1 -1q-37 0 -67 -30q-29 -29 -43 -96h209q-3 27 -9 51q-7 26 -16 41q-11 18 -28 26q-18 9 -45 9z" />
    <glyph glyph-name="f" unicode="f" horiz-adv-x="306" 
d="M29 10l-5 -3q17 5 26 12q10 8 14 24t6 47q1 20 1 80v284h-54v11q18 3 30 8t17 13t7 21q2 16 2 29v47q0 50 16 83q17 34 42 57q26 23 55 33t58 10q28 0 48 -4q24 -5 39 -13q16 -9 27 -23q10 -13 10 -33q0 -14 -10 -27t-33 -13q-25 0 -36 12q-10 12 -15 35q-8 36 -13 44
q-6 9 -20 9q-23 0 -37 -27q-13 -26 -13 -96v-161h99v-14h-99v-284q0 -39 2 -79q1 -28 8 -46q6 -16 20 -24q13 -8 39 -12v-10h-231v10z" />
    <glyph glyph-name="g" unicode="g" 
d="M236 167l3 -9q-21 0 -49 5q-25 4 -49 15l-9 -8q-20 -15 -27 -24q-7 -8 -7 -17t9 -17t42 -9l164 -13q51 -5 80 -13q33 -9 51 -22q20 -14 27 -31q8 -19 8 -43q0 -37 -18 -67t-51 -51q-32 -20 -78 -31q-43 -10 -97 -10q-41 0 -81 6t-72 18t-51 30t-19 44q0 16 9 30t24 24
t33 18q17 7 38 12q-34 10 -51 30q-16 19 -16 47q0 31 21 54q22 24 46 42l11 9q-37 18 -63 50q-25 31 -25 78q0 39 18 69t48 51q29 20 66 31q38 11 69 11q26 0 55 -6q30 -6 54 -19q25 24 53 36q27 12 50 12q24 0 34 -10t10 -27t-10 -26t-24 -9q-11 0 -21 5q-6 3 -18 11
t-18 11q-10 5 -20 5q-15 0 -29 -11q35 -19 60 -53q24 -33 24 -78q0 -39 -19 -67q-20 -30 -49 -47q-30 -18 -66 -27t-70 -9zM239 170l1 -2q16 0 33 6q16 6 30 23q15 18 23 43q9 27 9 68q0 39 -8 69q-8 29 -21 47q-14 19 -31 26q-19 8 -36 8t-35 -8q-16 -7 -30 -26
q-14 -18 -21 -46q-8 -30 -8 -69q0 -40 9 -67t22 -43q14 -17 30 -23t33 -6zM85 -80l-2 -4q0 -46 40 -67q41 -21 114 -21q50 0 86 9q38 9 60 22q24 13 36 30t12 33q0 28 -33 39t-105 15l-127 12l-18 3q-6 1 -16 3q-26 -8 -36 -28q-11 -22 -11 -46z" />
    <glyph glyph-name="h" unicode="h" horiz-adv-x="573" 
d="M17 10l-4 -7q17 5 26 12q10 8 14 24t6 47q1 20 1 80v375q0 57 -1 74q-2 26 -6 38q-5 12 -14 17q-7 4 -27 7v12l166 84v-421l32 30q12 10 34 30q18 16 39 30q19 12 45 22q24 9 51 9q23 0 47 -6q23 -6 43 -21q18 -14 31 -41q12 -25 12 -66v-171v-79q0 -28 5 -46
q4 -16 14 -24q9 -7 26 -12v-10h-214v10q19 5 29 12t15 24q4 16 6 47q1 20 1 80v210q0 38 -16 53t-42 15q-27 0 -57 -21q-26 -18 -67 -56l-32 -29v-171q0 -59 1 -79q1 -29 6 -46q5 -16 15 -24q10 -7 29 -12v-10h-214v10z" />
    <glyph glyph-name="i" unicode="i" horiz-adv-x="247" 
d="M120 538l-3 -2q-27 0 -46 19t-19 46t20 47t47 20q29 0 48 -19q20 -20 20 -46q0 -27 -19 -46t-48 -19zM10 8l-1 -3q19 5 29 12t15 24q4 16 6 47q1 20 1 80v79q0 56 -1 74q-1 26 -6 40t-15 17q-11 3 -28 6v11l167 86v-312q0 -59 1 -79q1 -29 6 -46q4 -16 15 -24t30 -12v-10
h-219v10z" />
    <glyph glyph-name="j" unicode="j" horiz-adv-x="247" 
d="M120 538l-3 -2q-27 0 -46 19t-19 46t20 47t47 20q29 0 48 -19q20 -20 20 -46q0 -27 -19 -46t-48 -19zM-32 -147l-2 -3q-20 0 -36 11q-15 11 -15 33q0 20 11 29q10 9 27 9q14 0 24 -7q11 -8 20 -17q12 -12 18 -17q8 -7 18 -7q6 0 10 4q6 6 8 10q4 7 5 18q2 16 2 31v49v250
q0 56 -1 74q-1 26 -6 40q-4 13 -14 18q-7 4 -27 7v11l165 86v-388q0 -58 -22 -106q-22 -49 -84 -94q-34 -24 -55 -32q-24 -9 -46 -9z" />
    <glyph glyph-name="k" unicode="k" horiz-adv-x="533" 
d="M17 10l-2 -3q17 5 26 12q10 8 14 24t6 47q1 20 1 80v372q0 57 -1 75q-2 28 -6 41q-5 14 -15 17q-11 3 -28 6v12l167 84v-527l199 150q32 22 27 39q-4 16 -30 19v10h129v-10q-24 -8 -49 -22q-28 -15 -64 -43l-119 -90l209 -253q19 -23 28 -30q11 -8 24 -12v-10h-215v10
q23 3 26 18q3 16 -22 44l-142 172v-71q0 -59 1 -79q1 -29 6 -46q5 -16 15 -24q10 -7 29 -12v-10h-214v10z" />
    <glyph glyph-name="l" unicode="l" horiz-adv-x="251" 
d="M16 10l-3 -1q17 4 28 12q11 7 15 24q4 16 6 47q1 20 1 80v390v65q0 24 -4 35q-5 12 -13 15q-11 4 -26 5v12l163 84v-607q0 -59 1 -79q1 -29 6 -46q4 -16 15 -24t30 -12v-10h-219v10z" />
    <glyph glyph-name="m" unicode="m" horiz-adv-x="848" 
d="M17 10l1 -11q17 5 26 12q10 8 14 24t6 47q1 20 1 80v79q0 57 -1 74q-2 25 -6 39q-5 14 -15 17q-11 3 -28 6v11l167 86v-112l20 19q8 8 30 28q14 13 36 28q18 12 42 22q22 9 48 9q21 0 40 -4q22 -5 39 -16q18 -12 30 -33t15 -54l22 21q8 8 30 28q14 13 36 28q18 12 42 22
q22 9 48 9q20 0 43 -6q22 -6 40 -21t30 -41q12 -25 12 -66v-171v-79q0 -28 5 -46q4 -16 14 -24q9 -7 26 -12v-10h-214v10q19 5 29 12q11 7 15 24q4 16 6 47q1 20 1 80v210q0 38 -12 54q-12 17 -34 17q-26 0 -55 -22q-30 -23 -63 -54l-21 -19v-184v-79q0 -28 5 -46
q4 -16 14 -24q9 -7 26 -12v-10h-214v10q19 5 30 12t15 24q4 16 6 47q1 20 1 80v210q0 38 -12 54q-12 17 -35 17q-26 0 -55 -22q-30 -23 -63 -54l-20 -19v-185q0 -59 1 -79q1 -29 6 -46q5 -16 15 -24q10 -7 29 -12v-10h-214v10z" />
    <glyph glyph-name="n" unicode="n" horiz-adv-x="573" 
d="M17 10l-3 -7q17 5 26 12q10 8 14 24t6 47q1 20 1 80v79q0 57 -1 74q-2 25 -6 39q-5 14 -15 17q-11 3 -28 6v11l167 86v-126l32 30q12 10 34 30q18 16 39 30q19 12 45 22q24 9 51 9q23 0 47 -6q23 -6 43 -21q18 -14 31 -41q12 -25 12 -66v-171v-79q0 -28 5 -46
q4 -16 14 -24q9 -7 26 -12v-10h-214v10q19 5 29 12t15 24q4 16 6 47q1 20 1 80v210q0 38 -16 53t-42 15q-27 0 -57 -21q-26 -18 -67 -56l-32 -29v-171q0 -59 1 -79q1 -29 6 -46q5 -16 15 -24q10 -7 29 -12v-10h-214v10z" />
    <glyph glyph-name="o" unicode="o" horiz-adv-x="563" 
d="M281 -11l-1 -1q-35 0 -82 14q-44 13 -84 44t-65 76q-26 47 -26 111t26 111t65 77t84 45t83 15t83 -15t84 -45t65 -77t26 -111t-26 -111q-25 -45 -65 -76q-38 -29 -84 -43q-47 -14 -83 -14zM280 0h-5q29 0 53 12t42 39q19 28 29 72q11 47 11 111q0 66 -10 109t-29 73
q-18 28 -42 42q-23 13 -52 13t-52 -13q-24 -14 -42 -42q-17 -28 -28 -73q-10 -43 -10 -109q0 -64 11 -111q10 -44 29 -72q18 -27 42 -39t53 -12z" />
    <glyph glyph-name="p" unicode="p" horiz-adv-x="592" 
d="M17 -154l-5 -3q17 5 26 12q10 8 14 24t6 47q1 20 1 80v242q0 57 -1 74q-2 26 -6 39q-5 14 -14 17t-27 6v11l166 86v-106l8 9q9 9 33 31q18 17 39 30q22 14 44 23q23 9 48 9q41 0 81 -14q39 -13 69 -42t48 -72t18 -103q0 -64 -21 -112q-21 -47 -57 -79t-82 -48
q-45 -16 -97 -16q-33 0 -66 11q-32 11 -62 36v-31q0 -59 1 -79q1 -29 6 -46q4 -16 14 -24q9 -8 27 -12v-10h-211v10zM175 360l1 -309q32 -29 63 -39q33 -11 66 -11q26 0 50 12t42 39t30 71q12 43 12 107q0 68 -9 111q-9 44 -24 68t-36 33t-45 9q-41 0 -76 -24
q-36 -25 -66 -58z" />
    <glyph glyph-name="q" unicode="q" horiz-adv-x="592" 
d="M362 -154q19 5 29 12q11 8 15 24t6 47q1 20 1 80v76l-15 -15q-34 -32 -70 -54q-38 -23 -87 -23q-42 0 -81 15q-38 15 -69 44q-30 28 -48 71q-18 42 -18 95q0 62 22 109q23 48 60 81t86 51q48 18 101 18q36 0 68 -8q26 -7 54 -17q12 -4 42 -17q19 -8 30 -8q14 0 20 9t9 26
h12v-455q0 -59 1 -79q1 -29 6 -46t13 -24q9 -7 26 -12v-10h-213v10zM150 237v-3q0 -65 9 -107q9 -43 24 -68t36 -36q20 -10 46 -10q37 0 69 21t63 51l15 15v259q0 40 -4 56q-5 19 -19 29q-11 8 -31 15q-22 8 -63 8q-33 0 -59 -13t-46 -42q-20 -28 -30 -72q-10 -41 -10 -103z
" />
    <glyph glyph-name="r" unicode="r" horiz-adv-x="401" 
d="M17 10l1 1q17 5 26 12q10 8 14 24t6 47q1 20 1 80v76q0 58 -1 76q-1 26 -6 40t-15 17q-11 3 -28 6v11l167 86v-114l20 23q26 30 42 44q19 17 35 26q17 9 30 12t27 3q29 0 42 -13q14 -14 14 -36q0 -29 -13 -42t-33 -13q-15 0 -27 6q-13 7 -21 13q-6 5 -18 13q-9 6 -20 6
t-24 -7q-14 -7 -33 -30l-21 -24v-182q0 -59 1 -79q1 -29 6 -46q5 -16 15 -24t30 -12v-10h-217v10z" />
    <glyph glyph-name="s" unicode="s" horiz-adv-x="424" 
d="M206 3l-1 -7q30 0 54 8q23 8 36 21q14 14 20 30q6 17 6 36q0 41 -30 60q-31 20 -103 35q-38 7 -70 18q-31 10 -52 27t-33 40q-12 24 -12 58q0 32 14 60t37 45q25 19 56 29q33 11 69 11q29 0 48 -4q23 -5 37 -10l30 -10q12 -4 27 -4t18 16h12v-112h-12q-21 56 -60 84
q-40 29 -99 29q-52 0 -82 -21t-30 -60q0 -20 9 -33t27 -22t42 -15q22 -6 56 -12q47 -10 75 -19q33 -11 57 -27t36 -41q12 -24 12 -60q0 -35 -15 -65t-40 -52t-61 -34t-78 -12q-32 0 -54 6q-25 7 -41 12t-31 12q-14 6 -25 6q-17 0 -20 -17h-13v130h12q20 -61 60 -99
q40 -37 112 -37z" />
    <glyph glyph-name="t" unicode="t" horiz-adv-x="315" 
d="M198 -10l-1 -2q-67 0 -99 33q-31 32 -31 79v355h-41v12q22 3 44 15t42 35t36 54q16 30 25 72h11v-173h107v-14h-107v-338q0 -56 9 -81t45 -25q18 0 32 8t24 18l8 -8q-3 -4 -12 -13q-6 -6 -20 -13q-10 -5 -30 -10q-16 -4 -42 -4z" />
    <glyph glyph-name="u" unicode="u" horiz-adv-x="555" 
d="M195 -8l-2 -2q-24 0 -48 6q-23 6 -43 21q-18 14 -31 41q-12 26 -12 66v136q0 52 -1 68q-2 24 -6 36t-14 15q-9 3 -27 6v11l166 86v-386q0 -43 17 -62q16 -18 42 -18t58 23t72 60l11 11v150q0 52 -1 68q-2 24 -6 36t-14 15q-9 3 -27 6v11l166 86v-312v-79q0 -28 5 -46
q4 -17 15 -24q11 -8 28 -12v-10h-166v96l-11 -11l-36 -33q-18 -17 -39 -30t-45 -21q-26 -8 -51 -8z" />
    <glyph glyph-name="v" unicode="v" horiz-adv-x="500" 
d="M75 355l-3 -1q-14 32 -24 51q-11 21 -19 30q-10 11 -16 15q-10 6 -16 8v10h200v-10q-11 -1 -19 -6t-9 -16q-2 -13 4 -31q4 -14 20 -49l108 -245l99 221q18 42 23 63q6 25 2 37q-4 13 -15 19q-12 7 -25 8v10h114v-10q-6 -2 -16 -8q-6 -4 -16 -17q-9 -12 -21 -36
q-14 -28 -30 -64l-152 -340h-28z" />
    <glyph glyph-name="w" unicode="w" horiz-adv-x="736" 
d="M71 355l-9 -3q-19 47 -22 53q-10 21 -16 30q-8 11 -13 15q-7 5 -14 8v10h186v-10q-11 -2 -17 -6t-6 -15t6 -30t18 -51l98 -243l76 163l-30 77q-20 47 -22 51q-10 21 -16 30q-8 10 -15 15q-10 6 -16 8v10h188v-10q-11 -2 -17 -6t-7 -16q-1 -11 5 -30q6 -18 18 -48l94 -239
l91 217q15 37 21 60t3 36q-3 14 -14 20q-12 7 -27 8v10h116v-10q-9 -3 -18 -8q-8 -5 -17 -17q-10 -13 -20 -35q-11 -23 -27 -63l-144 -342h-28l-106 268l-126 -268h-27z" />
    <glyph glyph-name="x" unicode="x" horiz-adv-x="513" 
d="M11 10l-2 -4q18 7 29 12q12 6 24 18q17 17 26 28l35 42l84 105l-103 155l-29 44q-11 16 -20 26q-9 8 -16 13q-6 4 -18 7v10h210v-10q-25 -4 -28 -21t24 -57l66 -99l64 78q24 30 33 46q11 19 11 30q0 13 -9 17q-11 6 -22 8v10h116v-10q-13 -4 -28 -11q-12 -6 -24 -18
q-17 -17 -26 -28l-33 -42l-72 -89l113 -169l30 -42q13 -18 22 -27q10 -10 18 -15q5 -3 17 -7v-10h-216v10q12 2 21 6q9 5 11 14q2 10 -4 24q-7 16 -21 38l-75 112l-76 -94q-40 -51 -39 -73q2 -23 30 -27v-10h-123v10z" />
    <glyph glyph-name="y" unicode="y" horiz-adv-x="507" 
d="M120 -169l1 -6q-29 0 -42 12q-14 12 -14 32q0 19 11 30q10 10 26 10q12 0 24 -5q9 -4 18 -11q10 -8 15 -11q8 -5 17 -5q8 0 15 3q6 2 16 14t20 30q12 22 24 49l3 6l-179 374l-24 51q-8 18 -17 30q-8 10 -15 15q-6 4 -16 7v10h201v-10q-10 -2 -18 -6t-9 -15q-2 -11 3 -29
q5 -19 18 -47l117 -243l98 219q16 39 21 62q4 23 0 36q-5 14 -16 18q-15 6 -27 8v10h116v-10q-11 -1 -18 -6q-6 -4 -16 -17q-9 -12 -21 -36l-30 -63l-160 -358q-16 -37 -35 -69q-16 -27 -33 -46q-15 -17 -35 -25q-19 -8 -39 -8z" />
    <glyph glyph-name="z" unicode="z" horiz-adv-x="469" 
d="M428 -11l-1 -4q-10 4 -16 6q-7 2 -24 4q-20 2 -39 2h-60h-279l306 458h-93q-52 0 -84 -6q-31 -6 -51 -20q-19 -13 -30 -33t-21 -45h-11l24 129q9 -3 21 -6q9 -2 27 -4q10 -1 38 -1h54h263l-310 -459h107q55 0 84 7q32 8 51 22q20 15 30 37l24 54h11z" />
    <glyph glyph-name="braceleft" unicode="{" horiz-adv-x="328" 
d="M305 -106l-1 -11q-109 0 -166 33t-57 95q0 31 9 63q6 21 20 61l20 58q9 29 9 54q0 14 -3 29t-15 27q-13 13 -36 20q-26 8 -66 8v12q40 0 66 8q23 7 36 20q12 12 15 27t3 29q0 25 -9 54l-20 58q-14 40 -20 60q-9 30 -9 62q0 62 57 95t166 33v-11q-62 -1 -90 -26
q-27 -24 -27 -84q0 -20 5 -48l9 -53l9 -54q5 -30 5 -52q0 -45 -39 -78t-106 -42q67 -7 106 -42t39 -78q0 -28 -4 -52l-9 -54l-9 -53q-4 -23 -4 -48q0 -60 27 -84q26 -23 89 -25v-11z" />
    <glyph glyph-name="bar" unicode="|" horiz-adv-x="275" 
d="M147 820v-926h-19v926h19z" />
    <glyph glyph-name="braceright" unicode="}" horiz-adv-x="328" 
d="M23 -95l-1 4q61 1 89 26q27 24 27 84q0 25 -4 48l-9 53l-9 54q-4 24 -4 53q0 43 39 78t106 42q-67 9 -106 42t-39 78q0 23 5 53l9 54l9 53q5 28 5 48q0 60 -27 84q-28 25 -90 26v11q109 0 166 -33t57 -95q0 -32 -9 -62t-21 -60q-13 -32 -21 -58q-9 -28 -9 -54
q0 -14 3 -29t15 -27q11 -11 36 -19q22 -7 67 -7v-12q-45 0 -67 -7q-25 -8 -36 -19q-12 -12 -15 -27t-3 -29q0 -26 9 -54q8 -26 21 -58q12 -31 21 -61q9 -31 9 -63q0 -62 -57 -95t-166 -33v11z" />
    <glyph glyph-name="asciitilde" unicode="~" horiz-adv-x="380" 
d="M121 417l-3 -2q17 0 38 -3l42 -5q28 -4 41 -6q19 -3 35 -3q11 0 27 8q14 7 31 33l9 -4q-17 -54 -34 -78q-18 -26 -42 -26q-18 0 -39 3l-42 5q-28 4 -41 6q-20 3 -35 3q-12 0 -27 -6q-14 -6 -34 -35l-9 4q19 51 39 79q19 27 44 27z" />
    <glyph glyph-name="uni00A0" unicode="&#xa0;" horiz-adv-x="199" 
 />
    <glyph glyph-name="exclamdown" unicode="&#xa1;" horiz-adv-x="270" 
d="M129 242h12q11 -110 24 -186l24 -130l18 -87q7 -31 7 -56q0 -41 -21 -62t-57 -21t-57 21t-21 62q0 25 7 56l18 87q13 69 23 130q13 85 23 186zM136 473q30 0 50 -19q21 -20 21 -51t-21 -51q-22 -20 -50 -20t-50 20q-21 20 -21 51t21 51q20 19 50 19z" />
    <glyph glyph-name="cent" unicode="&#xa2;" horiz-adv-x="482" 
d="M286 576l-5 -97q37 0 69 -6q33 -6 54 -16q23 -11 36 -25t13 -33q0 -18 -12 -30t-32 -12q-15 0 -27 5q-10 4 -18 14q-8 9 -12 22l-10 30q-8 22 -18 30q-11 8 -39 8v-454q3 -1 9 -1h10q50 0 85 18t60 48l9 -9q-29 -36 -73 -56q-45 -21 -100 -21v-94h-16v94q-53 1 -99 20
q-44 18 -78 50q-33 32 -51 73q-18 42 -18 92q0 55 23 103q22 46 58 79t80 51q45 19 86 20v97h16zM142 255l2 -2q0 -215 123 -240v451q-20 -1 -43 -12q-21 -10 -40 -35q-18 -24 -30 -63t-12 -99z" />
    <glyph glyph-name="sterling" unicode="&#xa3;" horiz-adv-x="598" 
d="M71 51l-3 -4q20 19 33 36q15 19 23 34q10 20 14 37q5 22 5 45q0 25 -4 44q-5 22 -12 44h-105v14h100q-8 26 -13 39l-15 39h-73v14h68q-9 28 -16 65q-6 33 -6 71q0 50 23 93t61 72q39 30 89 45t105 15q54 0 93 -10q40 -10 69 -27t44 -38t15 -45q0 -26 -15 -42t-41 -16
q-31 0 -48 14t-23 45q-3 13 -7 39q-3 19 -12 34t-25 24q-17 9 -48 9q-41 0 -68 -15t-42 -42t-21 -64q-6 -38 -6 -82q0 -35 5 -75q3 -27 11 -69h196v-14h-194q7 -31 8 -40q4 -26 5 -39h181v-14h-180q1 -3 1 -11v-11q0 -31 -10 -54q-11 -25 -25 -42q-17 -21 -31 -32
q-3 -3 -13 -11l-14 -11h180q52 0 108 2q40 1 68 8q26 6 39 18t21 32h13l-35 -134q-8 -26 -13 -33q-6 -8 -25 -8h-485z" />
    <glyph glyph-name="yen" unicode="&#xa5;" horiz-adv-x="640" 
d="M205 10l-5 -4q19 6 31 15t18 32q6 22 9 65q3 42 3 114h-184v14h184v79h-184v14h184v36l-163 258q-33 53 -49 72q-18 23 -41 32v9h223v-9q-11 -1 -18 -6q-7 -4 -9 -14q-2 -9 3 -24t18 -36l164 -259l113 204q38 66 39 96q2 30 -36 41v9h123v-9q-13 -5 -22 -10
q-10 -5 -22 -21l-28 -39q-15 -22 -39 -65l-121 -218v-44h184v-14h-184v-79h184v-14h-184q0 -72 3 -114q3 -43 9 -65t18 -31t32 -15v-10h-253v10z" />
    <glyph glyph-name="brokenbar" unicode="&#xa6;" horiz-adv-x="275" 
d="M147 820v-380h-19v380h19zM147 -106h-19v380h19v-380z" />
    <glyph glyph-name="section" unicode="&#xa7;" horiz-adv-x="587" 
d="M270 -144l-13 -2q38 0 65 9t45 24q19 16 26 36q8 22 8 44q0 29 -12 51t-36 45q-26 24 -63 50l-96 65q-47 30 -77 54q-33 26 -51 49q-20 25 -29 51q-9 27 -9 59q0 53 29 93q29 39 68 62q-11 30 -11 61q0 41 15 72q14 30 41 52q26 22 62 32q38 11 78 11q46 0 80 -9
q35 -9 59 -24t36 -33t12 -36q0 -16 -9 -27t-29 -11q-23 0 -33 12q-11 12 -18 34q-6 20 -8 30q-3 15 -12 27q-10 13 -25 20q-18 8 -48 8q-62 0 -97 -25q-36 -26 -36 -69q0 -24 9 -42t30 -36q17 -15 56 -40l87 -55q50 -31 93 -62q36 -26 60 -53q22 -25 33 -53q10 -26 10 -62
q0 -56 -25 -93q-26 -39 -66 -71q10 -24 10 -57q0 -43 -15 -81q-15 -37 -43 -64q-29 -27 -67 -42q-39 -15 -86 -15q-45 0 -87 11q-39 10 -69 29q-28 18 -45 42q-16 23 -16 50q0 17 12 29t32 12q26 0 36 -13q11 -13 15 -33q4 -22 11 -47q6 -21 18 -36t35 -24q22 -9 60 -9z
M270 274l1 -1q79 -54 123 -90q43 -35 61 -69q16 19 24 38t8 44q0 29 -13 51q-14 23 -39 45q-24 21 -65 48l-91 59q-55 34 -94 66q-37 30 -57 65q-16 -11 -28 -30q-12 -18 -12 -45q0 -24 9 -42t32 -38q20 -17 57 -43z" />
    <glyph glyph-name="dieresis" unicode="&#xa8;" horiz-adv-x="446" 
d="M315 540h-1q-27 0 -45 18t-18 47q0 25 18 43t45 18q26 0 44 -18t18 -43q0 -29 -18 -47t-43 -18zM130 540h-1q-25 0 -43 18t-18 47q0 25 18 43t44 18q28 0 46 -18t18 -43q0 -29 -18 -47t-46 -18z" />
    <glyph glyph-name="copyright" unicode="&#xa9;" horiz-adv-x="839" 
d="M421 760q79 0 150 -30q70 -30 123 -83t83 -123t30 -150t-30 -150t-83 -123t-123 -83q-71 -30 -150 -30t-150 30q-70 30 -123 83t-83 123t-30 150t30 150t83 123t123 83q71 30 150 30zM421 0l-1 2q75 0 144 29q68 28 119 80q51 51 81 119t30 146t-30 146t-81 119
q-52 52 -118 80q-69 29 -144 29t-144 -29t-119 -79q-51 -51 -81 -120t-30 -147t30 -147t81 -120q50 -50 119 -79t144 -29zM433 151l-6 -1q-50 0 -92 18t-72 48q-31 30 -47 71q-17 42 -17 87q0 55 21 97q21 43 54 71q32 28 75 43q42 15 84 15q28 0 44 -4q18 -4 33 -9
q5 -1 13.5 -4t12.5 -4q10 -3 21 -3q16 0 20 16h8v-109h-8q-16 57 -55 82q-38 25 -90 25q-28 0 -54 -12t-45 -37t-31 -64t-12 -91q0 -60 12 -102q12 -41 33 -67q20 -24 50 -37q29 -12 63 -12q49 0 83 20q32 19 52 42l6 -6q-7 -10 -21 -24t-33 -24t-45 -18q-24 -7 -57 -7z" />
    <glyph glyph-name="ordfeminine" unicode="&#xaa;" horiz-adv-x="377" 
d="M126 391l-6 1q-49 0 -77 22q-29 23 -29 61q0 22 11 38q10 14 29 27q15 10 44 22l55 22l25 11q26 11 39 21t13 35v49q0 28 -18 39q-19 11 -41 11q-25 0 -36 -9t-21 -28q-5 -9 -17 -25q-9 -12 -28 -12q-15 0 -25 8q-9 8 -9 21q0 27 38 41q39 14 98 14q28 0 52 -4
q26 -4 49 -15q22 -11 36 -30q14 -20 14 -49v-188q0 -39 6 -51t23 -12q3 0 11 2t11 3l2 -8q-5 -3 -18 -9t-39 -6q-39 0 -58 13q-20 14 -24 37l-12 -11q-16 -14 -40 -28q-23 -13 -58 -13zM106 489l-1 1q0 -36 12 -56t37 -20q17 0 35 12q21 14 29 22l10 9v161q-6 -10 -18 -18
q-8 -5 -32 -16l-16 -7q-32 -14 -44 -32t-12 -56z" />
    <glyph glyph-name="guillemotleft" unicode="&#xab;" horiz-adv-x="410" 
d="M195 224v12l170 161l9 -6l-85 -161l86 -161l-9 -6zM43 224v12l171 161l8 -6l-84 -161l85 -161l-8 -6z" />
    <glyph glyph-name="registered" unicode="&#xae;" horiz-adv-x="513" 
d="M257 759v-1q47 0 87 -18t72 -48q30 -29 49 -71q18 -41 18 -87t-18 -88q-18 -43 -49 -72q-32 -30 -72 -48t-87 -18t-87 18t-72 48q-31 29 -49 72q-18 42 -18 89t18 87q19 42 49 71q32 30 72 48t87 18zM257 320l-1 -3q42 0 82 17t68 45t45 68t17 84t-17 84t-45 68
q-29 29 -67 45q-40 17 -82 17q-45 0 -83 -16q-40 -17 -68 -45q-29 -29 -45 -67q-17 -40 -17 -84q0 -45 17 -85q16 -38 45 -67q28 -28 68 -45q38 -16 83 -16zM158 430l-1 -7q6 2 10 4q5 3 6 10q2 10 2 23v41v67v41q0 13 -2 23q-1 7 -6 10q-6 4 -10 5v5h96q55 0 78 -15t23 -40
q0 -33 -27 -48t-64 -15q23 -3 38 -15q16 -13 23 -40q4 -23 12 -36q7 -13 21 -13q10 0 18 8l3 -4q-3 -4 -11 -9t-23 -5q-22 0 -39 12t-24 46q-2 7 -8 33q-3 13 -7 18q-4 6 -10 7q-8 2 -15 2h-20v-31v-41q0 -12 2 -22q1 -6 5 -10q2 -2 9 -4v-5h-79v5zM219 644l-1 -107h43
q50 0 50 51q0 26 -12 41t-48 15h-32z" />
    <glyph glyph-name="macron" unicode="&#xaf;" horiz-adv-x="446" 
d="M338 615v-49h-226v49h226z" />
    <glyph glyph-name="degree" unicode="&#xb0;" horiz-adv-x="282" 
d="M141 758l-2 1q20 0 39 -8t32 -21q14 -14 21 -33q8 -21 8 -40q0 -21 -8 -42q-7 -19 -21 -33t-31 -21q-19 -8 -39 -8t-39 8q-18 8 -32 23t-21 34q-7 18 -7 40q0 20 8 39t21 32t32 21t39 8zM55 657q0 -17 6 -34t18 -29q13 -13 27 -20t33 -7q37 0 61 27t24 64q0 38 -24 63
q-24 26 -61 26q-19 0 -33 -7q-16 -8 -27 -19q-12 -12 -18 -28q-6 -17 -6 -36z" />
    <glyph glyph-name="twosuperior" unicode="&#xb2;" horiz-adv-x="381" 
d="M193 528l-8 -3q48 0 64 1q20 1 37 5q14 3 18 9t9 15h9l-18 -77q-2 -10 -4 -13q-3 -3 -7 -3h-266l118 113q32 32 44 46q16 19 28 41q11 20 15 39q5 22 5 42q0 39 -18 62t-55 23q-16 0 -28 -5q-11 -5 -15 -13q-5 -9 -6 -19q-1 -7 -3 -19q-2 -15 -9 -24t-27 -9q-13 0 -22 9
t-9 25q0 9 8 22q7 12 23 21q15 9 38 15q22 6 54 6q28 0 52 -4q26 -4 49 -15q21 -10 37 -29q15 -18 15 -46q0 -24 -10 -44q-10 -21 -29 -41q-14 -16 -44 -40q-23 -19 -56 -42l-69 -48h80z" />
    <glyph glyph-name="threesuperior" unicode="&#xb3;" horiz-adv-x="384" 
d="M84 821l-1 -2q3 12 4 13q1 3 6 3h256v-6l-177 -142q21 8 45 8q67 0 105 -27t38 -84q0 -52 -45 -88t-129 -36q-60 0 -94 22t-34 48q0 13 9 22t26 9q15 0 23 -8q7 -7 9 -20q1 -7 3 -18q1 -10 8 -20q5 -8 18 -16q11 -7 34 -7q54 0 75 32t21 81q0 46 -13 73q-13 28 -57 28
q-24 0 -45 -8q-17 -7 -34 -20l-6 6l135 109h-91q-37 0 -49 -1q-20 -2 -28 -4q-10 -3 -15 -9t-9 -15h-9z" />
    <glyph glyph-name="acute" unicode="&#xb4;" horiz-adv-x="446" 
d="M135 526l85 127q16 24 30 36t33 12q21 0 33 -12t12 -32q0 -21 -12 -35t-31 -24l-143 -79z" />
    <glyph glyph-name="paragraph" unicode="&#xb6;" horiz-adv-x="573" 
d="M273 329l2 -3q-51 0 -98 14q-44 13 -78 41q-32 26 -52 66q-19 38 -19 90t19 90q20 40 52 66t78 40q47 14 99 14h279v-9q-21 -6 -33 -15t-18 -37q-5 -26 -7 -81q-1 -35 -1 -146v-234q0 -95 -19 -155q-20 -62 -54 -98q-35 -36 -81 -51q-47 -15 -100 -15q-55 0 -81 16
q-27 16 -27 45q0 16 11 27q10 10 30 10q21 0 36 -12q13 -11 28 -27q13 -15 27 -27t35 -12q12 0 33 8q20 8 38 35t30 76t12 134v558h-99v-408h-42z" />
    <glyph glyph-name="periodcentered" unicode="&#xb7;" horiz-adv-x="232" 
d="M117 228q-30 0 -50 19q-21 19 -21 51t21 51q22 20 50 20t50 -20q21 -19 21 -51t-21 -51q-20 -19 -50 -19z" />
    <glyph glyph-name="cedilla" unicode="&#xb8;" horiz-adv-x="446" 
d="M254 0l-31 -48q43 -6 70 -27t27 -49q0 -43 -44 -63q-43 -19 -128 -21l-2 11q47 8 72 19q27 12 27 29t-18 26q-19 10 -50 11l-4 5l65 107h16z" />
    <glyph glyph-name="onesuperior" unicode="&#xb9;" horiz-adv-x="270" 
d="M66 465l-3 10q13 2 20 6q7 5 12 15q5 11 6 31q2 28 2 57v120q0 25 -1 33q-2 12 -6 18q-5 7 -13 8q-9 1 -22 0v8l116 74v-263q0 -43 1 -57q1 -20 6 -31q4 -10 12 -15q7 -4 20 -6v-8h-150z" />
    <glyph glyph-name="ordmasculine" unicode="&#xba;" horiz-adv-x="414" 
d="M207 387l-1 -1q-27 0 -63 11q-35 11 -63 33t-48 57t-20 84t20 84t48 57t63 33q36 11 63 11t63 -11q34 -10 64 -33q29 -22 49 -57t20 -84q0 -50 -19 -84q-20 -35 -49 -57q-30 -23 -64 -33q-33 -10 -63 -10zM206 396l-2 -1q21 0 39 9q19 9 32 30t21 54q8 35 8 83t-8 83
q-8 33 -21 54q-14 21 -31 30q-18 9 -39 9t-39 -9q-17 -9 -31 -30q-13 -21 -21 -54q-8 -35 -8 -82q0 -48 8 -83q8 -33 21 -54t32 -30q18 -9 39 -9z" />
    <glyph glyph-name="guillemotright" unicode="&#xbb;" horiz-adv-x="410" 
d="M36 69l85 161l-84 161l8 6l170 -161v-12l-171 -161zM188 69l85 161l-84 161l8 6l169 -161v-12l-170 -161z" />
    <glyph glyph-name="onequarter" unicode="&#xbc;" horiz-adv-x="503" 
d="M356 -2v-1q0 -20 2 -40q1 -13 5 -22q3 -7 9 -10q8 -4 15 -5v-8h-137v8q8 1 15 5q6 3 9 11q4 9 5 22q2 20 2 40h-200v5l245 284h30v-237h78l-23 -52h-55zM281 49v168l-145 -168h145zM50 379h403v-10h-403v10zM178 464l-3 10q13 2 20 6t12 15t6 31q2 28 2 57v120
q0 25 -1 33q-2 12 -6 18q-5 7 -13 8q-9 1 -22 0v8l116 74v-263q0 -43 1 -57q1 -20 6 -31q4 -11 12 -15q7 -4 20 -6v-8h-150z" />
    <glyph glyph-name="onehalf" unicode="&#xbd;" horiz-adv-x="503" 
d="M50 378h403v-10h-403v10zM178 463l-3 10q13 2 20 6q7 5 12 15q5 11 6 31q2 28 2 57v120q0 25 -1 33q-2 12 -6 18q-5 7 -13 8q-9 1 -22 0v8l116 74v-263q0 -43 1 -57q1 -20 6 -31q4 -10 12 -15q7 -4 20 -6v-8h-150zM259 -24l-8 -3q48 0 64 1q20 1 37 5q14 3 18 9t9 15h9
l-18 -77q-2 -10 -4 -13q-3 -3 -7 -3h-266l118 113q32 32 44 46q16 19 28 41q11 20 15 39q5 22 5 42q0 40 -18 62q-18 23 -55 23q-16 0 -28 -5q-11 -5 -15 -13q-5 -9 -6 -19q-1 -7 -3 -19q-2 -15 -9 -24t-27 -9q-13 0 -22 9t-9 25q0 9 8 22q7 12 23 21q15 9 38 15q22 6 54 6
q28 0 52 -4q26 -4 49 -15q21 -10 37 -29q15 -18 15 -46q0 -24 -10 -44q-10 -21 -29 -41q-14 -16 -44 -40q-23 -19 -56 -42l-69 -48h80z" />
    <glyph glyph-name="threequarters" unicode="&#xbe;" horiz-adv-x="503" 
d="M356 -2v-1q0 -20 2 -40q1 -13 5 -22q3 -7 9 -10q8 -4 15 -5v-8h-137v8q8 1 15 5q6 3 9 11q4 9 5 22q2 20 2 40h-200v5l245 284h30v-237h78l-23 -52h-55zM281 49v168l-145 -168h145zM50 379h403v-10h-403v10zM133 820l-1 -2q3 12 4 13q2 3 6 3h256v-6l-177 -142q21 8 45 8
q68 0 105 -27q38 -27 38 -84q0 -52 -45 -88t-129 -36q-60 0 -94 22t-34 48q0 13 9 22t26 9q15 0 23 -8q7 -7 9 -20q2 -8 3 -18t8 -20q5 -8 18 -16q11 -7 34 -7q54 0 75 32q21 31 21 81q0 46 -13 73q-13 28 -57 28q-24 0 -45 -8q-17 -7 -34 -20l-6 6l135 109h-91
q-37 0 -49 -1q-20 -2 -28 -4q-11 -3 -15 -9t-9 -15h-9z" />
    <glyph glyph-name="questiondown" unicode="&#xbf;" horiz-adv-x="440" 
d="M309 256l-1 1q2 -49 -9 -90t-27 -75q-17 -36 -36 -65q-18 -28 -36 -62q-15 -30 -28 -64q-12 -33 -12 -73q0 -54 23 -85q23 -30 77 -30q22 0 30 12q7 11 13 34q7 29 21 49q13 19 45 19q23 0 37 -13q15 -14 15 -33q0 -35 -40 -57q-41 -23 -123 -23q-52 0 -94 12t-72 33
t-47 50q-16 28 -16 63q0 45 19 77t48 61q28 29 63 54q35 26 64 55q30 30 51 66q22 37 23 84h12zM287 475q30 0 50 -19q21 -20 21 -51t-21 -51q-22 -20 -50 -20t-50 20q-21 20 -21 51t21 51q20 19 50 19z" />
    <glyph glyph-name="Agrave" unicode="&#xc0;" horiz-adv-x="808" 
d="M15 9l1 1q13 5 23 12t22 22q10 13 25 39q12 22 30 62l221 511l-10 24q-15 37 -30 47t-35 15v9h160q8 0 11 -3q4 -4 8 -14l266 -605q21 -48 39 -78q18 -29 48 -40v-11h-241v11q32 8 38 27t-14 66l-57 130h-352l-39 -91q-10 -21 -16 -43q-6 -21 -3 -39q3 -17 15 -31t37 -21
v-9h-147v9zM515 247l-172 392l-169 -392h341zM296 811v-2q-38 5 -51 21t-13 37q0 17 12 32t33 15q13 0 27 -6t27 -15l133 -99l-4 -10z" />
    <glyph glyph-name="Aacute" unicode="&#xc1;" horiz-adv-x="808" 
d="M15 9l1 1q13 5 23 12t22 22q10 13 25 39q12 22 30 62l221 511l-10 24q-15 37 -30 47t-35 15v9h160q8 0 11 -3q4 -4 8 -14l266 -605q21 -48 39 -78q18 -29 48 -40v-11h-241v11q32 8 38 27t-14 66l-57 130h-352l-39 -91q-10 -21 -16 -43q-6 -21 -3 -39q3 -17 15 -31t37 -21
v-9h-147v9zM515 247l-172 392l-169 -392h341zM262 794l132 100q11 8 26 15q14 6 29 6q20 0 32 -15t12 -31q0 -21 -13 -37q-14 -16 -51 -21l-164 -27z" />
    <glyph glyph-name="Acircumflex" unicode="&#xc2;" horiz-adv-x="808" 
d="M15 9l1 1q13 5 23 12t22 22q10 13 25 39q12 22 30 62l221 511l-10 24q-15 37 -30 47t-35 15v9h160q8 0 11 -3q4 -4 8 -14l266 -605q21 -48 39 -78q18 -29 48 -40v-11h-241v11q32 8 38 27t-14 66l-57 130h-352l-39 -91q-10 -21 -16 -43q-6 -21 -3 -39q3 -17 15 -31t37 -21
v-9h-147v9zM515 247l-172 392l-169 -392h341zM366 919l141 -128l-4 -9l-137 44l-137 -44l-4 9z" />
    <glyph glyph-name="Atilde" unicode="&#xc3;" horiz-adv-x="808" 
d="M15 9l1 1q13 5 23 12t22 22q10 13 25 39q12 22 30 62l221 511l-10 24q-15 37 -30 47t-35 15v9h160q8 0 11 -3q4 -4 8 -14l266 -605q21 -48 39 -78q18 -29 48 -40v-11h-241v11q32 8 38 27t-14 66l-57 130h-352l-39 -91q-10 -21 -16 -43q-6 -21 -3 -39q3 -17 15 -31t37 -21
v-9h-147v9zM515 247l-172 392l-169 -392h341zM310 889l-2 2q21 0 33 -1l36 -3q18 -1 33 -3q10 -1 26 -1t32 9t33 35l8 -3q-11 -52 -33 -83q-23 -32 -52 -32q-28 0 -64 3t-61 3q-13 0 -29 -8q-14 -7 -31 -35l-9 3q15 60 36 87t44 27z" />
    <glyph glyph-name="Adieresis" unicode="&#xc4;" horiz-adv-x="808" 
d="M15 9l1 1q13 5 23 12t22 22q10 13 25 39q12 22 30 62l221 511l-10 24q-15 37 -30 47t-35 15v9h160q8 0 11 -3q4 -4 8 -14l266 -605q21 -48 39 -78q18 -29 48 -40v-11h-241v11q32 8 38 27t-14 66l-57 130h-352l-39 -91q-10 -21 -16 -43q-6 -21 -3 -39q3 -17 15 -31t37 -21
v-9h-147v9zM515 247l-172 392l-169 -392h341zM461 792l-1 -1q-26 0 -44 18t-18 47q0 25 18 43t44 18t44 -18t18 -43q0 -28 -18 -46t-43 -18zM263 791v-1q-26 0 -44 18t-18 47q0 25 18 43t44 18t44 -18t18 -43q0 -28 -18 -46t-44 -18z" />
    <glyph glyph-name="Aring" unicode="&#xc5;" horiz-adv-x="808" 
d="M15 9l1 1q13 5 23 12t22 22q10 13 25 39q12 22 30 62l221 511l-10 24q-15 37 -30 47t-35 15v9h160q8 0 11 -3q4 -4 8 -14l266 -605q21 -48 39 -78q18 -29 48 -40v-11h-241v11q32 8 38 27t-14 66l-57 130h-352l-39 -91q-10 -21 -16 -43q-6 -21 -3 -39q3 -17 15 -31t37 -21
v-9h-147v9zM515 247l-172 392l-169 -392h341zM283 863h-3q0 35 25 57t63 22q39 0 62 -22q24 -22 24 -57t-24 -58q-23 -22 -61 -22t-62 21t-24 59zM323 863v-1q0 -68 44 -68t44 68q0 32 -12 50t-32 18q-44 0 -44 -67z" />
    <glyph glyph-name="AE" unicode="&#xc6;" horiz-adv-x="1114" 
d="M1024 750l-4 -7q10 0 14 -3t9 -21l19 -110h-12q-15 37 -32 62q-17 24 -44 38t-70 18q-48 5 -111 5h-129v-315h61q48 0 72 7q26 8 39 19q13 12 18 29q3 11 9 35h11v-190h-11q-6 24 -9 35q-5 17 -18 29q-13 11 -39 19q-24 7 -72 7h-61v-399h150q74 0 113 4q44 5 71 18
q27 14 44 41q18 29 32 72h12l-13 -123q-2 -17 -6 -20q-5 -3 -15 -3h-579v10q20 6 32 15t18 32q7 25 8 66q2 58 2 119h-315l-76 -115q-13 -18 -22 -37q-8 -17 -10 -33q-1 -14 8 -27q9 -12 31 -19v-9h-133v9q7 3 21 11q11 6 23 20q20 22 29 34q14 18 37 54l364 550
q23 35 12 47q-11 13 -42 17v9h564zM526 247v463l-307 -463h307z" />
    <glyph glyph-name="Ccedilla" unicode="&#xc7;" horiz-adv-x="769" 
d="M438 -14v-3q-88 0 -162 33t-126 87q-52 53 -82 123q-30 69 -30 144q0 94 36 166q36 73 93 122t131 75q75 26 147 26q47 0 81 -6t60 -15q28 -10 46 -15q21 -6 41 -6q28 0 35 28h13v-182h-13q-14 49 -39 83t-60 57t-76 33q-44 11 -88 11q-51 0 -97 -21q-45 -20 -82 -65
q-36 -43 -57 -111t-21 -160q0 -102 21 -174q21 -71 59 -117q38 -45 90 -66t114 -21q47 0 83 10q39 11 68 27q30 17 54 36q22 18 40 39l9 -8q-14 -20 -39 -42q-26 -23 -61 -42t-83 -33q-45 -13 -105 -13zM401 -3l-31 -48q43 -6 70 -27t27 -49q0 -43 -44 -63q-43 -19 -128 -21
l-2 11q47 8 72 19q27 12 27 29t-18 26q-19 10 -50 11l-4 5l65 107h16z" />
    <glyph glyph-name="Egrave" unicode="&#xc8;" horiz-adv-x="675" 
d="M282 810v-2q-38 4 -51 21q-13 16 -13 37q0 17 12 32t33 15q13 0 27 -6t27 -15l133 -99l-4 -10zM19 8l-5 -3q21 6 33 15t18 36q5 24 7 80q2 70 2 142v183q0 107 -1 142q-2 55 -7 79q-6 26 -18 37q-11 10 -33 16v9h566q9 0 14 -3t9 -21l19 -110h-12q-17 39 -33 62
q-17 24 -44 38t-69 18q-47 5 -109 5h-145v-315h76q48 0 72 7q26 8 39 19q13 12 18 29q3 11 9 35h11v-190h-11q-6 24 -9 35q-5 17 -18 29q-13 11 -39 19q-24 7 -72 7h-76v-399h166q72 0 111 4q43 4 70 18t44 41q18 29 32 72h12l-13 -123q-2 -17 -6 -20q-5 -3 -15 -3h-593v10z
" />
    <glyph glyph-name="Eacute" unicode="&#xc9;" horiz-adv-x="675" 
d="M248 793l132 100q11 8 26 15q14 6 29 6q20 0 32 -15t12 -31q0 -21 -13 -37q-14 -17 -51 -21l-164 -27zM18 11l-5 -3q21 6 33 15t18 36q5 24 7 80q2 70 2 142v183q0 107 -1 142q-2 55 -7 79q-6 26 -18 37q-11 10 -33 16v9h566q10 0 14 -3t9 -21l19 -110h-12q-17 39 -33 62
q-17 24 -44 38q-27 13 -69 18q-47 5 -109 5h-145v-315h76q48 0 72 7q26 8 39 19q13 12 18 29q3 11 9 35h11v-190h-11q-6 24 -9 35q-5 17 -18 29q-13 11 -39 19q-24 7 -72 7h-76v-399h166q72 0 111 4q43 4 70 18t44 41q18 29 32 72h12l-13 -123q-2 -17 -6 -20t-15 -3h-593v10
z" />
    <glyph glyph-name="Ecircumflex" unicode="&#xca;" horiz-adv-x="675" 
d="M342 918l141 -128l-4 -9l-137 44l-137 -44l-4 9zM19 10l-5 -3q21 6 33 15t18 36q5 24 7 80q2 70 2 142v183q0 107 -1 142q-2 55 -7 79q-6 26 -18 37q-11 10 -33 16v9h566q9 0 14 -3t9 -21l19 -110h-12q-17 39 -33 62q-17 24 -44 38t-69 18q-47 5 -109 5h-145v-315h76
q48 0 72 7q26 8 39 19q13 12 18 29q3 11 9 35h11v-190h-11q-6 24 -9 35q-5 17 -18 29q-13 11 -39 19q-24 7 -72 7h-76v-399h166q72 0 111 4q43 4 70 18t44 41q18 29 32 72h12l-13 -123q-2 -17 -6 -20q-5 -3 -15 -3h-593v10z" />
    <glyph glyph-name="Edieresis" unicode="&#xcb;" horiz-adv-x="675" 
d="M19 10l-5 -3q21 6 33 15t18 36q5 24 7 80q2 70 2 142v183q0 107 -1 142q-2 55 -7 79q-6 26 -18 37q-11 10 -33 16v9h566q9 0 14 -3t9 -21l19 -110h-12q-17 39 -33 62q-17 24 -44 38t-69 18q-47 5 -109 5h-145v-315h76q48 0 72 7q26 8 39 19q13 12 18 29q3 11 9 35h11
v-190h-11q-6 24 -9 35q-5 17 -18 29q-13 11 -39 19q-24 7 -72 7h-76v-399h166q72 0 111 4q43 4 70 18t44 41q18 29 32 72h12l-13 -123q-2 -17 -6 -20q-5 -3 -15 -3h-593v10zM436 788l-1 -1q-26 0 -44 18t-18 47q0 25 18 43t44 18t44 -18t18 -43q0 -28 -18 -46t-43 -18z
M238 787v-1q-26 0 -44 18t-18 47q0 25 18 43t44 18t44 -18t18 -43q0 -28 -18 -46t-44 -18z" />
    <glyph glyph-name="Igrave" unicode="&#xcc;" horiz-adv-x="293" 
d="M19 10l-3 -2q21 6 33 15t18 36q5 24 7 80q2 70 2 142v183q0 107 -1 142q-2 56 -7 80q-6 27 -18 36t-33 15v9h255v-9q-21 -6 -33 -15t-18 -36q-5 -24 -7 -79q-1 -35 -1 -142v-183q0 -72 2 -142q1 -49 8 -79q6 -27 18 -36t33 -15v-10h-255v10zM80 808v-2q-38 4 -51 21
q-13 16 -13 37q0 17 12 32t33 15q13 0 27 -6t27 -15l133 -99l-4 -10z" />
    <glyph glyph-name="Iacute" unicode="&#xcd;" horiz-adv-x="293" 
d="M19 10l-3 -2q21 6 33 15t18 36q5 24 7 80q2 70 2 142v183q0 107 -1 142q-2 56 -7 80q-6 27 -18 36t-33 15v9h255v-9q-21 -6 -33 -15t-18 -36q-5 -24 -7 -79q-1 -35 -1 -142v-183q0 -72 2 -142q1 -49 8 -79q6 -27 18 -36t33 -15v-10h-255v10zM46 791l132 100q11 8 26 15
q14 6 29 6q20 0 32 -15t12 -31q0 -21 -13 -37q-14 -17 -51 -21l-164 -27z" />
    <glyph glyph-name="Icircumflex" unicode="&#xce;" horiz-adv-x="293" 
d="M19 10l-3 -2q21 6 33 15t18 36q5 24 7 80q2 70 2 142v183q0 107 -1 142q-2 56 -7 80q-6 27 -18 36t-33 15v9h255v-9q-21 -6 -33 -15t-18 -36q-5 -24 -7 -79q-1 -35 -1 -142v-183q0 -72 2 -142q1 -49 8 -79q6 -27 18 -36t33 -15v-10h-255v10zM143 916l141 -128l-4 -9
l-137 44l-137 -44l-4 9z" />
    <glyph glyph-name="Idieresis" unicode="&#xcf;" horiz-adv-x="293" 
d="M234 794v-1q-26 0 -44 18t-18 47q0 26 18 42q19 17 44 17t44 -17q18 -16 18 -42q0 -28 -18 -46t-44 -18zM59 793v-1q-26 0 -44 18t-18 47q0 25 18 42q19 17 44 17q26 0 45 -17q18 -17 18 -42q0 -28 -18 -46t-45 -18zM19 8l-3 -2q21 6 33 15t18 36q5 24 7 80q2 70 2 142
v183q0 107 -1 142q-2 56 -7 80q-6 27 -18 36t-33 15v9h255v-9q-21 -6 -33 -15t-18 -36q-5 -24 -7 -79q-1 -35 -1 -142v-183q0 -72 2 -142q1 -49 8 -79q6 -27 18 -36t33 -15v-10h-255v10z" />
    <glyph glyph-name="Eth" unicode="&#xd0;" horiz-adv-x="817" 
d="M19 10h-2q21 6 33 15t18 36q5 24 7 80q2 70 2 142v101h-80v12h80v-12h136v-374h68q88 0 154 21q65 21 109 66q44 46 65 117q21 72 21 174q0 108 -25 174q-26 68 -71 107t-109 54t-142 15h-68v-341h174v-12h-174v12h-136v70q0 107 -1 142q-2 55 -7 79q-6 26 -18 37
q-11 10 -33 16v9h263q112 0 206 -23q91 -23 156 -69q65 -47 99 -115q35 -70 35 -159q0 -84 -32 -156q-31 -69 -95 -121q-62 -50 -156 -79q-91 -28 -214 -28h-263v10z" />
    <glyph glyph-name="Ntilde" unicode="&#xd1;" horiz-adv-x="748" 
d="M377 888l-2 2q21 0 33 -1l36 -3q18 -2 33 -3q10 -1 26 -1q15 0 32 9q16 9 33 35l8 -3q-11 -52 -33 -83q-23 -32 -52 -32q-28 0 -64 3t-61 3q-13 0 -29 -8q-14 -7 -31 -35l-9 3q15 60 36 87t44 27zM17 12l-5 -2q20 9 33 20q12 10 18 39q5 26 7 81q2 70 2 142v176
q0 107 -1 142q-2 55 -7 79q-6 26 -18 37q-11 10 -33 16v9h208q8 0 11 -1q6 -2 9 -4t10 -9q6 -6 15 -18l397 -520v264q0 107 -1 142q-2 53 -9 81t-21 39q-15 12 -37 20v9h142v-9q-20 -9 -33 -20q-12 -11 -18 -39q-5 -26 -7 -81q-1 -35 -1 -142v-463h-32l-557 731v-437
q0 -72 2 -142q1 -52 9 -81t21 -39q14 -11 38 -20v-10h-142v10z" />
    <glyph glyph-name="Ograve" unicode="&#xd2;" horiz-adv-x="865" 
d="M375 810v-2q-37 4 -51 21q-13 16 -13 37q0 17 12 32t33 15q14 0 27 -6t27 -15l133 -99l-4 -10zM432 -17v-2q-76 0 -147 30q-70 30 -125 83q-54 52 -87 125q-33 72 -33 153q0 80 33 150t87 123q55 53 125 83q71 30 147 30t148 -30t127 -82t88 -123t33 -150q0 -81 -33 -153
t-88 -124q-57 -54 -127 -83q-72 -30 -148 -30zM432 -7h-6q49 0 94 21q44 21 79 66q34 44 55 117q21 72 21 174q0 104 -22 173q-23 71 -57 116q-35 46 -78 65q-45 20 -89 20t-89 -20q-43 -19 -78 -65t-56 -116t-21 -173q0 -100 20 -174q19 -72 54 -117t79 -66q45 -21 94 -21z
" />
    <glyph glyph-name="Oacute" unicode="&#xd3;" horiz-adv-x="865" 
d="M337 793l132 100q11 8 26 15q13 6 29 6q20 0 32 -15t12 -31q0 -21 -13 -37q-13 -17 -51 -21l-164 -27zM431 -14v-2q-77 0 -147 30t-125 83q-54 52 -87 125q-33 72 -33 153q0 79 33 150t87 123q55 53 125 83t147 30q76 0 148 -30t127 -82t88 -123q33 -70 33 -150
q0 -81 -33 -153t-88 -124q-57 -54 -127 -83q-72 -30 -148 -30zM431 -4h-6q49 0 94 21q44 21 79 66q34 44 55 117q21 72 21 174q0 104 -22 173q-23 71 -57 116q-35 46 -78 65q-45 20 -89 20t-89 -20q-43 -19 -78 -65t-56 -116t-21 -173q0 -100 20 -174q20 -72 54 -117
q35 -45 79 -66q45 -21 94 -21z" />
    <glyph glyph-name="Ocircumflex" unicode="&#xd4;" horiz-adv-x="865" 
d="M433 918l141 -128l-4 -9l-137 44l-137 -44l-4 9zM432 -15v-2q-76 0 -147 30q-70 30 -125 83q-54 52 -87 125q-33 72 -33 153q0 80 33 150t87 123q55 53 125 83q71 30 147 30t148 -30t127 -82t88 -123t33 -150q0 -81 -33 -153t-88 -124q-57 -54 -127 -83q-72 -30 -148 -30
zM432 -5h-6q49 0 94 21q44 21 79 66q34 44 55 117q21 72 21 174q0 104 -22 173q-23 71 -57 116q-35 46 -78 65q-45 20 -89 20t-89 -20q-43 -19 -78 -65t-56 -116q-21 -71 -21 -173q0 -100 20 -174q19 -72 54 -117t79 -66q45 -21 94 -21z" />
    <glyph glyph-name="Otilde" unicode="&#xd5;" horiz-adv-x="865" 
d="M372 888l-2 2q21 0 33 -1l36 -3q18 -2 33 -3q10 -1 26 -1t32 9t33 35l8 -3q-11 -52 -33 -83q-23 -32 -52 -32q-28 0 -64 3t-61 3q-13 0 -29 -8q-14 -7 -31 -35l-9 3q15 60 36 87t44 27zM430 -13v-2q-76 0 -147 30q-70 30 -125 83q-54 52 -87 125q-33 72 -33 153
q0 80 33 150t87 123q55 53 125 83q71 30 147 30t148 -30t127 -82t88 -123t33 -150q0 -81 -33 -153t-88 -124q-57 -54 -127 -83q-72 -30 -148 -30zM430 -3h-6q49 0 94 21q44 21 79 66q34 44 55 117q21 72 21 174q0 104 -22 173q-23 71 -57 116q-35 46 -78 65q-45 20 -89 20
t-89 -20q-43 -19 -78 -65t-56 -116t-21 -173q0 -100 20 -174q19 -72 54 -117t79 -66q45 -21 94 -21z" />
    <glyph glyph-name="Odieresis" unicode="&#xd6;" horiz-adv-x="865" 
d="M531 791l-1 -1q-26 0 -44 18t-18 47q0 25 18 43t44 18t44 -18t18 -43q0 -28 -18 -46t-43 -18zM333 790v-1q-26 0 -44 18t-18 47q0 25 18 43t44 18t44 -18t18 -43q0 -28 -18 -46t-44 -18zM431 -17v-2q-77 0 -147 30t-125 83q-54 52 -87 125q-33 72 -33 153q0 80 33 150
t87 123q55 53 125 83t147 30q76 0 148 -30t127 -82t88 -123t33 -150q0 -81 -33 -153t-88 -124q-57 -54 -127 -83q-72 -30 -148 -30zM431 -7h-6q49 0 94 21q44 21 79 66q34 44 55 117q21 72 21 174q0 104 -22 173q-23 71 -57 116q-35 46 -78 65q-45 20 -89 20t-89 -20
q-43 -19 -78 -65t-56 -116t-21 -173q0 -100 20 -174q20 -72 54 -117q35 -45 79 -66q45 -21 94 -21z" />
    <glyph glyph-name="multiply" unicode="&#xd7;" horiz-adv-x="452" 
d="M216 351l-162 171l11 12l162 -171l159 167l11 -11l-158 -168l158 -167l-11 -12l-159 167l-157 -167l-13 13z" />
    <glyph glyph-name="Oslash" unicode="&#xd8;" horiz-adv-x="865" 
d="M432 -15q-52 0 -102 15q-47 14 -94 41l-58 -100l-12 7l59 100q-41 26 -75 60t-60 77q-26 42 -39 90q-13 46 -13 101q0 80 33 150t87 123q55 53 125 83q71 30 147 30q49 0 95 -12t89 -35l54 92l12 -6l-54 -93q44 -26 81 -60q36 -33 64 -78q27 -44 42 -93t15 -102
q0 -81 -33 -153t-88 -124q-57 -54 -127 -83q-72 -30 -148 -30zM186 376h-2q0 -97 18 -166t49 -115l339 580q-35 39 -76 57q-42 18 -84 18q-44 0 -89 -20q-43 -19 -78 -65t-56 -116q-21 -71 -21 -173zM430 -3l-2 1q49 0 94 21q44 21 79 66q34 44 55 117q21 72 21 174t-21 173
q-21 70 -56 116l-340 -581q34 -45 78 -66t92 -21z" />
    <glyph glyph-name="Ugrave" unicode="&#xd9;" horiz-adv-x="780" 
d="M376 810v-2q-38 4 -51 21q-13 16 -13 37q0 17 12 32t33 15q13 0 27 -6t27 -15l133 -99l-4 -10zM413 -15l-5 -5q-80 0 -141 19q-63 19 -108 57q-45 37 -69 95q-24 57 -24 133v177q0 107 -1 142q-2 56 -7 80q-6 28 -16 36q-10 9 -30 15v9h250v-9q-21 -6 -33 -15t-18 -36
q-5 -24 -7 -79q-1 -35 -1 -142v-207q0 -68 7 -113q8 -48 30 -81q22 -32 63 -49q39 -16 106 -16q63 0 116 14q50 13 87 47q35 32 55 87q19 53 19 133v192q0 102 -1 135q-1 46 -8 76q-6 26 -20 39q-13 12 -38 21v9h142v-9q-21 -9 -33 -21t-18 -39q-5 -24 -7 -76
q-1 -33 -1 -135v-192q0 -80 -20 -137q-20 -56 -57 -90q-38 -35 -91 -50q-54 -15 -121 -15z" />
    <glyph glyph-name="Uacute" unicode="&#xda;" horiz-adv-x="780" 
d="M348 793l132 100q11 8 26 15q14 6 29 6q20 0 32 -15t12 -31q0 -21 -13 -37q-14 -17 -51 -21l-164 -27zM412 -12l-5 -5q-80 0 -141 19q-63 20 -108 57t-69 95q-24 57 -24 133v177q0 107 -1 142q-2 56 -7 80q-6 28 -16 36q-11 9 -30 15v9h250v-9q-21 -6 -33 -15t-18 -36
q-5 -24 -7 -79q-1 -35 -1 -142v-207q0 -68 7 -113q7 -48 30 -81q22 -32 63 -49q39 -16 106 -16q63 0 116 14q50 13 87 47q35 32 55 87q19 53 19 133v192q0 102 -1 135q-1 46 -8 76q-6 26 -20 39q-13 12 -38 21v9h142v-9q-21 -9 -33 -21t-18 -39q-5 -24 -7 -76
q-1 -33 -1 -135v-192q0 -80 -20 -137q-19 -55 -57 -90t-91 -50q-54 -15 -121 -15z" />
    <glyph glyph-name="Ucircumflex" unicode="&#xdb;" horiz-adv-x="780" 
d="M446 918l141 -128l-4 -9l-137 44l-137 -44l-4 9zM413 -13l-5 -5q-80 0 -141 19q-63 19 -108 57q-45 37 -69 95q-24 57 -24 133v177q0 107 -1 142q-2 56 -7 80q-6 28 -16 36q-10 9 -30 15v9h250v-9q-21 -6 -33 -15t-18 -36q-5 -24 -7 -79q-1 -35 -1 -142v-207
q0 -68 7 -113q8 -48 30 -81q22 -32 63 -49q39 -16 106 -16q63 0 116 14q50 13 87 47q35 32 55 87q19 53 19 133v192q0 102 -1 135q-1 46 -8 76q-6 26 -20 39q-13 12 -38 21v9h142v-9q-21 -9 -33 -21t-18 -39q-5 -24 -7 -76q-1 -33 -1 -135v-192q0 -80 -20 -137
q-20 -56 -57 -90q-38 -35 -91 -50q-54 -15 -121 -15z" />
    <glyph glyph-name="Udieresis" unicode="&#xdc;" horiz-adv-x="780" 
d="M413 -13l-5 -5q-80 0 -141 19q-63 19 -108 57q-45 37 -69 95q-24 57 -24 133v177q0 107 -1 142q-2 56 -7 80q-6 28 -16 36q-10 9 -30 15v9h250v-9q-21 -6 -33 -15t-18 -36q-5 -24 -7 -79q-1 -35 -1 -142v-207q0 -68 7 -113q8 -48 30 -81q22 -32 63 -49q39 -16 106 -16
q63 0 116 14q50 13 87 47q35 32 55 87q19 53 19 133v192q0 102 -1 135q-1 46 -8 76q-6 26 -20 39q-13 12 -38 21v9h142v-9q-21 -9 -33 -21t-18 -39q-5 -24 -7 -76q-1 -33 -1 -135v-192q0 -80 -20 -137q-20 -56 -57 -90q-38 -35 -91 -50q-54 -15 -121 -15zM537 786l-1 -1
q-26 0 -44 18t-18 47q0 25 18 43t44 18t44 -18t18 -43q0 -28 -18 -46t-43 -18zM339 785v-1q-26 0 -44 18t-18 47q0 25 18 43t44 18t44 -18t18 -43q0 -28 -18 -46t-44 -18z" />
    <glyph glyph-name="Yacute" unicode="&#xdd;" horiz-adv-x="735" 
d="M243 10l-2 -4q21 6 33 15t18 36q5 24 7 80q2 70 2 142v70l-186 285q-28 41 -46 63q-21 25 -56 39v9h253v-9q-24 -8 -30 -28t23 -66l170 -262l158 239q37 55 38 80q1 13 -9 22.5t-30 15.5v9h133v-9q-14 -6 -22 -10q-11 -5 -25 -18q-14 -12 -30 -33t-39 -54l-167 -252v-88
q0 -72 2 -142q1 -49 8 -79q6 -27 18 -36t33 -15v-10h-254v10zM335 789l132 100q11 8 26 15q13 6 29 6q20 0 32 -15t12 -31q0 -21 -13 -37q-13 -17 -51 -21l-164 -27z" />
    <glyph glyph-name="Thorn" unicode="&#xde;" horiz-adv-x="667" 
d="M19 10h-3q21 6 33 15t18 36q5 24 7 80q2 70 2 142v183q0 107 -1 142q-2 56 -7 80q-6 27 -18 36t-33 15v9h255v-9q-18 -5 -27 -10q-10 -6 -18 -20q-7 -12 -10 -38q-2 -18 -4 -65h125q73 0 127 -10q58 -11 98 -33q41 -23 63 -58t22 -88q0 -55 -23 -96q-22 -40 -63 -67
q-40 -26 -97 -40q-55 -13 -123 -13h-129q2 -69 4 -97q3 -35 9 -55q6 -19 18 -27t30 -12v-10h-255v10zM337 215l-1 4q39 0 74 11q33 10 57 33q24 22 36 59q12 36 12 87q0 55 -13 90q-14 37 -37 57q-24 21 -57 30t-72 9h-124q-1 -17 -1 -57v-71v-252h126z" />
    <glyph glyph-name="germandbls" unicode="&#xdf;" horiz-adv-x="607" 
d="M192 172l-6 -12q0 -59 1 -79q1 -29 6 -46t13 -24q9 -8 25 -12v-10h-206v10q17 5 26 12q10 8 14 24t6 47q1 20 1 80v284h-54v11q14 3 27 8q11 5 17 15q6 11 9 28q3 18 3 47q0 53 22 90t57 63q34 25 76 37t83 12q44 0 81 -9t66 -24q28 -15 45 -38t17 -49q0 -25 -12 -45
q-13 -20 -31 -36q-19 -16 -43 -31t-46 -34q-31 -25 -42 -44t-11 -40q0 -32 30 -53q32 -23 81 -47q71 -35 107 -72t36 -90q0 -37 -15 -66q-14 -27 -41 -49q-24 -20 -57 -31t-63 -11q-25 0 -45 5q-22 5 -32 10q-3 1 -11.5 4.5t-11.5 5.5q-10 5 -19 5q-5 0 -9 -4q-5 -5 -6 -10
h-12v117h11q13 -56 48 -88q34 -31 89 -31q43 0 64 27t21 63q0 42 -27 69q-26 27 -88 58t-93 62q-30 30 -30 72q0 25 9 45t24 36q13 14 33 31l36 30q59 50 59 140q0 55 -24 86q-24 32 -86 32q-28 0 -49 -7q-23 -8 -39 -24q-16 -15 -25 -44q-9 -27 -9 -65v-441z" />
    <glyph glyph-name="agrave" unicode="&#xe0;" horiz-adv-x="484" 
d="M162 -9l-10 -2q-64 0 -102 30t-38 80q0 26 11 45q10 17 32 33q23 16 51 29l71 30l50 21q35 15 54 32q18 17 18 39v66q0 20 -7 33q-8 14 -19 21q-14 8 -25 11q-14 3 -29 3q-17 0 -29 -3q-13 -3 -20 -10q-10 -10 -14 -16q-6 -9 -12 -21q-12 -20 -22 -33q-12 -15 -36 -15
q-20 0 -32 12t-12 29q0 16 14 30t38 23q26 10 57 14q37 5 72 5q28 0 66 -5q36 -5 63 -19q29 -15 48 -40t19 -66v-234q0 -25 2 -51q1 -20 6 -30q5 -11 12 -14t18 -3q6 0 14 2q4 1 12 5l3 -9q-8 -5 -24 -12q-15 -7 -48 -7q-52 0 -76 18t-30 51l-18 -16q-22 -22 -53 -39
t-75 -17zM129 117l-2 -3q0 -47 17 -75q16 -27 51 -27q23 0 45 15t39 30l17 16v214q-8 -11 -24 -21q-18 -11 -46 -24l-25 -11q-42 -17 -57 -42t-15 -72zM150 593l-3 1q-19 10 -31 24t-12 35q0 20 12 32t33 12q19 0 33 -12t30 -36l88 -128l-7 -7z" />
    <glyph glyph-name="aacute" unicode="&#xe1;" horiz-adv-x="484" 
d="M162 -9l-10 -2q-64 0 -102 30t-38 80q0 26 11 45q10 17 32 33q23 16 51 29l71 30l50 21q35 15 54 32q18 17 18 39v66q0 20 -7 33q-8 14 -19 21q-14 8 -25 11q-14 3 -29 3q-17 0 -29 -3q-13 -3 -20 -10q-10 -10 -14 -16q-6 -9 -12 -21q-12 -20 -22 -33q-12 -15 -36 -15
q-20 0 -32 12t-12 29q0 16 14 30t38 23q26 10 57 14q37 5 72 5q28 0 66 -5q36 -5 63 -19q29 -15 48 -40t19 -66v-234q0 -25 2 -51q1 -20 6 -30q5 -11 12 -14t18 -3q6 0 14 2q4 1 12 5l3 -9q-8 -5 -24 -12q-15 -7 -48 -7q-52 0 -76 18t-30 51l-18 -16q-22 -22 -53 -39
t-75 -17zM129 117l-2 -3q0 -47 17 -75q16 -27 51 -27q23 0 45 15t39 30l17 16v214q-8 -11 -24 -21q-18 -11 -46 -24l-25 -11q-42 -17 -57 -42t-15 -72zM164 521l85 127q17 24 30 36t33 12q21 0 33 -12t12 -32q0 -22 -12 -35q-12 -14 -31 -24l-143 -79z" />
    <glyph glyph-name="acircumflex" unicode="&#xe2;" horiz-adv-x="484" 
d="M162 -9l-10 -2q-64 0 -102 30t-38 80q0 26 11 45q10 17 32 33q23 16 51 29l71 30l50 21q35 15 54 32q18 17 18 39v66q0 20 -7 33q-8 14 -19 21q-14 8 -25 11q-14 3 -29 3q-17 0 -29 -3q-13 -3 -20 -10q-10 -10 -14 -16q-6 -9 -12 -21q-12 -20 -22 -33q-12 -15 -36 -15
q-20 0 -32 12t-12 29q0 16 14 30t38 23q26 10 57 14q37 5 72 5q28 0 66 -5q36 -5 63 -19q29 -15 48 -40t19 -66v-234q0 -25 2 -51q1 -20 6 -30q5 -11 12 -14t18 -3q6 0 14 2q4 1 12 5l3 -9q-8 -5 -24 -12q-15 -7 -48 -7q-52 0 -76 18t-30 51l-18 -16q-22 -22 -53 -39
t-75 -17zM129 117l-2 -3q0 -47 17 -75q16 -27 51 -27q23 0 45 15t39 30l17 16v214q-8 -11 -24 -21q-18 -11 -46 -24l-25 -11q-42 -17 -57 -42t-15 -72zM225 700l125 -182l-9 -6l-116 76l-116 -76l-8 6z" />
    <glyph glyph-name="atilde" unicode="&#xe3;" horiz-adv-x="484" 
d="M162 -9l-10 -2q-64 0 -102 30t-38 80q0 26 11 45q10 17 32 33q23 16 51 29l71 30l50 21q35 15 54 32q18 17 18 39v66q0 20 -7 33q-8 14 -19 21q-14 8 -25 11q-14 3 -29 3q-17 0 -29 -3q-13 -3 -20 -10q-10 -10 -14 -16q-6 -9 -12 -21q-12 -20 -22 -33q-12 -15 -36 -15
q-20 0 -32 12t-12 29q0 16 14 30t38 23q26 10 57 14q37 5 72 5q28 0 66 -5q36 -5 63 -19q29 -15 48 -40t19 -66v-234q0 -25 2 -51q1 -20 6 -30q5 -11 12 -14t18 -3q6 0 14 2q4 1 12 5l3 -9q-8 -5 -24 -12q-15 -7 -48 -7q-52 0 -76 18t-30 51l-18 -16q-22 -22 -53 -39
t-75 -17zM129 117l-2 -3q0 -47 17 -75q16 -27 51 -27q23 0 45 15t39 30l17 16v214q-8 -11 -24 -21q-18 -11 -46 -24l-25 -11q-42 -17 -57 -42t-15 -72zM181 641l-2 -1q33 0 63 -6t56 -6q14 0 26 9t29 35l9 -5q-12 -47 -31 -79q-19 -33 -48 -33q-30 0 -58 6q-29 6 -58 6
q-12 0 -25 -8q-12 -7 -30 -33l-9 5q18 53 36 81q18 29 42 29z" />
    <glyph glyph-name="adieresis" unicode="&#xe4;" horiz-adv-x="484" 
d="M162 -9l-10 -2q-64 0 -102 30t-38 80q0 26 11 45q10 17 32 33q23 16 51 29l71 30l50 21q35 15 54 32q18 17 18 39v66q0 20 -7 33q-8 14 -19 21q-14 8 -25 11q-14 3 -29 3q-17 0 -29 -3q-13 -3 -20 -10q-10 -10 -14 -16q-6 -9 -12 -21q-12 -20 -22 -33q-12 -15 -36 -15
q-20 0 -32 12t-12 29q0 16 14 30t38 23q26 10 57 14q37 5 72 5q28 0 66 -5q36 -5 63 -19q29 -15 48 -40t19 -66v-234q0 -25 2 -51q1 -20 6 -30q5 -11 12 -14t18 -3q6 0 14 2q4 1 12 5l3 -9q-8 -5 -24 -12q-15 -7 -48 -7q-52 0 -76 18t-30 51l-18 -16q-22 -22 -53 -39
t-75 -17zM129 117l-2 -3q0 -47 17 -75q16 -27 51 -27q23 0 45 15t39 30l17 16v214q-8 -11 -24 -21q-18 -11 -46 -24l-25 -11q-42 -17 -57 -42t-15 -72zM314 535h-1q-27 0 -45 18t-18 47q0 25 18 43t45 18q26 0 44 -18t18 -43q0 -29 -18 -47t-43 -18zM129 535h-1
q-25 0 -43 18t-18 47q0 25 18 43t44 18q28 0 46 -18t18 -43q0 -29 -18 -47t-46 -18z" />
    <glyph glyph-name="aring" unicode="&#xe5;" horiz-adv-x="484" 
d="M162 -9l-10 -2q-64 0 -102 30t-38 80q0 26 11 45q10 17 32 33q23 16 51 29l71 30l50 21q35 15 54 32q18 17 18 39v66q0 20 -7 33q-8 14 -19 21q-14 8 -25 11q-14 3 -29 3q-17 0 -29 -3q-13 -3 -20 -10q-10 -10 -14 -16q-6 -9 -12 -21q-12 -20 -22 -33q-12 -15 -36 -15
q-20 0 -32 12t-12 29q0 16 14 30t38 23q26 10 57 14q37 5 72 5q28 0 66 -5q36 -5 63 -19q29 -15 48 -40t19 -66v-234q0 -25 2 -51q1 -20 6 -30q5 -11 12 -14t18 -3q6 0 14 2q4 1 12 5l3 -9q-8 -5 -24 -12q-15 -7 -48 -7q-52 0 -76 18t-30 51l-18 -16q-22 -22 -53 -39
t-75 -17zM129 117l-2 -3q0 -47 17 -75q16 -27 51 -27q23 0 45 15t39 30l17 16v214q-8 -11 -24 -21q-18 -11 -46 -24l-25 -11q-42 -17 -57 -42t-15 -72zM137 605h-4q0 35 25 57t63 22t63 -22t25 -57t-24 -58q-23 -22 -62 -22q-38 0 -62 21t-24 59zM176 605q0 -68 44 -68
t44 68q0 67 -44 67t-44 -67z" />
    <glyph glyph-name="ae" unicode="&#xe6;" horiz-adv-x="778" 
d="M164 -9l-2 -5q-66 0 -105 30t-39 80q0 26 11 45q10 17 32 33q19 14 51 28l71 30l50 20q35 15 54 32q18 16 18 39v69q0 20 -7 33q-8 14 -19 21q-14 8 -25 11q-13 3 -29 3q-17 0 -29 -3q-13 -3 -20 -10q-10 -10 -14 -16q-6 -9 -12 -21q-12 -20 -22 -33q-12 -15 -36 -15
q-20 0 -32 12t-12 29q0 16 14 30t38 23q26 10 57 14q37 5 72 5q24 0 48 -3q26 -3 45 -10q23 -8 39 -19q18 -12 30 -30q38 32 80 47t77 15q51 0 87 -13q39 -14 63 -34q26 -22 41 -48q16 -28 17 -55h-321q-5 -19 -6 -42q-1 -15 -1 -48q0 -49 12 -90q12 -42 34 -69
q22 -28 56 -45q32 -16 77 -16q46 0 77 14q29 13 54 35l9 -8q-28 -25 -71 -46q-39 -19 -108 -19q-32 0 -63 6q-33 6 -60 19q-29 14 -54 33t-45 48l-45 -41q-28 -26 -61 -46q-32 -19 -76 -19zM547 462l-1 -1q-37 0 -67 -30q-29 -29 -43 -96h209q-3 27 -9 51q-7 26 -16 41
q-11 18 -28 26q-18 9 -45 9zM136 114l-3 -3q0 -47 18 -74t52 -27q24 0 47 16q26 18 47 36l39 36q-15 25 -24 59q-9 33 -9 73v52q-7 -10 -24 -21q-18 -11 -46 -24l-25 -10q-42 -18 -57 -42t-15 -71z" />
    <glyph glyph-name="ccedilla" unicode="&#xe7;" horiz-adv-x="476" 
d="M280 -8l-5 -3q-55 0 -102 18t-81 49q-34 32 -54 75q-19 42 -19 94q0 59 24 105q24 47 62 80q37 33 84 51t93 18q34 0 66 -6q33 -6 54 -16q23 -11 36 -25q14 -16 14 -34t-12 -30t-32 -12q-15 0 -27 5q-10 4 -18 14q-7 9 -12 23l-11 32q-8 20 -18 27q-11 8 -36 8
q-24 0 -49 -9t-46 -33q-20 -23 -34 -65q-13 -39 -13 -105q0 -122 41 -181q40 -58 126 -58q46 0 80 17q33 17 59 47l9 -9q-29 -35 -74 -56t-105 -21zM255 -4l-31 -48q43 -6 70 -27t27 -49q0 -43 -44 -63q-43 -19 -128 -21l-2 11q47 8 72 19q27 12 27 29t-18 26q-19 10 -50 11
l-4 5l65 107h16z" />
    <glyph glyph-name="egrave" unicode="&#xe8;" 
d="M287 -9l-2 -5q-45 0 -93 14q-46 13 -84 44q-37 30 -61 76q-24 47 -24 113q0 61 26 107q25 45 63 75q37 30 80 45q42 15 75 15q51 0 87 -13q39 -14 63 -34q26 -22 41 -48q16 -28 17 -55h-321q-4 -19 -6 -42q-1 -15 -1 -48q0 -49 12 -90q12 -42 34 -69q22 -28 56 -45
q32 -16 77 -16q46 0 77 14q28 12 55 35l8 -8q-28 -25 -71 -46q-39 -19 -108 -19zM265 462l-1 -1q-37 0 -67 -30q-29 -29 -43 -96h209q-3 27 -9 51q-7 26 -16 41q-11 18 -28 26q-18 9 -45 9zM208 592l-3 1q-19 10 -31 24q-12 13 -12 35q0 20 12 32t33 12q19 0 33 -12t30 -36
l88 -128l-7 -7z" />
    <glyph glyph-name="eacute" unicode="&#xe9;" 
d="M215 526l85 127q16 24 30 36t33 12q21 0 33 -12t12 -32q0 -21 -12 -35t-31 -24l-143 -79zM284 -10l-2 -5q-45 0 -93 14q-46 13 -84 44q-37 30 -61 76q-24 47 -24 113q0 61 26 107q26 45 63 75t80 45q42 15 75 15q51 0 87 -13q39 -14 63 -34q26 -22 41 -48q16 -28 17 -55
h-321q-5 -20 -6 -42q-1 -15 -1 -48q0 -50 12 -90q12 -42 34 -69q22 -28 56 -45q32 -16 77 -16q46 0 77 14q28 12 55 35l8 -8q-28 -25 -71 -46q-39 -19 -108 -19zM262 461l-1 -1q-37 0 -67 -30q-29 -29 -43 -96h209q-3 27 -9 51q-7 26 -16 41q-11 18 -28 26q-18 9 -45 9z" />
    <glyph glyph-name="ecircumflex" unicode="&#xea;" 
d="M278 705l125 -182l-9 -6l-116 76l-116 -76l-8 6zM287 -9l-2 -5q-45 0 -93 14q-46 13 -84 44q-37 30 -61 76q-24 47 -24 113q0 61 26 107q25 45 63 75q37 30 80 45q42 15 75 15q51 0 87 -13q39 -14 63 -34q26 -22 41 -48q16 -28 17 -55h-321q-4 -19 -6 -42q-1 -15 -1 -48
q0 -49 12 -90q12 -42 34 -69q22 -28 56 -45q32 -16 77 -16q46 0 77 14q28 12 55 35l8 -8q-28 -25 -71 -46q-39 -19 -108 -19zM265 462l-1 -1q-37 0 -67 -30q-29 -29 -43 -96h209q-3 27 -9 51q-7 26 -16 41q-11 18 -28 26q-18 9 -45 9z" />
    <glyph glyph-name="edieresis" unicode="&#xeb;" 
d="M369 540h-1q-27 0 -45 18t-18 47q0 25 18 43t45 18q26 0 44 -18t18 -43q0 -29 -18 -47t-43 -18zM184 540h-1q-25 0 -43 18t-18 47q0 25 18 43t44 18q28 0 46 -18t18 -43q0 -29 -18 -47t-46 -18zM285 -9l-2 -5q-45 0 -93 14q-46 13 -84 44q-37 30 -61 76q-24 47 -24 113
q0 61 26 107q25 45 63 75q37 30 80 45q42 15 75 15q51 0 87 -13q39 -14 63 -34q26 -22 41 -48q16 -28 17 -55h-321q-4 -19 -6 -42q-1 -15 -1 -48q0 -49 12 -90q12 -42 34 -69q22 -28 56 -45q32 -16 77 -16q46 0 77 14q28 12 55 35l8 -8q-28 -25 -71 -46q-39 -19 -108 -19z
M263 462l-1 -1q-37 0 -67 -30q-29 -29 -43 -96h209q-3 27 -9 51q-7 26 -16 41q-11 18 -28 26q-18 9 -45 9z" />
    <glyph glyph-name="igrave" unicode="&#xec;" horiz-adv-x="247" 
d="M13 10l-1 -3q19 5 29 12q11 7 15 24q4 16 6 47q1 20 1 80v79q0 56 -1 74q-1 26 -6 40t-15 17q-11 3 -28 6v11l167 86v-312q0 -59 1 -79q1 -29 6 -46q5 -16 15 -24t30 -12v-10h-219v10zM57 595l-3 1q-19 10 -31 24t-12 35q0 20 12 32t33 12q20 0 33 -12t30 -36l88 -128
l-7 -7z" />
    <glyph glyph-name="iacute" unicode="&#xed;" horiz-adv-x="247" 
d="M62 526l85 127q17 24 30 36t33 12q21 0 33 -12t12 -32q0 -21 -12 -35t-31 -24l-143 -79zM10 9l-1 -3q19 5 29 12q10 8 15 24q4 16 6 47q1 20 1 80v79q0 56 -1 74q-1 26 -6 40t-15 17q-11 3 -28 6v11l167 86v-312q0 -59 1 -79q1 -29 6 -46q4 -17 15 -24t30 -12v-10h-219
v10z" />
    <glyph glyph-name="icircumflex" unicode="&#xee;" horiz-adv-x="247" 
d="M124 705l125 -182l-9 -6l-116 76l-116 -76l-8 6zM13 10l-1 -3q19 5 29 12q11 7 15 24q4 16 6 47q1 20 1 80v79q0 56 -1 74q-1 26 -6 40t-15 17q-11 3 -28 6v11l167 86v-312q0 -59 1 -79q1 -29 6 -46q5 -16 15 -24t30 -12v-10h-219v10z" />
    <glyph glyph-name="idieresis" unicode="&#xef;" horiz-adv-x="247" 
d="M199 540q-27 0 -45 18t-18 47q0 25 18 43t45 18q26 0 44 -18t18 -43q0 -29 -18 -47t-44 -18zM45 540q-26 0 -44 18t-18 47q0 25 18 43t44 18t44 -18t18 -43q0 -29 -18 -47t-44 -18zM13 10l-1 -3q19 5 29 12q11 7 15 24q4 16 6 47q1 20 1 80v79q0 56 -1 74q-1 26 -6 40
t-15 17q-11 3 -28 6v11l167 86v-312q0 -59 1 -79q1 -29 6 -46q5 -16 15 -24t30 -12v-10h-219v10z" />
    <glyph glyph-name="eth" unicode="&#xf0;" horiz-adv-x="564" 
d="M149 583l136 48q-73 79 -174 123l7 7q73 -23 126 -49q59 -29 101 -58l137 54l4 -11l-130 -51q52 -38 87 -83q36 -45 56 -90q21 -47 30 -96t9 -99q0 -81 -26 -138q-25 -55 -65 -90q-38 -34 -84 -49q-45 -15 -83 -15q-35 0 -82 14q-44 13 -84 44t-65 76q-26 47 -26 111
t26 111t65 77t84 45t83 15q25 0 55 -6q27 -5 58 -20q-16 49 -42 93t-57 81l-142 -55zM280 -5h-5q29 0 53 12t42 39q19 28 29 72q11 47 11 111q0 66 -10 109t-29 73q-18 29 -42 42q-23 13 -52 13t-52 -13q-24 -13 -42 -42q-17 -28 -28 -73q-10 -43 -10 -109q0 -64 11 -111
q10 -44 29 -72q18 -27 42 -39t53 -12z" />
    <glyph glyph-name="ntilde" unicode="&#xf1;" horiz-adv-x="573" 
d="M17 10l-3 -7q17 5 26 12q10 8 14 24t6 47q1 20 1 80v79q0 57 -1 74q-2 25 -6 39q-5 14 -15 17q-11 3 -28 6v11l167 86v-126l32 30q12 10 34 30q18 16 39 30q19 12 45 22q24 9 51 9q23 0 47 -6q23 -6 43 -21q18 -14 31 -41q12 -25 12 -66v-171v-79q0 -28 5 -46
q4 -16 14 -24q9 -7 26 -12v-10h-214v10q19 5 29 12t15 24q4 16 6 47q1 20 1 80v210q0 38 -16 53t-42 15q-27 0 -57 -21q-26 -18 -67 -56l-32 -29v-171q0 -59 1 -79q1 -29 6 -46q5 -16 15 -24q10 -7 29 -12v-10h-214v10zM249 639l-2 -1q33 0 63 -6t56 -6q14 0 26 9t29 35
l9 -5q-12 -47 -31 -79q-19 -33 -48 -33t-58 6t-58 6q-12 0 -25 -8q-12 -7 -30 -33l-9 5q18 53 36 81q18 29 42 29z" />
    <glyph glyph-name="ograve" unicode="&#xf2;" horiz-adv-x="563" 
d="M281 -11l-1 -1q-35 0 -82 14q-44 13 -84 44t-65 76q-26 47 -26 111t26 111t65 77t84 45t83 15t83 -15t84 -45t65 -77t26 -111t-26 -111q-25 -45 -65 -76q-38 -29 -84 -43q-47 -14 -83 -14zM280 0h-5q29 0 53 12t42 39q19 28 29 72q11 47 11 111q0 66 -10 109t-29 73
q-18 28 -42 42q-23 13 -52 13t-52 -13q-24 -14 -42 -42q-17 -28 -28 -73q-10 -43 -10 -109q0 -64 11 -111q10 -44 29 -72q18 -27 42 -39t53 -12zM211 597l-3 1q-19 10 -31 24t-12 35q0 20 12 32t33 12q20 0 33 -12t30 -36l88 -128l-7 -7z" />
    <glyph glyph-name="oacute" unicode="&#xf3;" horiz-adv-x="563" 
d="M217 526l85 127q16 24 30 36t33 12q21 0 33 -12t12 -32q0 -21 -12 -35t-31 -24l-143 -79zM278 -12l-1 -1q-35 0 -82 14q-44 13 -84 44t-65 76q-26 47 -26 111t26 111t65 77t84 45t83 15t83 -15t84 -45t65 -77t26 -111t-26 -111q-25 -45 -65 -76q-38 -29 -84 -43
q-47 -14 -83 -14zM277 -1h-5q29 0 53 12t42 39q19 28 29 72q11 47 11 111q0 66 -10 109t-29 73q-18 29 -42 42q-23 13 -52 13t-52 -13q-24 -13 -42 -42q-17 -28 -28 -73q-10 -43 -10 -109q0 -64 11 -111q10 -44 29 -72q18 -27 42 -39t53 -12z" />
    <glyph glyph-name="ocircumflex" unicode="&#xf4;" horiz-adv-x="563" 
d="M282 705l125 -182l-9 -6l-116 76l-116 -76l-8 6zM281 -11l-1 -1q-35 0 -82 14q-44 13 -84 44t-65 76q-26 47 -26 111t26 111t65 77t84 45t83 15t83 -15t84 -45t65 -77t26 -111t-26 -111q-25 -45 -65 -76q-38 -29 -84 -43q-47 -14 -83 -14zM280 0h-5q29 0 53 12t42 39
q19 28 29 72q11 47 11 111q0 66 -10 109t-29 73q-18 28 -42 42q-23 13 -52 13t-52 -13q-24 -14 -42 -42q-17 -28 -28 -73q-10 -43 -10 -109q0 -64 11 -111q10 -44 29 -72q18 -27 42 -39t53 -12z" />
    <glyph glyph-name="otilde" unicode="&#xf5;" horiz-adv-x="563" 
d="M281 -11l-1 -1q-35 0 -82 14q-44 13 -84 44t-65 76q-26 47 -26 111t26 111t65 77t84 45t83 15t83 -15t84 -45t65 -77t26 -111t-26 -111q-25 -45 -65 -76q-38 -29 -84 -43q-47 -14 -83 -14zM280 0h-5q29 0 53 12t42 39q19 28 29 72q11 47 11 111q0 66 -10 109t-29 73
q-18 28 -42 42q-23 13 -52 13t-52 -13q-24 -14 -42 -42q-17 -28 -28 -73q-10 -43 -10 -109q0 -64 11 -111q10 -44 29 -72q18 -27 42 -39t53 -12zM226 645l-2 -1q33 0 63 -6t56 -6q14 0 26 9t29 35l9 -5q-12 -47 -31 -79q-20 -33 -48 -33q-30 0 -58 6q-29 6 -58 6
q-12 0 -25 -8q-12 -7 -30 -33l-9 5q18 53 36 81q18 29 42 29z" />
    <glyph glyph-name="odieresis" unicode="&#xf6;" horiz-adv-x="563" 
d="M373 540h-1q-27 0 -45 18t-18 47q0 25 18 43t45 18q26 0 44 -18t18 -43q0 -29 -18 -47t-43 -18zM188 540h-1q-25 0 -43 18t-18 47q0 25 18 43t44 18q28 0 46 -18t18 -43q0 -29 -18 -47t-46 -18zM279 -11l-1 -1q-35 0 -82 14q-44 13 -84 44t-65 76q-26 47 -26 111t26 111
t65 77t84 45t83 15t83 -15t84 -45t65 -77t26 -111t-26 -111q-25 -45 -65 -76q-38 -29 -84 -43q-47 -14 -83 -14zM278 0h-5q29 0 53 12t42 39q19 28 29 72q11 47 11 111q0 66 -10 109t-29 73q-18 28 -42 42q-23 13 -52 13t-52 -13q-24 -14 -42 -42q-17 -28 -28 -73
q-10 -43 -10 -109q0 -64 11 -111q10 -44 29 -72q18 -27 42 -39t53 -12z" />
    <glyph glyph-name="divide" unicode="&#xf7;" horiz-adv-x="535" 
d="M200 511h-1q0 28 20 48t48 20t48 -20t20 -48q0 -29 -19 -49q-20 -21 -48 -21t-48 21q-20 22 -20 49zM52 359h431v-16h-431v16zM199 189h-1q0 27 20 49q20 21 48 21t48 -21q20 -22 20 -49q0 -29 -19 -48q-20 -20 -48 -20t-48 20t-20 48z" />
    <glyph glyph-name="oslash" unicode="&#xf8;" horiz-adv-x="563" 
d="M380 409l-4 1q-18 32 -44 47t-54 15q-29 0 -52 -13q-24 -13 -42 -42q-17 -28 -28 -73q-10 -43 -10 -109q0 -53 8 -96q8 -41 21 -69zM105 -64l-12 1l50 82q-25 13 -48 33t-39 45t-27 59q-10 31 -10 72q0 64 26 111t65 77t84 45t83 15q31 0 60 -7q31 -7 63 -24l45 75l11 -7
l-45 -74q24 -14 48 -35q23 -20 39 -45t27 -57q10 -30 10 -69q0 -64 -26 -111q-25 -45 -65 -76q-38 -29 -84 -43q-47 -14 -83 -14q-29 0 -58 7q-31 8 -63 24zM383 390l-205 -340q17 -30 44 -43q26 -12 54 -12q29 0 53 12t42 39q19 28 29 72q11 47 11 111q0 57 -7 93
q-8 40 -21 68z" />
    <glyph glyph-name="ugrave" unicode="&#xf9;" horiz-adv-x="555" 
d="M195 -8l-2 -2q-24 0 -48 6q-23 6 -43 21q-18 14 -31 41q-12 26 -12 66v136q0 52 -1 68q-2 24 -6 36t-14 15q-9 3 -27 6v11l166 86v-386q0 -43 17 -62q16 -18 42 -18t58 23t72 60l11 11v150q0 52 -1 68q-2 24 -6 36t-14 15q-9 3 -27 6v11l166 86v-312v-79q0 -28 5 -46
q4 -17 15 -24q11 -8 28 -12v-10h-166v96l-11 -11l-36 -33q-18 -17 -39 -30t-45 -21q-26 -8 -51 -8zM221 596l-3 1q-19 10 -31 24q-12 13 -12 35q0 20 12 32t33 12q20 0 33 -12t30 -36l88 -128l-7 -7z" />
    <glyph glyph-name="uacute" unicode="&#xfa;" horiz-adv-x="555" 
d="M236 526l85 127q17 24 30 36t33 12q21 0 33 -12t12 -32q0 -21 -12 -35t-31 -24l-143 -79zM192 -9l-2 -2q-24 0 -48 6q-23 6 -43 21q-18 14 -31 41q-12 25 -12 66v136q0 52 -1 68q-1 24 -6 36q-4 12 -14 15q-9 3 -27 6v11l166 86v-386q0 -43 17 -62q17 -18 42 -18
q26 0 58 23q31 22 72 60l11 11v150q0 52 -1 68q-1 24 -6 36q-4 12 -14 15q-9 3 -27 6v11l166 86v-312v-79q0 -28 5 -46q5 -16 15 -24q11 -8 28 -12v-10h-166v96l-11 -11l-36 -33q-18 -16 -39 -30t-45 -21q-26 -8 -51 -8z" />
    <glyph glyph-name="ucircumflex" unicode="&#xfb;" horiz-adv-x="555" 
d="M296 705l125 -182l-9 -6l-116 76l-116 -76l-8 6zM195 -8l-2 -2q-24 0 -48 6q-23 6 -43 21q-18 14 -31 41q-12 26 -12 66v136q0 52 -1 68q-2 24 -6 36t-14 15q-9 3 -27 6v11l166 86v-386q0 -43 17 -62q16 -18 42 -18t58 23t72 60l11 11v150q0 52 -1 68q-2 24 -6 36t-14 15
q-9 3 -27 6v11l166 86v-312v-79q0 -28 5 -46q4 -17 15 -24q11 -8 28 -12v-10h-166v96l-11 -11l-36 -33q-18 -17 -39 -30t-45 -21q-26 -8 -51 -8z" />
    <glyph glyph-name="udieresis" unicode="&#xfc;" horiz-adv-x="555" 
d="M386 540h-1q-27 0 -45 18t-18 47q0 25 18 43t45 18q26 0 44 -18t18 -43q0 -29 -18 -47t-43 -18zM201 540h-1q-25 0 -43 18t-18 47q0 25 18 43t44 18q28 0 46 -18t18 -43q0 -29 -18 -47t-46 -18zM193 -8l-2 -2q-24 0 -48 6q-23 6 -43 21q-18 14 -31 41q-12 26 -12 66v136
q0 52 -1 68q-2 24 -6 36t-14 15q-9 3 -27 6v11l166 86v-386q0 -43 17 -62q16 -18 42 -18t58 23t72 60l11 11v150q0 52 -1 68q-2 24 -6 36t-14 15q-9 3 -27 6v11l166 86v-312v-79q0 -28 5 -46q4 -17 15 -24q11 -8 28 -12v-10h-166v96l-11 -11l-36 -33q-18 -17 -39 -30
t-45 -21q-26 -8 -51 -8z" />
    <glyph glyph-name="yacute" unicode="&#xfd;" horiz-adv-x="507" 
d="M120 -169l1 -6q-29 0 -42 12q-14 12 -14 32q0 19 11 30q10 10 26 10q12 0 24 -5q9 -4 18 -11q10 -8 15 -11q8 -5 17 -5q8 0 15 3q6 2 16 14t20 30q12 22 24 49l3 6l-179 374l-24 51q-8 18 -17 30q-8 10 -15 15q-6 4 -16 7v10h201v-10q-10 -2 -18 -6t-9 -15q-2 -11 3 -29
q5 -19 18 -47l117 -243l98 219q16 39 21 62q4 23 0 36q-5 14 -16 18q-15 6 -27 8v10h116v-10q-11 -1 -18 -6q-6 -4 -16 -17q-9 -12 -21 -36l-30 -63l-160 -358q-16 -37 -35 -69q-16 -27 -33 -46q-15 -17 -35 -25q-19 -8 -39 -8zM241 520l85 127q16 24 30 36t33 12
q21 0 33 -12t12 -32q0 -21 -12 -35t-31 -24l-143 -79z" />
    <glyph glyph-name="thorn" unicode="&#xfe;" horiz-adv-x="593" 
d="M17 -154l-1 -1q17 5 26 12q10 8 14 24t6 47q1 20 1 80v539v69q0 24 -5 39q-5 14 -13 18q-9 5 -25 6v11l162 86v-400l7 8q9 9 33 31q16 15 38 30q21 15 42 23q22 9 48 9q41 0 81 -14q39 -13 69 -42t48 -72t18 -103q0 -64 -21 -112q-21 -47 -57 -79t-82 -48
q-45 -16 -97 -16q-32 0 -67 11q-32 10 -61 36v-31q0 -59 1 -79q1 -29 6 -46q4 -16 14 -24q9 -8 27 -12v-10h-212v10zM180 363l1 -310q31 -28 62 -39t66 -11q26 0 50 12t42 39t30 71q12 43 12 107q0 68 -9 111q-9 44 -24 68t-36 33t-45 9q-41 0 -76 -24q-36 -25 -66 -58z" />
    <glyph glyph-name="ydieresis" unicode="&#xff;" horiz-adv-x="507" 
d="M120 -169l1 -6q-29 0 -42 12q-14 12 -14 32q0 19 11 30q10 10 26 10q12 0 24 -5q9 -4 18 -11q10 -8 15 -11q8 -5 17 -5q8 0 15 3q6 2 16 14t20 30q12 22 24 49l3 6l-179 374l-24 51q-8 18 -17 30q-8 10 -15 15q-6 4 -16 7v10h201v-10q-10 -2 -18 -6t-9 -15q-2 -11 3 -29
q5 -19 18 -47l117 -243l98 219q16 39 21 62q4 23 0 36q-5 14 -16 18q-15 6 -27 8v10h116v-10q-11 -1 -18 -6q-6 -4 -16 -17q-9 -12 -21 -36l-30 -63l-160 -358q-16 -37 -35 -69q-16 -27 -33 -46q-15 -17 -35 -25q-19 -8 -39 -8zM378 534h-1q-27 0 -45 18t-18 47q0 25 18 43
t45 18q26 0 44 -18t18 -43q0 -29 -18 -47t-43 -18zM193 534h-1q-25 0 -43 18t-18 47q0 25 18 43t44 18q28 0 46 -18t18 -43q0 -29 -18 -47t-46 -18z" />
    <glyph glyph-name="Amacron" unicode="&#x100;" horiz-adv-x="808" 
d="M15 9l1 1q13 5 23 12t22 22q10 13 25 39q12 22 30 62l221 511l-10 24q-15 37 -30 47t-35 15v9h160q8 0 11 -3q4 -4 8 -14l266 -605q21 -48 39 -78q18 -29 48 -40v-11h-241v11q32 8 38 27t-14 66l-57 130h-352l-39 -91q-10 -21 -16 -43q-6 -21 -3 -39q3 -17 15 -31t37 -21
v-9h-147v9zM515 247l-172 392l-169 -392h341zM481 807h-241v51h241v-51z" />
    <glyph glyph-name="amacron" unicode="&#x101;" horiz-adv-x="484" 
d="M162 -9l-10 -2q-64 0 -102 30t-38 80q0 26 11 45q10 17 32 33q23 16 51 29l71 30l50 21q35 15 54 32q18 17 18 39v66q0 20 -7 33q-8 14 -19 21q-14 8 -25 11q-14 3 -29 3q-17 0 -29 -3q-13 -3 -20 -10q-10 -10 -14 -16q-6 -9 -12 -21q-12 -20 -22 -33q-12 -15 -36 -15
q-20 0 -32 12t-12 29q0 16 14 30t38 23q26 10 57 14q37 5 72 5q28 0 66 -5q36 -5 63 -19q29 -15 48 -40t19 -66v-234q0 -25 2 -51q1 -20 6 -30q5 -11 12 -14t18 -3q6 0 14 2q4 1 12 5l3 -9q-8 -5 -24 -12q-15 -7 -48 -7q-52 0 -76 18t-30 51l-18 -16q-22 -22 -53 -39
t-75 -17zM129 117l-2 -3q0 -47 17 -75q16 -27 51 -27q23 0 45 15t39 30l17 16v214q-8 -11 -24 -21q-18 -11 -46 -24l-25 -11q-42 -17 -57 -42t-15 -72zM337 610v-49h-226v49h226z" />
    <glyph glyph-name="Abreve" unicode="&#x102;" horiz-adv-x="808" 
d="M15 9l1 1q13 5 23 12t22 22q10 13 25 39q12 22 30 62l221 511l-10 24q-15 37 -30 47t-35 15v9h160q8 0 11 -3q4 -4 8 -14l266 -605q21 -48 39 -78q18 -29 48 -40v-11h-241v11q32 8 38 27t-14 66l-57 130h-352l-39 -91q-10 -21 -16 -43q-6 -21 -3 -39q3 -17 15 -31t37 -21
v-9h-147v9zM515 247l-172 392l-169 -392h341zM366 861l2 2q44 0 67 14q22 13 34 39h13q-2 -26 -9 -48t-21 -40q-13 -17 -35 -28q-20 -10 -49 -10q-30 0 -50 10q-22 11 -35 27q-13 17 -21 39q-7 22 -9 50h12q10 -25 33 -40q22 -15 68 -15z" />
    <glyph glyph-name="abreve" unicode="&#x103;" horiz-adv-x="484" 
d="M162 -9l-10 -2q-64 0 -102 30t-38 80q0 26 11 45q10 17 32 33q23 16 51 29l71 30l50 21q35 15 54 32q18 17 18 39v66q0 20 -7 33q-8 14 -19 21q-14 8 -25 11q-14 3 -29 3q-17 0 -29 -3q-13 -3 -20 -10q-10 -10 -14 -16q-6 -9 -12 -21q-12 -20 -22 -33q-12 -15 -36 -15
q-20 0 -32 12t-12 29q0 16 14 30t38 23q26 10 57 14q37 5 72 5q28 0 66 -5q36 -5 63 -19q29 -15 48 -40t19 -66v-234q0 -25 2 -51q1 -20 6 -30q5 -11 12 -14t18 -3q6 0 14 2q4 1 12 5l3 -9q-8 -5 -24 -12q-15 -7 -48 -7q-52 0 -76 18t-30 51l-18 -16q-22 -22 -53 -39
t-75 -17zM129 117l-2 -3q0 -47 17 -75q16 -27 51 -27q23 0 45 15t39 30l17 16v214q-8 -11 -24 -21q-18 -11 -46 -24l-25 -11q-42 -17 -57 -42t-15 -72zM228 598l4 -1q43 0 63 19q21 20 30 45h12q0 -24 -6 -48q-6 -25 -19 -42q-14 -19 -34 -30q-21 -12 -48 -12q-28 0 -49 12
q-20 11 -34 30q-13 17 -19 42q-6 24 -6 50h12q7 -25 29 -45t65 -20z" />
    <glyph glyph-name="Aogonek" unicode="&#x104;" horiz-adv-x="808" 
d="M15 9h-2q13 5 23 12t22 22q10 13 25 39q12 22 30 62l222 512l-4 9q-12 25 -19 36q-9 13 -18 21q-10 8 -18 11q-12 4 -19 6v9h162q8 0 11 -3t8 -14l266 -605q21 -48 39 -78q18 -29 48 -40v-10h-128q-40 0 -58 -27t-18 -61q0 -24 12 -38t33 -14q19 0 34 15l6 -8l-10 -10
q-5 -5 -17 -12t-27 -11q-18 -5 -39 -5q-41 0 -69 18t-28 49q0 23 15 41q14 17 36 31q19 12 45 22q20 7 44 13l-102 233h-352l-39 -91q-10 -21 -16 -43q-6 -21 -3 -39q3 -17 15 -31t37 -21v-9h-147v9zM512 246l-171 393l-170 -393h341z" />
    <glyph glyph-name="aogonek" unicode="&#x105;" horiz-adv-x="484" 
d="M162 -9l-7 -4q-65 0 -102 30q-38 30 -38 80q0 26 11 45q10 17 32 33q23 16 51 29l71 30l50 21q35 15 54 32q18 17 18 39v66q0 20 -7 33q-8 14 -19 21q-14 8 -25 11q-14 3 -29 3q-17 0 -29 -3q-13 -3 -20 -10q-10 -10 -14 -16q-6 -9 -12 -21q-12 -20 -22 -33
q-12 -15 -36 -15q-20 0 -32 12t-12 29q0 16 14 30t38 23q26 10 57 14q37 5 72 5q28 0 66 -5q36 -5 63 -19q29 -15 48 -40t19 -66v-234q0 -25 2 -51q2 -20 6 -30q5 -11 12 -14q8 -3 18 -3q6 0 14 2q4 1 12 5l3 -9l-13 -8q-8 -5 -22 -15q-9 -7 -19 -18q-8 -10 -13 -25
q-5 -17 -5 -35q0 -24 12 -38t33 -14q11 0 18 4q8 4 15 12l5 -8l-10 -10q-6 -6 -18 -12q-15 -7 -28 -11q-18 -5 -39 -5q-41 0 -69 18q-29 18 -29 51q0 20 12 35q12 16 31 27q20 12 42 21q15 6 47 16q-4 -1 -12 -1h-13q-52 0 -76 18t-30 50l-18 -16q-22 -22 -53 -39t-75 -17z
M132 115l-2 -3q0 -47 17 -75q17 -27 51 -27q22 0 45 15t39 30l17 16v214q-7 -11 -24 -21q-18 -11 -46 -24l-25 -11q-42 -17 -57 -42t-15 -72z" />
    <glyph glyph-name="Cacute" unicode="&#x106;" horiz-adv-x="769" 
d="M438 -14v-3q-88 0 -162 33t-126 87q-52 53 -82 123q-30 69 -30 144q0 94 36 166q36 73 93 122t131 75q75 26 147 26q47 0 81 -6t60 -15q28 -10 46 -15q21 -6 41 -6q28 0 35 28h13v-182h-13q-14 49 -39 83t-60 57t-76 33q-44 11 -88 11q-51 0 -97 -21q-45 -20 -82 -65
q-36 -43 -57 -111t-21 -160q0 -102 21 -174q21 -71 59 -117q38 -45 90 -66t114 -21q47 0 83 10q39 11 68 27q30 17 54 36q22 18 40 39l9 -8q-14 -20 -39 -42q-26 -23 -61 -42t-83 -33q-45 -13 -105 -13zM349 790l132 100q11 8 26 15q13 6 29 6q20 0 32 -15t12 -31
q0 -21 -13 -37t-51 -21l-164 -27z" />
    <glyph glyph-name="cacute" unicode="&#x107;" horiz-adv-x="476" 
d="M220 526l85 127q17 24 30 36t33 12q21 0 33 -12t12 -32q0 -21 -12 -35t-31 -24l-143 -79zM277 -9l-5 -3q-56 0 -102 18q-47 18 -81 49q-35 31 -54 75q-19 42 -19 94q0 58 24 105t62 80t84 51t93 18q35 0 66 -6q33 -6 54 -16q23 -11 36 -25q14 -16 14 -34t-12 -30t-32 -12
q-15 0 -27 5q-10 4 -18 14q-7 9 -12 23l-11 32q-7 19 -18 27t-36 8q-23 0 -49 -9q-25 -9 -46 -33q-20 -23 -34 -65q-13 -39 -13 -105q0 -122 41 -181q40 -58 126 -58q46 0 80 17q33 17 59 47l9 -9q-29 -35 -74 -56t-105 -21z" />
    <glyph glyph-name="Ccircumflex" unicode="&#x108;" horiz-adv-x="769" 
d="M442 918l141 -128l-4 -9l-137 44l-137 -44l-4 9zM438 -14v-3q-88 0 -162 33t-126 87q-52 53 -82 123q-30 69 -30 144q0 94 36 166q36 73 93 122t131 75q75 26 147 26q47 0 81 -6t60 -15q28 -10 46 -15q21 -6 41 -6q28 0 35 28h13v-182h-13q-14 49 -39 83t-60 57t-76 33
q-44 11 -88 11q-51 0 -97 -21q-45 -20 -82 -65q-36 -43 -57 -111t-21 -160q0 -102 21 -174q21 -71 59 -117q38 -45 90 -66t114 -21q47 0 83 10q39 11 68 27q30 17 54 36q22 18 40 39l9 -8q-14 -20 -39 -42q-26 -23 -61 -42t-83 -33q-45 -13 -105 -13z" />
    <glyph glyph-name="ccircumflex" unicode="&#x109;" horiz-adv-x="476" 
d="M284 705l125 -182l-9 -6l-116 76l-116 -76l-8 6zM280 -8l-5 -3q-55 0 -102 18t-81 49q-34 32 -54 75q-19 42 -19 94q0 59 24 105q24 47 62 80q37 33 84 51t93 18q34 0 66 -6q33 -6 54 -16q23 -11 36 -25q14 -16 14 -34t-12 -30t-32 -12q-15 0 -27 5q-10 4 -18 14
q-7 9 -12 23l-11 32q-8 20 -18 27q-11 8 -36 8q-24 0 -49 -9t-46 -33q-20 -23 -34 -65q-13 -39 -13 -105q0 -122 41 -181q40 -58 126 -58q46 0 80 17q33 17 59 47l9 -9q-29 -35 -74 -56t-105 -21z" />
    <glyph glyph-name="Cdotaccent" unicode="&#x10a;" horiz-adv-x="769" 
d="M438 -14v-3q-88 0 -162 33t-126 87q-52 53 -82 123q-30 69 -30 144q0 94 36 166q36 73 93 122t131 75q75 26 147 26q47 0 81 -6t60 -15q28 -10 46 -15q21 -6 41 -6q28 0 35 28h13v-182h-13q-14 49 -39 83t-60 57t-76 33q-44 11 -88 11q-51 0 -97 -21q-45 -20 -82 -65
q-36 -43 -57 -111t-21 -160q0 -102 21 -174q21 -71 59 -117q38 -45 90 -66t114 -21q47 0 83 10q39 11 68 27q30 17 54 36q22 18 40 39l9 -8q-14 -20 -39 -42q-26 -23 -61 -42t-83 -33q-45 -13 -105 -13zM443 786v-2q-28 0 -48 20q-19 19 -19 48q0 27 19 46t48 19t48 -18
t19 -45q0 -29 -19 -48q-20 -20 -48 -20z" />
    <glyph glyph-name="cdotaccent" unicode="&#x10b;" horiz-adv-x="476" 
d="M280 -8l-5 -3q-55 0 -102 18t-81 49q-34 32 -54 75q-19 42 -19 94q0 59 24 105q24 47 62 80q37 33 84 51t93 18q34 0 66 -6q33 -6 54 -16q23 -11 36 -25q14 -16 14 -34t-12 -30t-32 -12q-15 0 -27 5q-10 4 -18 14q-7 9 -12 23l-11 32q-8 20 -18 27q-11 8 -36 8
q-24 0 -49 -9t-46 -33q-20 -23 -34 -65q-13 -39 -13 -105q0 -122 41 -181q40 -58 126 -58q46 0 80 17q33 17 59 47l9 -9q-29 -35 -74 -56t-105 -21zM280 535v-2q-29 0 -48 19t-19 46q0 28 19 47q20 20 48 20q29 0 48 -19t19 -46t-19 -46t-48 -19z" />
    <glyph glyph-name="Ccaron" unicode="&#x10c;" horiz-adv-x="769" 
d="M308 926l137 -45l137 45l4 -9l-141 -128l-141 128zM438 -14v-3q-88 0 -162 33t-126 87q-52 53 -82 123q-30 69 -30 144q0 94 36 166q36 73 93 122t131 75q75 26 147 26q47 0 81 -6t60 -15q28 -10 46 -15q21 -6 41 -6q28 0 35 28h13v-182h-13q-14 49 -39 83t-60 57t-76 33
q-44 11 -88 11q-51 0 -97 -21q-45 -20 -82 -65q-36 -43 -57 -111t-21 -160q0 -102 21 -174q21 -71 59 -117q38 -45 90 -66t114 -21q47 0 83 10q39 11 68 27q30 17 54 36q22 18 40 39l9 -8q-14 -20 -39 -42q-26 -23 -61 -42t-83 -33q-45 -13 -105 -13z" />
    <glyph glyph-name="ccaron" unicode="&#x10d;" horiz-adv-x="476" 
d="M168 715l116 -76l116 76l9 -6l-125 -182l-124 182zM280 -8l-5 -3q-55 0 -102 18t-81 49q-34 32 -54 75q-19 42 -19 94q0 59 24 105q24 47 62 80q37 33 84 51t93 18q34 0 66 -6q33 -6 54 -16q23 -11 36 -25q14 -16 14 -34t-12 -30t-32 -12q-15 0 -27 5q-10 4 -18 14
q-7 9 -12 23l-11 32q-8 20 -18 27q-11 8 -36 8q-24 0 -49 -9t-46 -33q-20 -23 -34 -65q-13 -39 -13 -105q0 -122 41 -181q40 -58 126 -58q46 0 80 17q33 17 59 47l9 -9q-29 -35 -74 -56t-105 -21z" />
    <glyph glyph-name="Dcaron" unicode="&#x10e;" horiz-adv-x="817" 
d="M207 926l137 -45l137 45l4 -9l-141 -128l-141 128zM19 10v1q21 6 33 15t18 36q5 24 7 80q2 70 2 142v183q0 107 -1 142q-2 55 -7 79q-6 26 -18 37q-11 10 -33 16v9h263q112 0 206 -23q91 -23 156 -69q65 -47 99 -115q35 -70 35 -159q0 -84 -32 -156q-31 -69 -95 -121
q-62 -50 -156 -79q-91 -28 -214 -28h-263v10zM214 739l-2 -728h68q88 0 154 21q65 21 109 66q44 46 65 117q21 72 21 174q0 108 -25 174q-26 68 -71 107t-109 54t-142 15h-68z" />
    <glyph glyph-name="dcaron" unicode="&#x10f;" horiz-adv-x="598" 
d="M569 555l8 138q2 40 12 56q11 17 33 17q40 0 40 -43q0 -12 -4 -23q-5 -13 -12 -23l-68 -124zM245 -9l1 -4q-38 0 -75 15q-38 15 -68 45q-29 29 -49 73q-19 42 -19 102q0 58 21 105t57 80t83 51t98 18q40 0 72 -12q31 -12 53 -29v111q0 55 -1 72q-2 26 -6 39t-15 18
q-8 4 -27 7v12l165 84v-607q0 -59 1 -79q1 -29 6 -46q4 -16 15 -24t28 -12v-10h-167v86l-14 -14q-34 -33 -72 -57t-87 -24zM157 236l-2 -3q0 -65 9 -109t24 -69t36 -36q20 -10 45 -10q37 0 70 21q36 23 65 52l14 14v322q-23 20 -53 32t-71 12q-62 0 -99 -57
q-38 -58 -38 -169z" />
    <glyph glyph-name="Dcroat" unicode="&#x110;" horiz-adv-x="817" 
d="M19 10h-2q21 6 33 15t18 36q5 24 7 80q2 70 2 142v101h-80v12h80v-12h136v-374h68q88 0 154 21q65 21 109 66q44 46 65 117q21 72 21 174q0 108 -25 174q-26 68 -71 107t-109 54t-142 15h-68v-341h174v-12h-174v12h-136v70q0 107 -1 142q-2 55 -7 79q-6 26 -18 37
q-11 10 -33 16v9h263q112 0 206 -23q91 -23 156 -69q65 -47 99 -115q35 -70 35 -159q0 -84 -32 -156q-31 -69 -95 -121q-62 -50 -156 -79q-91 -28 -214 -28h-263v10z" />
    <glyph glyph-name="dcroat" unicode="&#x111;" horiz-adv-x="598" 
d="M262 578h345v-12h-345v12zM243 -8l1 -4q-38 0 -75 15q-38 15 -68 45q-29 30 -49 73q-19 42 -19 102q0 59 21 105q21 47 57 80t83 51q46 18 98 18q40 0 72 -12q31 -12 53 -29v111q0 55 -1 72q-2 25 -6 39t-15 18q-8 4 -27 7v12l165 84v-607q0 -59 1 -79q1 -29 6 -46
q4 -17 15 -24q11 -8 28 -12v-10h-167v86l-14 -14q-34 -33 -72 -57t-87 -24zM155 237l-2 -3q0 -66 9 -109t24 -69t36 -36q20 -10 45 -10q37 0 70 21q36 23 65 52l14 14v322q-23 20 -53 32t-71 12q-62 0 -99 -57q-38 -58 -38 -169z" />
    <glyph glyph-name="Emacron" unicode="&#x112;" horiz-adv-x="675" 
d="M19 10l-5 -3q21 6 33 15t18 36q5 24 7 80q2 70 2 142v183q0 107 -1 142q-2 55 -7 79q-6 26 -18 37q-11 10 -33 16v9h566q9 0 14 -3t9 -21l19 -110h-12q-17 39 -33 62q-17 24 -44 38t-69 18q-47 5 -109 5h-145v-315h76q48 0 72 7q26 8 39 19q13 12 18 29q3 11 9 35h11
v-190h-11q-6 24 -9 35q-5 17 -18 29q-13 11 -39 19q-24 7 -72 7h-76v-399h166q72 0 111 4q43 4 70 18t44 41q18 29 32 72h12l-13 -123q-2 -17 -6 -20q-5 -3 -15 -3h-593v10zM459 803h-241v51h241v-51z" />
    <glyph glyph-name="emacron" unicode="&#x113;" 
d="M287 -9l-2 -5q-45 0 -93 14q-46 13 -84 44q-37 30 -61 76q-24 47 -24 113q0 61 26 107q25 45 63 75q37 30 80 45q42 15 75 15q51 0 87 -13q39 -14 63 -34q26 -22 41 -48q16 -28 17 -55h-321q-4 -19 -6 -42q-1 -15 -1 -48q0 -49 12 -90q12 -42 34 -69q22 -28 56 -45
q32 -16 77 -16q46 0 77 14q28 12 55 35l8 -8q-28 -25 -71 -46q-39 -19 -108 -19zM265 462l-1 -1q-37 0 -67 -30q-29 -29 -43 -96h209q-3 27 -9 51q-7 26 -16 41q-11 18 -28 26q-18 9 -45 9zM381 609v-49h-226v49h226z" />
    <glyph glyph-name="Ebreve" unicode="&#x114;" horiz-adv-x="675" 
d="M19 10l-5 -3q21 6 33 15t18 36q5 24 7 80q2 70 2 142v183q0 107 -1 142q-2 55 -7 79q-6 26 -18 37q-11 10 -33 16v9h566q9 0 14 -3t9 -21l19 -110h-12q-17 39 -33 62q-17 24 -44 38t-69 18q-47 5 -109 5h-145v-315h76q48 0 72 7q26 8 39 19q13 12 18 29q3 11 9 35h11
v-190h-11q-6 24 -9 35q-5 17 -18 29q-13 11 -39 19q-24 7 -72 7h-76v-399h166q72 0 111 4q43 4 70 18t44 41q18 29 32 72h12l-13 -123q-2 -17 -6 -20q-5 -3 -15 -3h-593v10zM338 857l2 2q44 0 67 14q22 13 34 39h13q-2 -26 -9 -48t-21 -40q-13 -17 -35 -28q-20 -10 -49 -10
q-30 0 -50 10q-22 11 -35 27q-13 17 -21 39q-7 22 -9 50h12q10 -25 33 -40q22 -15 68 -15z" />
    <glyph glyph-name="ebreve" unicode="&#x115;" 
d="M287 -9l-2 -5q-45 0 -93 14q-46 13 -84 44q-37 30 -61 76q-24 47 -24 113q0 61 26 107q25 45 63 75q37 30 80 45q42 15 75 15q51 0 87 -13q39 -14 63 -34q26 -22 41 -48q16 -28 17 -55h-321q-4 -19 -6 -42q-1 -15 -1 -48q0 -49 12 -90q12 -42 34 -69q22 -28 56 -45
q32 -16 77 -16q46 0 77 14q28 12 55 35l8 -8q-28 -25 -71 -46q-39 -19 -108 -19zM265 462l-1 -1q-37 0 -67 -30q-29 -29 -43 -96h209q-3 27 -9 51q-7 26 -16 41q-11 18 -28 26q-18 9 -45 9zM269 597l4 -1q43 0 63 19q21 19 30 45h12q0 -24 -6 -48q-6 -25 -19 -42
q-14 -18 -34 -30q-21 -12 -48 -12q-28 0 -49 12q-20 12 -34 30q-13 17 -19 42q-6 24 -6 50h12q7 -25 29 -45t65 -20z" />
    <glyph glyph-name="Edotaccent" unicode="&#x116;" horiz-adv-x="675" 
d="M342 789v-2q-28 0 -48 20q-19 19 -19 48q0 27 19 46t48 19q28 0 48 -18q19 -18 19 -45q0 -29 -19 -48q-20 -20 -48 -20zM19 8l-5 -3q21 6 33 15t18 36q5 24 7 80q2 70 2 142v183q0 107 -1 142q-2 55 -7 79q-6 26 -18 37q-11 10 -33 16v9h566q9 0 14 -3t9 -21l19 -110h-12
q-17 39 -33 62q-17 24 -44 38t-69 18q-47 5 -109 5h-145v-315h76q48 0 72 7q26 8 39 19q13 12 18 29q3 11 9 35h11v-190h-11q-6 24 -9 35q-5 17 -18 29q-13 11 -39 19q-24 7 -72 7h-76v-399h166q72 0 111 4q43 4 70 18t44 41q18 29 32 72h12l-13 -123q-2 -17 -6 -20
q-5 -3 -15 -3h-593v10z" />
    <glyph glyph-name="edotaccent" unicode="&#x117;" 
d="M287 -9l-2 -5q-45 0 -93 14q-46 13 -84 44q-37 30 -61 76q-24 47 -24 113q0 61 26 107q25 45 63 75q37 30 80 45q42 15 75 15q51 0 87 -13q39 -14 63 -34q26 -22 41 -48q16 -28 17 -55h-321q-4 -19 -6 -42q-1 -15 -1 -48q0 -49 12 -90q12 -42 34 -69q22 -28 56 -45
q32 -16 77 -16q46 0 77 14q28 12 55 35l8 -8q-28 -25 -71 -46q-39 -19 -108 -19zM265 462l-1 -1q-37 0 -67 -30q-29 -29 -43 -96h209q-3 27 -9 51q-7 26 -16 41q-11 18 -28 26q-18 9 -45 9zM273 532v-2q-29 0 -48 19t-19 46q0 28 19 47q20 20 48 20q29 0 48 -19t19 -46
t-19 -46t-48 -19z" />
    <glyph glyph-name="Eogonek" unicode="&#x118;" horiz-adv-x="675" 
d="M486 -172l-2 -4q-40 0 -69 18t-29 49q0 24 15 42q14 17 36 31q21 14 45 21q27 8 41 11h15q-16 -14 -29 -31q-15 -20 -15 -55q0 -24 12 -38t34 -14q11 0 18 4q8 4 15 12l6 -8l-10 -10q-5 -5 -17 -12t-27 -11q-18 -5 -39 -5zM17 6l-5 -3q21 6 33 15t18 36q5 24 7 80
q2 70 2 142v183q0 107 -1 142q-2 55 -7 79q-6 26 -18 37q-11 10 -33 16v9h566q9 0 14 -3t9 -21l19 -110h-12q-17 39 -33 62q-17 24 -44 38t-69 18q-47 5 -109 5h-145v-315h76q48 0 72 7q26 8 39 19q13 12 18 29q3 11 9 35h11v-190h-11q-6 24 -9 35q-5 17 -18 29
q-13 11 -39 19q-24 7 -72 7h-76v-399h166q72 0 111 4q43 4 70 18t44 41q18 29 32 72h12l-13 -123q-2 -17 -6 -20q-5 -3 -15 -3h-593v10z" />
    <glyph glyph-name="eogonek" unicode="&#x119;" 
d="M424 -132l-15 -15q-5 -5 -17 -12t-27 -11q-18 -5 -39 -5q-40 0 -69 18t-29 50q0 20 12 35t30 27q17 11 41 21q30 12 45 17q-22 -4 -38 -6q-10 -1 -34 -1q-45 0 -93 14q-46 13 -84 44q-37 30 -61 76q-24 47 -24 113q0 61 26 107q26 45 63 75t80 45q42 15 75 15
q51 0 87 -13q39 -14 63 -34q26 -22 41 -48q16 -28 17 -55h-321q-4 -25 -5 -42q-2 -30 -2 -48q0 -49 12 -90q12 -42 34 -69q22 -28 56 -45q32 -16 77 -16q46 0 77 14q28 12 55 35l8 -8q-4 -3 -12.5 -10t-12.5 -10q-9 -7 -30 -19l-21 -12t-24 -21q-11 -13 -19 -31
q-7 -17 -7 -40q0 -25 12 -38q12 -14 34 -14q19 0 34 15zM262 462l-1 -1q-37 0 -67 -30q-29 -29 -43 -96h209q-3 27 -9 51q-7 26 -16 41q-11 18 -28 26q-18 9 -45 9z" />
    <glyph glyph-name="Ecaron" unicode="&#x11a;" horiz-adv-x="675" 
d="M205 926l137 -45l137 45l4 -9l-141 -128l-141 128zM19 10l-5 -3q21 6 33 15t18 36q5 24 7 80q2 70 2 142v183q0 107 -1 142q-2 55 -7 79q-6 26 -18 37q-11 10 -33 16v9h566q9 0 14 -3t9 -21l19 -110h-12q-17 39 -33 62q-17 24 -44 38t-69 18q-47 5 -109 5h-145v-315h76
q48 0 72 7q26 8 39 19q13 12 18 29q3 11 9 35h11v-190h-11q-6 24 -9 35q-5 17 -18 29q-13 11 -39 19q-24 7 -72 7h-76v-399h166q72 0 111 4q43 4 70 18t44 41q18 29 32 72h12l-13 -123q-2 -17 -6 -20q-5 -3 -15 -3h-593v10z" />
    <glyph glyph-name="ecaron" unicode="&#x11b;" 
d="M156 715l116 -76l116 76l9 -6l-125 -182l-124 182zM287 -9l-2 -5q-45 0 -93 14q-46 13 -84 44q-37 30 -61 76q-24 47 -24 113q0 61 26 107q25 45 63 75q37 30 80 45q42 15 75 15q51 0 87 -13q39 -14 63 -34q26 -22 41 -48q16 -28 17 -55h-321q-4 -19 -6 -42
q-1 -15 -1 -48q0 -49 12 -90q12 -42 34 -69q22 -28 56 -45q32 -16 77 -16q46 0 77 14q28 12 55 35l8 -8q-28 -25 -71 -46q-39 -19 -108 -19zM265 462l-1 -1q-37 0 -67 -30q-29 -29 -43 -96h209q-3 27 -9 51q-7 26 -16 41q-11 18 -28 26q-18 9 -45 9z" />
    <glyph glyph-name="Gcircumflex" unicode="&#x11c;" horiz-adv-x="840" 
d="M456 918l141 -128l-4 -9l-137 44l-137 -44l-4 9zM454 -15l-4 -6q-90 0 -165 31q-77 32 -132 85q-55 54 -87 126q-32 73 -32 155q0 65 18 119q18 53 50 96q33 44 73 74t89 52q44 20 96 31q47 10 96 10q45 0 78 -6q27 -5 58 -14q9 -3 25 -7t22 -6q21 -6 45 -6q10 0 21 6
q10 6 15 20h12v-184h-12q-22 85 -89 135t-172 50q-54 0 -103 -18q-50 -18 -87 -58t-60 -110q-22 -67 -22 -172q0 -104 20 -181q20 -76 54 -122q35 -47 84 -69q48 -22 108 -22q55 0 94 14q38 14 59 39t30 63t9 84v10q0 40 -3 63q-3 24 -10 36q-7 13 -19 19q-14 7 -33 11v9
h257v-9q-18 -5 -28 -10q-12 -6 -19 -25q-7 -18 -10 -55q-3 -36 -3 -97v-28q-13 -17 -40 -39q-28 -22 -70 -43t-96 -36t-117 -15z" />
    <glyph glyph-name="gcircumflex" unicode="&#x11d;" 
d="M238 705l125 -182l-9 -6l-116 76l-116 -76l-8 6zM236 167l3 -9q-21 0 -49 5q-25 4 -49 15l-9 -8q-20 -15 -27 -24q-7 -8 -7 -17t9 -17t42 -9l164 -13q51 -5 80 -13q33 -9 51 -22q20 -14 27 -31q8 -19 8 -43q0 -37 -18 -67t-51 -51q-32 -20 -78 -31q-43 -10 -97 -10
q-41 0 -81 6t-72 18t-51 30t-19 44q0 16 9 30t24 24t33 18q17 7 38 12q-34 10 -51 30q-16 19 -16 47q0 31 21 54q22 24 46 42l11 9q-37 18 -63 50q-25 31 -25 78q0 39 18 69t48 51q29 20 66 31q38 11 69 11q26 0 55 -6q30 -6 54 -19q25 24 53 36q27 12 50 12q24 0 34 -10
t10 -27t-10 -26t-24 -9q-11 0 -21 5q-6 3 -18 11t-18 11q-10 5 -20 5q-15 0 -29 -11q35 -19 60 -53q24 -33 24 -78q0 -39 -19 -67q-20 -30 -49 -47q-30 -18 -66 -27t-70 -9zM239 170l1 -2q16 0 33 6q16 6 30 23q15 18 23 43q9 27 9 68q0 39 -8 69q-8 29 -21 47
q-14 19 -31 26q-19 8 -36 8t-35 -8q-16 -7 -30 -26q-14 -18 -21 -46q-8 -30 -8 -69q0 -40 9 -67t22 -43q14 -17 30 -23t33 -6zM85 -80l-2 -4q0 -46 40 -67q41 -21 114 -21q50 0 86 9q38 9 60 22q24 13 36 30t12 33q0 28 -33 39t-105 15l-127 12l-18 3q-6 1 -16 3
q-26 -8 -36 -28q-11 -22 -11 -46z" />
    <glyph glyph-name="Gbreve" unicode="&#x11e;" horiz-adv-x="840" 
d="M455 860l2 2q44 0 67 14q22 13 34 39h13q-1 -25 -9 -48q-7 -22 -21 -40q-13 -17 -35 -28q-20 -10 -49 -10q-30 0 -50 10q-22 11 -35 27q-14 16 -21 39q-7 22 -9 50h12q10 -25 33 -40t68 -15zM456 -13l-4 -6q-90 0 -165 31q-77 32 -132 85q-55 54 -87 126q-32 73 -32 155
q0 65 18 119q18 53 50 96q33 44 73 74t89 52q44 20 96 31q47 10 96 10q45 0 78 -6q27 -5 58 -14q9 -3 25.5 -7t21.5 -6q21 -6 45 -6q10 0 21 6q10 6 15 20h12v-184h-12q-22 85 -89 135t-172 50q-53 0 -103 -18t-87 -58t-60 -110q-22 -67 -22 -172q0 -104 20 -181
q20 -76 54 -122q35 -47 84 -69q48 -22 108 -22q55 0 94 14q38 14 59 39t30 63t9 84v10q0 40 -3 63q-3 24 -10 36q-7 13 -19 19q-14 7 -33 11v9h257v-9q-18 -5 -28 -10q-12 -6 -19 -25q-7 -18 -10 -55q-3 -36 -3 -97v-28q-13 -17 -40 -39q-28 -22 -70 -43t-96 -36t-117 -15z
" />
    <glyph glyph-name="gbreve" unicode="&#x11f;" 
d="M236 167l3 -9q-21 0 -49 5q-25 4 -49 15l-9 -8q-20 -15 -27 -24q-7 -8 -7 -17t9 -17t42 -9l164 -13q51 -5 80 -13q33 -9 51 -22q20 -14 27 -31q8 -19 8 -43q0 -37 -18 -67t-51 -51q-32 -20 -78 -31q-43 -10 -97 -10q-41 0 -81 6t-72 18t-51 30t-19 44q0 16 9 30t24 24
t33 18q17 7 38 12q-34 10 -51 30q-16 19 -16 47q0 31 21 54q22 24 46 42l11 9q-37 18 -63 50q-25 31 -25 78q0 39 18 69t48 51q29 20 66 31q38 11 69 11q26 0 55 -6q30 -6 54 -19q25 24 53 36q27 12 50 12q24 0 34 -10t10 -27t-10 -26t-24 -9q-11 0 -21 5q-6 3 -18 11
t-18 11q-10 5 -20 5q-15 0 -29 -11q35 -19 60 -53q24 -33 24 -78q0 -39 -19 -67q-20 -30 -49 -47q-30 -18 -66 -27t-70 -9zM239 170l1 -2q16 0 33 6q16 6 30 23q15 18 23 43q9 27 9 68q0 39 -8 69q-8 29 -21 47q-14 19 -31 26q-19 8 -36 8t-35 -8q-16 -7 -30 -26
q-14 -18 -21 -46q-8 -30 -8 -69q0 -40 9 -67t22 -43q14 -17 30 -23t33 -6zM85 -80l-2 -4q0 -46 40 -67q41 -21 114 -21q50 0 86 9q38 9 60 22q24 13 36 30t12 33q0 28 -33 39t-105 15l-127 12l-18 3q-6 1 -16 3q-26 -8 -36 -28q-11 -22 -11 -46zM246 588l4 -1q43 0 63 19
q21 20 30 45h12q0 -24 -6 -48q-6 -25 -19 -42q-14 -19 -34 -30q-21 -12 -48 -12q-28 0 -49 12q-20 11 -34 30q-13 17 -19 42q-6 24 -6 50h12q7 -25 29 -45t65 -20z" />
    <glyph glyph-name="Gdotaccent" unicode="&#x120;" horiz-adv-x="840" 
d="M455 789v-2q-28 0 -48 20q-19 19 -19 48q0 27 19 46t48 19t48 -18t19 -45q0 -29 -19 -48q-20 -20 -48 -20zM454 -17l-4 -6q-90 0 -165 31q-77 32 -132 85q-55 54 -87 126q-32 73 -32 155q0 65 18 119q18 53 50 96q33 44 73 74t89 52q44 20 96 31q47 10 96 10q45 0 78 -6
q27 -5 58 -14q9 -3 25 -7t22 -6q21 -6 45 -6q10 0 21 6q10 6 15 20h12v-184h-12q-22 85 -89 135t-172 50q-54 0 -103 -18q-50 -18 -87 -58t-60 -110q-22 -67 -22 -172q0 -104 20 -181q20 -76 54 -122q35 -47 84 -69q48 -22 108 -22q55 0 94 14q38 14 59 39t30 63t9 84v10
q0 40 -3 63q-3 24 -10 36q-7 13 -19 19q-14 7 -33 11v9h257v-9q-18 -5 -28 -10q-12 -6 -19 -25q-7 -18 -10 -55q-3 -36 -3 -97v-28q-13 -17 -40 -39q-28 -22 -70 -43t-96 -36t-117 -15z" />
    <glyph glyph-name="gdotaccent" unicode="&#x121;" 
d="M236 167l3 -9q-21 0 -49 5q-25 4 -49 15l-9 -8q-20 -15 -27 -24q-7 -8 -7 -17t9 -17t42 -9l164 -13q51 -5 80 -13q33 -9 51 -22q20 -14 27 -31q8 -19 8 -43q0 -37 -18 -67t-51 -51q-32 -20 -78 -31q-43 -10 -97 -10q-41 0 -81 6t-72 18t-51 30t-19 44q0 16 9 30t24 24
t33 18q17 7 38 12q-34 10 -51 30q-16 19 -16 47q0 31 21 54q22 24 46 42l11 9q-37 18 -63 50q-25 31 -25 78q0 39 18 69t48 51q29 20 66 31q38 11 69 11q26 0 55 -6q30 -6 54 -19q25 24 53 36q27 12 50 12q24 0 34 -10t10 -27t-10 -26t-24 -9q-11 0 -21 5q-6 3 -18 11
t-18 11q-10 5 -20 5q-15 0 -29 -11q35 -19 60 -53q24 -33 24 -78q0 -39 -19 -67q-20 -30 -49 -47q-30 -18 -66 -27t-70 -9zM239 170l1 -2q16 0 33 6q16 6 30 23q15 18 23 43q9 27 9 68q0 39 -8 69q-8 29 -21 47q-14 19 -31 26q-19 8 -36 8t-35 -8q-16 -7 -30 -26
q-14 -18 -21 -46q-8 -30 -8 -69q0 -40 9 -67t22 -43q14 -17 30 -23t33 -6zM85 -80l-2 -4q0 -46 40 -67q41 -21 114 -21q50 0 86 9q38 9 60 22q24 13 36 30t12 33q0 28 -33 39t-105 15l-127 12l-18 3q-6 1 -16 3q-26 -8 -36 -28q-11 -22 -11 -46zM244 523v-2q-29 0 -48 19
t-19 46q0 28 19 47q20 20 48 20q29 0 48 -19t19 -46t-19 -46t-48 -19z" />
    <glyph glyph-name="uni0122" unicode="&#x122;" horiz-adv-x="840" 
d="M469 -125l-5 -2q-3 -5 -12 -13q-8 -7 -27 -7q-21 0 -37 14q-15 13 -15 38t18 40t41 15q26 0 47 -18t21 -58q0 -41 -25 -65q-26 -25 -70 -29l-4 9q40 7 57 26t17 35q0 14 -6 15zM449 -17l-4 -6q-90 0 -165 31q-77 32 -132 85q-56 54 -87 126q-32 73 -32 155q0 65 18 119
q18 53 50 96q33 44 73 74t89 52q44 20 96 31q47 10 96 10q45 0 78 -6q27 -5 58 -14q9 -3 25.5 -7t21.5 -6q21 -6 45 -6q11 0 21 6t15 20h12v-184h-12q-22 85 -89 135t-172 50q-54 0 -103 -18q-50 -18 -87 -58t-60 -110q-22 -67 -22 -172q0 -104 20 -181q20 -76 54 -122
q34 -47 84 -69q48 -22 108 -22q55 0 94 14q38 14 59 39t30 63t9 84v10q0 40 -3 63q-3 24 -10 36q-7 13 -19 19q-14 7 -33 11v9h257v-9q-18 -5 -28 -10q-12 -6 -19 -25q-7 -18 -10 -55q-3 -36 -3 -97v-28q-13 -17 -40 -39q-28 -22 -70 -43t-96 -36t-117 -15z" />
    <glyph glyph-name="uni0123" unicode="&#x123;" 
d="M208 618l1 2q1 4 11 12t29 8q20 0 36 -14q15 -14 15 -36q0 -25 -17 -40t-39 -15q-25 0 -47 17q-21 16 -21 57q0 42 25 66q26 25 70 29l4 -10q-40 -7 -57 -26q-16 -17 -16 -35q0 -13 6 -15zM237 169l3 -9q-21 0 -49 5q-25 4 -49 15l-9 -8q-19 -15 -27 -24q-7 -8 -7 -17
t9 -17t42 -9l164 -13q51 -5 80 -13q33 -9 51 -22q20 -14 27 -31q8 -19 8 -43q0 -37 -18 -67t-51 -51q-32 -20 -78 -31q-43 -10 -97 -10q-40 0 -81 6t-72 18t-51 30q-19 18 -19 44q0 16 9 30t24 24t33 18q17 7 38 12q-35 10 -51 30q-16 19 -16 47q0 31 21 54q22 24 46 42
l11 9q-37 18 -63 50q-25 31 -25 78q0 39 18 69t48 51q29 20 66 31q38 11 69 11q27 0 55 -6q30 -6 54 -19q25 24 53 36q27 12 50 12q24 0 34 -10t10 -27t-10 -26q-11 -9 -24 -9q-11 0 -21 5q-6 3 -18 11t-18 11q-10 5 -20 5q-15 0 -29 -11q35 -19 60 -53q24 -33 24 -78
q0 -39 -19 -67q-20 -30 -49 -47q-30 -18 -66 -27t-70 -9zM240 172l1 -2q17 0 33 6t30 23q15 18 23 43q9 27 9 68q0 39 -8 69q-8 29 -21 47q-14 19 -31 26q-19 8 -36 8t-35 -8q-16 -7 -30 -26q-14 -18 -21 -46q-8 -30 -8 -69q0 -40 9 -67t22 -43q14 -17 30 -23q17 -6 33 -6z
M86 -78l-2 -4q0 -46 40 -67t114 -21q50 0 86 9q38 9 60 22q24 13 36 30t12 33q0 28 -33 39t-105 15l-127 12l-18 3q-6 1 -16 3q-26 -8 -36 -28q-11 -22 -11 -46z" />
    <glyph glyph-name="Hcircumflex" unicode="&#x124;" horiz-adv-x="814" 
d="M19 10l-5 -4q21 6 33 15t18 36q5 24 7 80q2 70 2 142v183q0 107 -1 142q-2 56 -7 80q-6 27 -18 36t-33 15v9h255v-9q-21 -6 -33 -15t-18 -36q-5 -24 -7 -79q-1 -35 -1 -142v-50h386v50q0 107 -1 142q-2 56 -7 80q-6 27 -18 36t-33 15v9h254v-9q-21 -6 -33 -15t-18 -36
q-5 -24 -7 -79q-1 -35 -1 -142v-183q0 -72 2 -142q2 -55 7 -79q6 -27 18 -36t33 -15v-10h-254v10q21 6 33 15t18 36q5 24 7 80q2 70 2 142v121h-386v-121q0 -72 2 -142q1 -49 8 -79q6 -27 18 -36t33 -15v-10h-255v10zM402 914l141 -128l-4 -9l-137 44l-137 -44l-4 9z" />
    <glyph glyph-name="hcircumflex" unicode="&#x125;" horiz-adv-x="573" 
d="M17 10l-4 -7q17 5 26 12q10 8 14 24t6 47q1 20 1 80v375q0 57 -1 74q-2 26 -6 38q-5 12 -14 17q-7 4 -27 7v12l166 84v-421l32 30q12 10 34 30q18 16 39 30q19 12 45 22q24 9 51 9q23 0 47 -6q23 -6 43 -21q18 -14 31 -41q12 -25 12 -66v-171v-79q0 -28 5 -46
q4 -16 14 -24q9 -7 26 -12v-10h-214v10q19 5 29 12t15 24q4 16 6 47q1 20 1 80v210q0 38 -16 53t-42 15q-27 0 -57 -21q-26 -18 -67 -56l-32 -29v-171q0 -59 1 -79q1 -29 6 -46q5 -16 15 -24q10 -7 29 -12v-10h-214v10zM292 932l141 -128l-4 -9l-137 44l-137 -44l-4 9z" />
    <glyph glyph-name="Hbar" unicode="&#x126;" horiz-adv-x="814" 
d="M-5 575h825v-12h-825v12zM19 10l-5 -4q21 6 33 15t18 36q5 24 7 80q2 70 2 142v183q0 107 -1 142q-2 56 -7 80q-6 27 -18 36t-33 15v9h255v-9q-21 -6 -33 -15t-18 -36q-5 -24 -7 -79q-1 -35 -1 -142v-50h386v50q0 107 -1 142q-2 56 -7 80q-6 27 -18 36t-33 15v9h254v-9
q-21 -6 -33 -15t-18 -36q-5 -24 -7 -79q-1 -35 -1 -142v-183q0 -72 2 -142q2 -55 7 -79q6 -27 18 -36t33 -15v-10h-254v10q21 6 33 15t18 36q5 24 7 80q2 70 2 142v121h-386v-121q0 -72 2 -142q1 -49 8 -79q6 -27 18 -36t33 -15v-10h-255v10z" />
    <glyph glyph-name="hbar" unicode="&#x127;" horiz-adv-x="573" 
d="M-10 566v12h344v-12h-344zM17 10l-4 -7q17 5 26 12q10 8 14 24t6 47q1 20 1 80v375q0 57 -1 74q-2 26 -6 38q-5 12 -14 17q-7 4 -27 7v12l166 84v-421l32 30q12 10 34 30q18 16 39 30q19 12 45 22q24 9 51 9q23 0 47 -6q23 -6 43 -21q18 -14 31 -41q12 -25 12 -66v-171
v-79q0 -28 5 -46q4 -16 14 -24q9 -7 26 -12v-10h-214v10q19 5 29 12t15 24q4 16 6 47q1 20 1 80v210q0 38 -16 53t-42 15q-27 0 -57 -21q-26 -18 -67 -56l-32 -29v-171q0 -59 1 -79q1 -29 6 -46q5 -16 15 -24q10 -7 29 -12v-10h-214v10z" />
    <glyph glyph-name="Itilde" unicode="&#x128;" horiz-adv-x="293" 
d="M19 10l-3 -2q21 6 33 15t18 36q5 24 7 80q2 70 2 142v183q0 107 -1 142q-2 56 -7 80q-6 27 -18 36t-33 15v9h255v-9q-21 -6 -33 -15t-18 -36q-5 -24 -7 -79q-1 -35 -1 -142v-183q0 -72 2 -142q1 -49 8 -79q6 -27 18 -36t33 -15v-10h-255v10zM88 886l-2 2q21 0 33 -1
l36 -3q18 -2 33 -3q10 -1 26 -1t32 9t33 35l8 -3q-11 -52 -33 -83q-23 -32 -52 -32q-28 0 -64 3t-61 3q-13 0 -29 -8q-14 -7 -31 -35l-9 3q15 60 36 87t44 27z" />
    <glyph glyph-name="itilde" unicode="&#x129;" horiz-adv-x="247" 
d="M13 10l-1 -3q19 5 29 12q11 7 15 24q4 16 6 47q1 20 1 80v79q0 56 -1 74q-1 26 -6 40t-15 17q-11 3 -28 6v11l167 86v-312q0 -59 1 -79q1 -29 6 -46q5 -16 15 -24t30 -12v-10h-219v10zM73 643l-2 -1q33 0 63 -6t56 -6q14 0 26 9t29 35l9 -5q-12 -47 -31 -79
q-19 -33 -48 -33t-58 6q-28 6 -58 6q-12 0 -25 -8q-12 -7 -30 -33l-9 5q18 53 36 81q18 29 42 29z" />
    <glyph glyph-name="Imacron" unicode="&#x12a;" horiz-adv-x="293" 
d="M19 10l-3 -2q21 6 33 15t18 36q5 24 7 80q2 70 2 142v183q0 107 -1 142q-2 56 -7 80q-6 27 -18 36t-33 15v9h255v-9q-21 -6 -33 -15t-18 -36q-5 -24 -7 -79q-1 -35 -1 -142v-183q0 -72 2 -142q1 -49 8 -79q6 -27 18 -36t33 -15v-10h-255v10zM263 804h-241v51h241v-51z
" />
    <glyph glyph-name="imacron" unicode="&#x12b;" horiz-adv-x="247" 
d="M13 10l-1 -3q19 5 29 12q11 7 15 24q4 16 6 47q1 20 1 80v79q0 56 -1 74q-1 26 -6 40t-15 17q-11 3 -28 6v11l167 86v-312q0 -59 1 -79q1 -29 6 -46q5 -16 15 -24t30 -12v-10h-219v10zM234 612v-49h-226v49h226z" />
    <glyph glyph-name="Ibreve" unicode="&#x12c;" horiz-adv-x="293" 
d="M19 10l-3 -2q21 6 33 15t18 36q5 24 7 80q2 70 2 142v183q0 107 -1 142q-2 56 -7 80q-6 27 -18 36t-33 15v9h255v-9q-21 -6 -33 -15t-18 -36q-5 -24 -7 -79q-1 -35 -1 -142v-183q0 -72 2 -142q1 -49 8 -79q6 -27 18 -36t33 -15v-10h-255v10zM145 858l2 2q44 0 67 14
q22 13 34 39h13q-1 -25 -9 -48q-7 -22 -21 -40q-13 -17 -35 -28q-20 -10 -49 -10q-30 0 -50 10q-22 11 -35 27q-14 16 -21 39q-7 22 -9 50h12q10 -25 33 -40q22 -15 68 -15z" />
    <glyph glyph-name="ibreve" unicode="&#x12d;" horiz-adv-x="247" 
d="M13 10l-1 -3q19 5 29 12q11 7 15 24q4 16 6 47q1 20 1 80v79q0 56 -1 74q-1 26 -6 40t-15 17q-11 3 -28 6v11l167 86v-312q0 -59 1 -79q1 -29 6 -46q5 -16 15 -24t30 -12v-10h-219v10zM124 600l4 -1q43 0 63 19q21 20 30 45h12q0 -24 -6 -48q-6 -25 -19 -42
q-14 -19 -34 -30q-21 -12 -48 -12q-28 0 -49 12q-20 11 -34 30q-13 17 -19 42q-6 24 -6 50h12q7 -25 29 -45t65 -20z" />
    <glyph glyph-name="Iogonek" unicode="&#x12e;" horiz-adv-x="293" 
d="M19 10l-3 -2q21 6 33 15t18 36q5 24 7 80q2 70 2 142v183q0 107 -1 142q-2 56 -7 80q-6 27 -18 36t-33 15v9h255v-9q-21 -6 -33 -15t-18 -36q-5 -24 -7 -79q-1 -35 -1 -142v-183q0 -72 2 -142q1 -49 8 -79q6 -27 18 -36t33 -15v-10h-255v10zM162 -174l-2 -4q-40 0 -69 18
t-29 49q0 24 15 42q14 17 36 31q21 14 45 21q27 8 41 11h15q-16 -14 -29 -31q-15 -19 -15 -55q0 -24 12 -38t34 -14q11 0 18 4q8 4 15 12l6 -8l-10 -10q-5 -5 -17 -12t-27 -11q-18 -5 -39 -5z" />
    <glyph glyph-name="iogonek" unicode="&#x12f;" horiz-adv-x="247" 
d="M120 538l-3 -2q-27 0 -46 19t-19 46t20 47t47 20q29 0 48 -19q20 -20 20 -46q0 -27 -19 -46t-48 -19zM10 8l-1 -3q19 5 29 12t15 24q4 16 6 47q1 20 1 80v79q0 56 -1 74q-1 26 -6 40t-15 17q-11 3 -28 6v11l167 86v-312q0 -59 1 -79q1 -29 6 -46q4 -16 15 -24t30 -12v-10
h-219v10zM130 -177l-2 -4q-40 0 -69 18t-29 49q0 24 15 42q14 17 36 31q21 13 45 21q27 8 41 11h15q-16 -14 -29 -31q-15 -19 -15 -55q0 -25 12 -38q12 -14 34 -14q11 0 18 4q8 5 15 12l6 -8l-10 -10q-5 -5 -17 -12t-27 -11q-18 -5 -39 -5z" />
    <glyph glyph-name="Idotaccent" unicode="&#x130;" horiz-adv-x="293" 
d="M19 10l-3 -2q21 6 33 15t18 36q5 24 7 80q2 70 2 142v183q0 107 -1 142q-2 56 -7 80q-6 27 -18 36t-33 15v9h255v-9q-21 -6 -33 -15t-18 -36q-5 -24 -7 -79q-1 -35 -1 -142v-183q0 -72 2 -142q1 -49 8 -79q6 -27 18 -36t33 -15v-10h-255v10zM144 787v-2q-28 0 -48 20
q-19 19 -19 48q0 27 19 46t48 19q28 0 48 -18q19 -18 19 -45q0 -29 -19 -48q-20 -20 -48 -20z" />
    <glyph glyph-name="dotlessi" unicode="&#x131;" horiz-adv-x="247" 
d="M13 10l-1 -3q19 5 29 12q11 7 15 24q4 16 6 47q1 20 1 80v79q0 56 -1 74q-1 26 -6 40t-15 17q-11 3 -28 6v11l167 86v-312q0 -59 1 -79q1 -29 6 -46q5 -16 15 -24t30 -12v-10h-219v10z" />
    <glyph glyph-name="IJ" unicode="&#x132;" horiz-adv-x="778" 
d="M19 10l-3 -2q21 6 33 15t18 36q5 24 7 80q2 70 2 142v183q0 107 -1 142q-2 56 -7 80q-6 27 -18 36t-33 15v9h255v-9q-21 -6 -33 -15t-18 -36q-5 -24 -7 -79q-1 -35 -1 -142v-183q0 -72 2 -142q1 -49 8 -79q6 -27 18 -36t33 -15v-10h-255v10zM491 -12l-3 -5q-35 0 -72 8
q-33 7 -60 23q-26 16 -41 36q-15 21 -15 47t17 38t36 12q26 0 40 -13q16 -14 23 -48q2 -7 5.5 -20.5t4.5 -18.5q4 -17 12 -27q7 -10 19 -16t32 -6q31 0 53 20q21 20 21 72v374q0 109 -1 144q-2 56 -7 80q-6 27 -18 36t-33 15v9h254v-9q-21 -6 -33 -15t-18 -36q-5 -24 -7 -79
q-1 -35 -1 -144v-268q0 -51 -18 -90q-18 -40 -46 -66t-66 -40q-36 -13 -78 -13z" />
    <glyph glyph-name="ij" unicode="&#x133;" horiz-adv-x="488" 
d="M120 538l-3 -2q-27 0 -46 19t-19 46t20 47t47 20q29 0 48 -19q20 -20 20 -46q0 -27 -19 -46t-48 -19zM10 8l-1 -3q19 5 29 12t15 24q4 16 6 47q1 20 1 80v79q0 56 -1 74q-1 26 -6 40t-15 17q-11 3 -28 6v11l167 86v-312q0 -59 1 -79q1 -29 6 -46q4 -16 15 -24t30 -12v-10
h-219v10zM357 533l-3 -2q-27 0 -46 19t-19 46t20 47t47 20q29 0 48 -19q20 -20 20 -46q0 -27 -19 -46t-48 -19zM205 -152l-2 -3q-20 0 -36 11q-15 10 -15 33q0 20 11 29t27 9q14 0 24 -7q10 -8 20 -17q12 -12 18 -17q8 -7 18 -7q6 0 10 4q6 6 8 10q4 7 5 18q2 16 2 31v49
v250q0 56 -1 74q-1 26 -6 40q-4 13 -14 18q-8 4 -27 7v11l165 86v-388q0 -58 -22 -106q-22 -49 -84 -94q-34 -24 -55 -32q-24 -9 -46 -9z" />
    <glyph glyph-name="Jcircumflex" unicode="&#x134;" horiz-adv-x="485" 
d="M340 918l141 -128l-4 -9l-137 44l-137 -44l-4 9zM201 -10l-3 -5q-35 0 -72 8q-33 7 -60 23q-26 16 -41 36q-15 21 -15 47t17 38t36 12q26 0 40 -13q16 -14 23 -48q2 -7 5 -20.5t5 -18.5q4 -17 12 -27q7 -10 19 -16t32 -6q31 0 53 20q21 20 21 72v374q0 109 -1 144
q-2 56 -7 80q-6 27 -18 36t-33 15v9h254v-9q-21 -6 -33 -15t-18 -36q-5 -24 -7 -79q-1 -35 -1 -144v-268q0 -51 -18 -90q-18 -40 -46 -66t-66 -40q-36 -13 -78 -13z" />
    <glyph glyph-name="jcircumflex" unicode="&#x135;" horiz-adv-x="247" 
d="M-29 -145v-2q-20 0 -36 11q-15 10 -15 33q0 20 11 29t27 9q14 0 24 -7q11 -7 20 -17l17 -17q7 -7 17 -7q6 0 11 4q6 6 8 10q2 5 4 18q2 16 2 31v48v250v74q0 25 -5 40q-4 14 -15 18q-9 4 -28 7v11l165 86v-388q0 -58 -22 -106q-22 -49 -84 -94q-34 -24 -55 -32
q-24 -9 -46 -9zM123 703l125 -182l-9 -6l-116 76l-116 -76l-8 6z" />
    <glyph glyph-name="uni0136" unicode="&#x136;" horiz-adv-x="731" 
d="M389 -125l-5 -2q-3 -5 -12 -13q-8 -7 -27 -7q-21 0 -37 14q-15 13 -15 38t18 40t41 15q26 0 47 -18t21 -58q0 -41 -25 -65q-26 -25 -70 -29l-4 9q40 7 57 26t17 35q0 14 -6 15zM14 8l-4 -4q21 6 33 15t18 36q5 24 7 80q2 70 2 142v183q0 107 -1 142q-2 56 -7 80
q-6 27 -18 36t-33 15v9h253v-9q-21 -6 -33 -15t-18 -36q-5 -24 -7 -79q-1 -35 -1 -142v-51l312 235q51 37 54 57t-39 32v9h150v-9q-10 -3 -28 -11q-16 -7 -30 -16q-15 -9 -38 -26l-52 -38l-229 -173l333 -396l26 -29q11 -12 20 -20q9 -7 18 -12q6 -3 20 -9v-9h-254v9
q15 4 22.5 11t6.5 17q-2 22 -33 59l-258 306v-117q0 -72 2 -142q1 -49 8 -79q6 -27 18 -36t33 -15v-10h-253v10z" />
    <glyph glyph-name="uni0137" unicode="&#x137;" horiz-adv-x="533" 
d="M299 -125l-5 -2q-3 -5 -12 -13q-8 -7 -27 -7q-21 0 -37 14q-15 13 -15 38t18 40t41 15q26 0 47 -18t21 -58q0 -41 -25 -65q-26 -25 -70 -29l-4 9q40 7 57 26t17 35q0 14 -6 15zM12 8l-2 -3q17 5 26 12q10 8 14 24t6 47q1 20 1 80v372q0 57 -1 75q-2 28 -6 41
q-5 14 -15 17q-11 3 -28 6v12l167 84v-527l199 150q31 22 27 39q-4 16 -30 19v10h129v-10q-23 -8 -49 -22q-28 -15 -64 -43l-119 -90l209 -253q19 -23 28 -30q10 -8 24 -12v-10h-215v10q23 3 26 18q3 16 -22 44l-142 172v-71q0 -59 1 -79q1 -29 6 -46q4 -16 15 -24
q10 -7 29 -12v-10h-214v10z" />
    <glyph glyph-name="Lacute" unicode="&#x139;" horiz-adv-x="642" 
d="M49 793l132 100q11 8 26 15q13 6 29 6q20 0 32 -15t12 -31q0 -21 -13 -37q-13 -17 -51 -21l-164 -27zM18 11l-2 -1q21 6 33 15t18 36q5 24 7 80q2 70 2 142v183q0 107 -1 142q-2 56 -7 80q-6 27 -18 36t-33 15v9h258v-9q-22 -6 -34 -15t-18 -36q-7 -30 -8 -79
q-1 -35 -1 -142v-455h149q59 0 96 6t65 23q27 16 45 47q16 27 37 80h13l-26 -144q-5 -17 -9 -20t-15 -3h-551v10z" />
    <glyph glyph-name="lacute" unicode="&#x13a;" horiz-adv-x="251" 
d="M27 793l132 100q11 8 26 15q14 6 29 6q20 0 32 -15t12 -31q0 -21 -13 -37q-13 -17 -51 -21l-164 -27zM15 11l-3 -1q17 4 28 12q10 8 15 24q4 16 6 47q1 20 1 80v390v65q0 24 -4 35q-5 12 -13 15q-11 4 -26 5v12l163 84v-607q0 -59 1 -79q1 -29 6 -46t15 -24t30 -12v-10
h-219v10z" />
    <glyph glyph-name="uni013B" unicode="&#x13b;" horiz-adv-x="642" 
d="M358 -125l-5 -2q-3 -5 -12 -13q-8 -7 -27 -7q-21 0 -37 14q-15 13 -15 38t18 40t41 15q26 0 47 -18t21 -58q0 -41 -25 -65q-26 -25 -70 -29l-4 9q40 7 57 26t17 35q0 14 -6 15zM14 8l-2 -1q21 6 33 15t18 36q5 24 7 80q2 70 2 142v183q0 107 -1 142q-2 56 -7 80
q-6 27 -18 36t-33 15v9h258v-9q-22 -6 -34 -15t-18 -36q-7 -30 -8 -79q-1 -35 -1 -142v-455h149q59 0 96 6t65 23q27 16 45 47q16 27 37 80h13l-26 -144q-5 -17 -9 -20t-15 -3h-551v10z" />
    <glyph glyph-name="uni013C" unicode="&#x13c;" horiz-adv-x="251" 
d="M152 -125l-5 -2q-3 -5 -12 -13q-8 -7 -27 -7q-21 0 -37 14q-15 13 -15 38t18 40t41 15q26 0 47 -18t21 -58q0 -41 -25 -65q-26 -25 -70 -29l-4 9q40 7 57 26t17 35q0 14 -6 15zM11 8l-3 -1q17 4 28 12q10 7 15 24q4 16 6 47q1 20 1 80v390v65q0 24 -4 35q-5 12 -13 15
q-11 4 -26 5v12l163 84v-607q0 -59 1 -79q1 -29 6 -46q5 -16 15 -24t30 -12v-10h-219v10z" />
    <glyph glyph-name="Lcaron" unicode="&#x13d;" horiz-adv-x="642" 
d="M304 546l8 138q2 40 12 56q11 17 33 17q40 0 40 -43q0 -12 -4 -23q-5 -13 -12 -23l-68 -124zM21 9l-2 -1q21 6 33 15t18 36q5 24 7 80q2 70 2 142v183q0 107 -1 142q-2 56 -7 80q-6 27 -18 36t-33 15v9h258v-9q-22 -6 -34 -15t-18 -36q-7 -30 -8 -79q-1 -35 -1 -142v-455
h149q58 0 96 6q37 6 65 23q27 16 45 47q16 27 37 80h13l-26 -144q-5 -17 -9 -20q-5 -3 -15 -3h-551v10z" />
    <glyph glyph-name="lcaron" unicode="&#x13e;" horiz-adv-x="251" 
d="M218 555l8 138q2 40 12 56q11 17 33 17q40 0 40 -43q0 -12 -4 -23q-5 -13 -12 -23l-68 -124zM18 9l-3 -1q17 4 28 12t15 24t6 47q1 20 1 80v390v65q0 24 -4 35q-5 12 -13 15q-11 4 -26 5v12l163 84v-607q0 -59 1 -79q1 -29 6 -46q4 -17 15 -24t30 -12v-10h-219v10z" />
    <glyph glyph-name="Ldot" unicode="&#x13f;" horiz-adv-x="642" 
d="M473 320v-2q-28 0 -50 20q-21 20 -21 51t21 51q22 20 50 20q31 0 51 -19q21 -19 21 -51t-21 -51q-20 -19 -51 -19zM19 8l-2 -1q21 6 33 15t18 36q5 24 7 80q2 70 2 142v183q0 107 -1 142q-2 56 -7 80q-6 27 -18 36t-33 15v9h258v-9q-22 -6 -34 -15t-18 -36q-7 -30 -8 -79
q-1 -35 -1 -142v-455h149q58 0 96 6q37 6 65 23q27 16 45 47q16 27 37 80h13l-26 -144q-5 -17 -9 -20q-5 -3 -15 -3h-551v10z" />
    <glyph glyph-name="ldot" unicode="&#x140;" horiz-adv-x="343" 
d="M296 298v-2q-28 0 -50 20q-21 20 -21 51t21 51q22 20 50 20q30 0 50 -19q21 -19 21 -51t-21 -51q-20 -19 -50 -19zM16 8l-3 -1q17 4 28 12q11 7 15 24q4 16 6 47q1 20 1 80v390v65q0 24 -4 35q-5 12 -13 15q-11 4 -26 5v12l163 84v-607q0 -59 1 -79q1 -29 6 -46
q4 -16 15 -24t30 -12v-10h-219v10z" />
    <glyph glyph-name="Lslash" unicode="&#x141;" horiz-adv-x="642" 
d="M-13 255l-5 11l452 222l5 -11zM19 10l-2 -1q21 6 33 15t18 36q5 24 7 80q2 70 2 142v183q0 107 -1 142q-2 56 -7 80q-6 27 -18 36t-33 15v9h258v-9q-22 -6 -34 -15t-18 -36q-7 -30 -8 -79q-1 -35 -1 -142v-455h149q58 0 96 6q37 6 65 23q27 16 45 47q16 27 37 80h13
l-26 -144q-5 -17 -9 -20q-5 -3 -15 -3h-551v10z" />
    <glyph glyph-name="lslash" unicode="&#x142;" horiz-adv-x="251" 
d="M2 300l-8 10l259 176l8 -10zM16 10l-3 -1q17 4 28 12q11 7 15 24q4 16 6 47q1 20 1 80v390v65q0 24 -4 35q-5 12 -13 15q-11 4 -26 5v12l163 84v-607q0 -59 1 -79q1 -29 6 -46q4 -16 15 -24t30 -12v-10h-219v10z" />
    <glyph glyph-name="Nacute" unicode="&#x143;" horiz-adv-x="748" 
d="M333 793l132 100q11 8 26 15q13 6 29 6q20 0 32 -15t12 -31q0 -21 -13 -37q-13 -17 -51 -21l-164 -27zM18 11l-5 -2q20 9 33 20q12 11 18 39q5 26 7 81q2 70 2 142v176q0 107 -1 142q-2 55 -7 79q-6 26 -18 37q-11 10 -33 16v9h208q8 0 11 -1q6 -2 9 -4t10 -9
q6 -6 15 -18l397 -520v264q0 107 -1 142q-1 52 -9 81t-21 39q-15 12 -37 20v9h142v-9q-20 -9 -33 -20q-12 -10 -18 -39q-5 -26 -7 -81q-1 -35 -1 -142v-463h-32l-557 731v-437q0 -72 2 -142q2 -53 9 -81t21 -39t38 -20v-10h-142v10z" />
    <glyph glyph-name="nacute" unicode="&#x144;" horiz-adv-x="573" 
d="M235 526l85 127q16 24 30 36t33 12q21 0 33 -12t12 -32q0 -21 -12 -35t-31 -24l-143 -79zM14 9l-3 -7q17 5 26 12q10 8 14 24t6 47q1 20 1 80v79q0 57 -1 74q-1 26 -6 39q-5 14 -15 17q-11 3 -28 6v11l167 86v-126l32 30q12 10 34 30q18 17 39 30q19 12 45 22q24 9 51 9
q23 0 47 -6q23 -6 43 -21q18 -14 31 -41q12 -26 12 -66v-171v-79q0 -28 5 -46q4 -16 14 -24q9 -7 26 -12v-10h-214v10q19 5 29 12q11 8 15 24t6 47q1 20 1 80v210q0 38 -16 53q-17 15 -42 15q-27 0 -57 -21q-26 -18 -67 -56l-32 -29v-171q0 -59 1 -79q1 -29 6 -46
q4 -17 15 -24q10 -7 29 -12v-10h-214v10z" />
    <glyph glyph-name="uni0145" unicode="&#x145;" horiz-adv-x="748" 
d="M388 -125l-5 -2q-3 -5 -12 -13q-8 -7 -27 -7q-21 0 -37 14q-15 13 -15 38t18 40t41 15q26 0 47 -18t21 -58q0 -41 -25 -65q-26 -25 -70 -29l-4 9q40 7 57 26t17 35q0 14 -6 15zM14 8l-5 -2q20 9 33 20q12 10 18 39q5 26 7 81q2 70 2 142v176q0 107 -1 142q-2 55 -7 79
q-6 26 -18 37q-11 10 -33 16v9h208q8 0 11 -1q6 -2 9 -4t10 -9q6 -6 15 -18l397 -520v264q0 107 -1 142q-1 53 -9 81t-21 39q-15 12 -37 20v9h142v-9q-20 -9 -33 -20q-12 -11 -18 -39q-5 -26 -7 -81q-1 -35 -1 -142v-463h-32l-557 731v-437q0 -72 2 -142q2 -52 9 -81t21 -39
q14 -11 38 -20v-10h-142v10z" />
    <glyph glyph-name="uni0146" unicode="&#x146;" horiz-adv-x="573" 
d="M316 -125l-5 -2q-3 -5 -12 -13q-8 -7 -27 -7q-21 0 -37 14q-15 13 -15 38t18 40t41 15q26 0 47 -18t21 -58q0 -41 -25 -65q-26 -25 -70 -29l-4 9q40 7 57 26t17 35q0 14 -6 15zM12 8l-3 -7q17 5 26 12q10 8 14 24t6 47q1 20 1 80v79q0 57 -1 74q-1 25 -6 39t-15 17
q-11 3 -28 6v11l167 86v-126l32 30q12 10 34 30q18 16 39 30q19 12 45 22q24 9 51 9q23 0 47 -6q23 -6 43 -21q18 -14 31 -41q12 -25 12 -66v-171v-79q0 -28 5 -46q4 -16 14 -24q9 -7 26 -12v-10h-214v10q19 5 29 12q11 7 15 24q4 16 6 47q1 20 1 80v210q0 38 -16 53
q-17 15 -42 15q-27 0 -57 -21q-26 -18 -67 -56l-32 -29v-171q0 -59 1 -79q1 -29 6 -46q4 -16 15 -24q10 -7 29 -12v-10h-214v10z" />
    <glyph glyph-name="Ncaron" unicode="&#x147;" horiz-adv-x="748" 
d="M287 926l137 -45l137 45l4 -9l-141 -128l-141 128zM19 10l-5 -2q20 9 33 20q12 10 18 39q5 26 7 81q2 70 2 142v176q0 107 -1 142q-2 55 -7 79q-6 26 -18 37q-11 10 -33 16v9h208q8 0 11 -1q6 -2 9 -4t10 -9q6 -6 15 -18l397 -520v264q0 107 -1 142q-2 53 -9 81t-21 39
q-15 12 -37 20v9h142v-9q-20 -9 -33 -20q-12 -11 -18 -39q-5 -26 -7 -81q-1 -35 -1 -142v-463h-32l-557 731v-437q0 -72 2 -142q1 -52 9 -81t21 -39q14 -11 38 -20v-10h-142v10z" />
    <glyph glyph-name="ncaron" unicode="&#x148;" horiz-adv-x="573" 
d="M182 715l116 -76l116 76l9 -6l-125 -182l-124 182zM17 10l-3 -7q17 5 26 12q10 8 14 24t6 47q1 20 1 80v79q0 57 -1 74q-2 25 -6 39q-5 14 -15 17q-11 3 -28 6v11l167 86v-126l32 30q12 10 34 30q18 16 39 30q19 12 45 22q24 9 51 9q23 0 47 -6q23 -6 43 -21
q18 -14 31 -41q12 -25 12 -66v-171v-79q0 -28 5 -46q4 -16 14 -24q9 -7 26 -12v-10h-214v10q19 5 29 12t15 24q4 16 6 47q1 20 1 80v210q0 38 -16 53t-42 15q-27 0 -57 -21q-26 -18 -67 -56l-32 -29v-171q0 -59 1 -79q1 -29 6 -46q5 -16 15 -24q10 -7 29 -12v-10h-214v10z
" />
    <glyph glyph-name="napostrophe" unicode="&#x149;" horiz-adv-x="573" 
d="M17 10l-3 -7q17 5 26 12q10 8 14 24t6 47q1 20 1 80v79q0 57 -1 74q-2 25 -6 39q-5 14 -15 17q-11 3 -28 6v11l167 86v-126l32 30q12 10 34 30q18 16 39 30q19 12 45 22q24 9 51 9q23 0 47 -6q23 -6 43 -21q18 -14 31 -41q12 -25 12 -66v-171v-79q0 -28 5 -46
q4 -16 14 -24q9 -7 26 -12v-10h-214v10q19 5 29 12t15 24q4 16 6 47q1 20 1 80v210q0 38 -16 53t-42 15q-27 0 -57 -21q-26 -18 -67 -56l-32 -29v-171q0 -59 1 -79q1 -29 6 -46q5 -16 15 -24q10 -7 29 -12v-10h-214v10zM36 659h-2q-4 -9 -15 -15t-27 -6q-22 0 -39 17
q-16 16 -16 42q0 30 20 47t45 17q13 0 25 -4q13 -5 24 -15t18 -27q7 -15 7 -39q0 -53 -31 -91q-31 -39 -78 -60l-5 8q40 23 63 48q22 25 22 51q0 18 -11 27z" />
    <glyph glyph-name="Eng" unicode="&#x14a;" horiz-adv-x="748" 
d="M19 10l-4 -2q20 9 33 20q12 10 18 39q5 26 7 81q2 70 2 142v176q0 107 -1 142q-2 55 -7 79q-6 26 -18 37q-11 10 -33 16v9h208q7 0 10 -1q6 -2 9 -4t10 -9q6 -6 15 -18l397 -500v244q0 107 -1 142q-2 53 -9 81t-21 39q-15 12 -37 20v9h142v-9q-20 -9 -33 -20
q-12 -11 -18 -39q-5 -26 -7 -81q-1 -35 -1 -142v-467q0 -60 -39 -94q-38 -34 -105 -34q-39 0 -67 7q-31 8 -52 19t-34 29q-12 17 -12 36q0 20 14 31q13 10 32 10q22 0 35 -11t17 -39q7 -37 20 -54q12 -16 48 -16q59 0 93 30q35 30 35 86v3l-574 732v-437q0 -72 2 -142
q1 -52 9 -81t21 -39q14 -11 38 -20v-10h-142v10z" />
    <glyph glyph-name="eng" unicode="&#x14b;" horiz-adv-x="573" 
d="M17 10l-4 -7q17 5 26 12q10 8 14 24t6 47q1 20 1 80v79q0 57 -1 74q-1 25 -6 39t-15 17q-11 3 -28 6v11l167 86v-126l32 30q12 10 34 30q18 16 39 30q19 12 45 22q24 9 51 9q23 0 47 -6q23 -6 43 -21q18 -14 31 -41q12 -25 12 -66v-247q0 -58 -22 -106q-22 -49 -84 -94
q-34 -24 -55 -32q-24 -9 -46 -9q-20 0 -36 11q-15 10 -15 33q0 20 11 29q10 9 27 9q14 0 24 -7q11 -8 20 -17l17 -17q7 -7 17 -7q6 0 10 4q6 6 8 10q4 7 5 18q2 16 2 31v49v383q0 38 -16 53t-42 15q-27 0 -57 -21q-26 -18 -67 -56l-32 -29v-171q0 -59 1 -79q1 -29 6 -46
q5 -16 15 -24q10 -7 29 -12v-10h-214v10z" />
    <glyph glyph-name="Omacron" unicode="&#x14c;" horiz-adv-x="865" 
d="M551 806h-241v51h241v-51zM432 -15v-2q-76 0 -147 30q-70 30 -125 83q-54 52 -87 125q-33 72 -33 153q0 80 33 150t87 123q55 53 125 83q71 30 147 30t148 -30t127 -82t88 -123t33 -150q0 -81 -33 -153t-88 -124q-57 -54 -127 -83q-72 -30 -148 -30zM432 -5h-6
q49 0 94 21q44 21 79 66q34 44 55 117q21 72 21 174q0 104 -22 173q-23 71 -57 116q-35 46 -78 65q-45 20 -89 20t-89 -20q-43 -19 -78 -65t-56 -116q-21 -71 -21 -173q0 -100 20 -174q19 -72 54 -117t79 -66q45 -21 94 -21z" />
    <glyph glyph-name="omacron" unicode="&#x14d;" horiz-adv-x="563" 
d="M394 615v-49h-226v49h226zM281 -11l-1 -1q-35 0 -82 14q-44 13 -84 44t-65 76q-26 47 -26 111t26 111t65 77t84 45t83 15t83 -15t84 -45t65 -77t26 -111t-26 -111q-25 -45 -65 -76q-38 -29 -84 -43q-47 -14 -83 -14zM280 0h-5q29 0 53 12t42 39q19 28 29 72q11 47 11 111
q0 66 -10 109t-29 73q-18 28 -42 42q-23 13 -52 13t-52 -13q-24 -14 -42 -42q-17 -28 -28 -73q-10 -43 -10 -109q0 -64 11 -111q10 -44 29 -72q18 -27 42 -39t53 -12z" />
    <glyph glyph-name="Obreve" unicode="&#x14e;" horiz-adv-x="865" 
d="M434 860l2 2q44 0 67 14q22 13 34 39h13q-2 -25 -9 -48q-7 -22 -21 -40q-13 -17 -35 -28q-20 -10 -49 -10q-30 0 -50 10q-22 11 -35 27t-21 39q-7 22 -9 50h12q10 -25 33 -40q22 -15 68 -15zM434 -13v-2q-76 0 -147 30q-70 30 -125 83q-54 52 -87 125q-33 72 -33 153
q0 80 33 150t87 123q55 53 125 83q71 30 147 30t148 -30t127 -82t88 -123t33 -150q0 -81 -33 -153t-88 -124q-57 -54 -127 -83q-72 -30 -148 -30zM434 -3h-6q49 0 94 21q44 21 79 66q34 44 55 117q21 72 21 174q0 104 -22 173q-23 71 -57 116q-35 46 -78 65q-45 20 -89 20
t-89 -20q-43 -19 -78 -65t-56 -116t-21 -173q0 -100 20 -174q19 -72 54 -117t79 -66q45 -21 94 -21z" />
    <glyph glyph-name="obreve" unicode="&#x14f;" horiz-adv-x="563" 
d="M281 -11l-1 -1q-35 0 -82 14q-44 13 -84 44t-65 76q-26 47 -26 111t26 111t65 77t84 45t83 15t83 -15t84 -45t65 -77t26 -111t-26 -111q-25 -45 -65 -76q-38 -29 -84 -43q-47 -14 -83 -14zM280 0h-5q29 0 53 12t42 39q19 28 29 72q11 47 11 111q0 66 -10 109t-29 73
q-18 28 -42 42q-23 13 -52 13t-52 -13q-24 -14 -42 -42q-17 -28 -28 -73q-10 -43 -10 -109q0 -64 11 -111q10 -44 29 -72q18 -27 42 -39t53 -12zM276 602l4 -1q43 0 63 19q21 20 30 45h12q0 -24 -6 -48q-6 -25 -19 -42q-14 -19 -34 -30q-21 -12 -48 -12q-28 0 -49 12
q-20 11 -34 30q-13 17 -19 42q-6 24 -6 50h12q7 -25 29 -45t65 -20z" />
    <glyph glyph-name="Ohungarumlaut" unicode="&#x150;" horiz-adv-x="865" 
d="M472 810l61 79q14 19 29 36q12 14 32 14t29 -13q9 -14 9 -24q0 -16 -12 -27q-13 -11 -31 -21l-111 -52zM321 808l59 79q14 19 29 36q12 14 32 14t29 -13q9 -14 9 -24q0 -16 -11 -27q-10 -11 -30 -21l-110 -52zM430 -19v-2q-76 0 -147 30q-70 30 -125 83q-54 52 -87 125
q-33 72 -33 153q0 80 33 150t87 123q55 53 125 83q71 30 147 30t148 -30t127 -82t88 -123t33 -150q0 -81 -33 -153t-88 -124q-57 -54 -127 -83q-72 -30 -148 -30zM430 -9h-6q49 0 94 21q44 21 79 66q34 44 55 117q21 72 21 174q0 104 -22 173q-23 71 -57 116q-35 46 -78 65
q-45 20 -89 20t-89 -20q-43 -19 -78 -65t-56 -116t-21 -173q0 -100 20 -174q19 -72 54 -117t79 -66q45 -21 94 -21z" />
    <glyph glyph-name="ohungarumlaut" unicode="&#x151;" horiz-adv-x="563" 
d="M336 540l35 135q6 26 16 40q11 15 33 15q20 0 29 -12t9 -30q0 -22 -21 -45l-93 -106zM200 540l34 135q7 23 17 40q9 15 32 15q20 0 29 -12t9 -30q0 -22 -21 -45l-93 -106zM283 -11l-1 -1q-35 0 -82 14q-44 13 -84 44t-65 76q-26 47 -26 111t26 111t65 77t84 45t83 15
t83 -15t84 -45t65 -77t26 -111t-26 -111q-25 -45 -65 -76q-38 -29 -84 -43q-47 -14 -83 -14zM282 0h-5q29 0 53 12t42 39q19 28 29 72q11 47 11 111q0 66 -10 109t-29 73q-18 28 -42 42q-23 13 -52 13t-52 -13q-24 -14 -42 -42q-17 -28 -28 -73q-10 -43 -10 -109
q0 -64 11 -111q10 -44 29 -72q18 -27 42 -39t53 -12z" />
    <glyph glyph-name="OE" unicode="&#x152;" horiz-adv-x="1160" 
d="M1070 750l-5 -5q9 0 14 -3t9 -21l19 -110h-12q-15 37 -32 62q-17 24 -44 38t-70 18q-48 5 -111 5h-125v-315h57q48 0 72 7q26 8 39 19q13 12 18 29q3 11 9 35h11v-190h-11q-6 24 -9 35q-5 17 -18 29q-13 11 -39 19q-24 7 -72 7h-57v-399h146q74 0 113 4q44 5 71 18
q27 14 44 41q18 29 32 72h12l-13 -123q-2 -17 -6 -20t-15 -3h-609q-99 0 -183 26q-82 25 -141 74q-57 47 -91 119q-33 70 -33 157q0 80 32 150t90 119q58 50 141 78q81 28 183 28h584zM482 733l1 -3q-77 0 -133 -19t-94 -63q-38 -45 -56 -112q-18 -69 -18 -168
q0 -101 21 -170q21 -68 60 -112q39 -43 95 -63q54 -19 123 -19q35 0 54 9t28 38q8 27 10 84q2 74 2 148v164q0 77 -2 153q-1 56 -11 86q-9 29 -28 38q-20 9 -52 9z" />
    <glyph glyph-name="oe" unicode="&#x153;" horiz-adv-x="888" 
d="M281 -11l-2 -5q-35 0 -82 14q-44 13 -84 44t-65 76q-26 47 -26 111t26 111t65 77t84 45t83 15q25 0 52 -6q29 -7 53 -19q27 -14 50 -33q24 -19 42 -45q17 24 41 45q23 20 47 32t48 18t45 6q51 0 87 -13q39 -14 63 -34q26 -22 41 -48q16 -28 17 -55h-321q-5 -19 -6 -42
q-1 -15 -1 -48q0 -49 12 -90q12 -42 34 -69q22 -28 56 -45q32 -16 77 -16q46 0 77 14q29 13 54 35l9 -8q-28 -25 -71 -46q-39 -19 -108 -19q-59 0 -114 23t-89 72q-37 -49 -91 -73t-103 -24zM279 -4h-5q29 0 53 12t42 39q19 28 29 72q11 47 11 111q0 66 -10 109t-29 73
q-18 28 -42 42q-23 13 -52 13t-52 -13q-24 -14 -42 -42q-17 -28 -28 -73q-10 -43 -10 -109q0 -64 11 -111q10 -44 29 -72q18 -27 42 -39t53 -12zM652 462l-1 -1q-37 0 -67 -30q-29 -29 -43 -96h209q-3 27 -9 51q-7 26 -16 41q-11 18 -28 26q-18 9 -45 9z" />
    <glyph glyph-name="Racute" unicode="&#x154;" horiz-adv-x="731" 
d="M265 793l132 100q11 8 26 15q13 6 29 6q20 0 32 -15t12 -31q0 -21 -13 -37q-13 -17 -51 -21l-164 -27zM18 11l-2 -5q21 6 33 15t18 36q5 24 7 80q2 70 2 142v183q0 107 -1 142q-2 56 -7 80q-6 27 -18 36t-33 15v9h305q100 0 165 -13q69 -14 108 -37q41 -24 59 -57t18 -73
q0 -51 -27 -87t-72 -60q-44 -23 -103 -34q-61 -11 -123 -11h-26q38 -4 75 -17q33 -12 63 -35q28 -22 49 -57q22 -36 35 -84q10 -31 23 -65q12 -30 27 -51t33 -33t41 -12q25 0 38 9t24 21l7 -6q-3 -5 -14 -16q-8 -8 -22 -16q-11 -6 -33 -13q-19 -6 -45 -6q-42 0 -77 9
q-34 9 -63 32q-28 22 -49 63q-20 39 -34 102q-13 60 -27 97t-31 54q-18 18 -40 22q-25 5 -54 5h-35v-92q0 -72 2 -142q1 -49 8 -79q6 -27 18 -36t33 -15v-10h-255v10zM211 734l1 -348h138q193 0 193 167q0 41 -10 72q-11 33 -36 57q-26 25 -69 38q-45 14 -111 14h-106z" />
    <glyph glyph-name="racute" unicode="&#x155;" horiz-adv-x="401" 
d="M156 526l85 127q17 24 30 36t33 12q21 0 33 -12t12 -32q0 -21 -12 -35t-31 -24l-143 -79zM14 9l1 1q17 5 26 12q10 8 14 24t6 47q1 20 1 80v76q0 58 -1 76q-1 26 -6 40t-15 17q-11 3 -28 6v11l167 86v-114l20 23q26 30 42 44q19 17 35 26t30 12t27 3q29 0 42 -13
q14 -14 14 -36q0 -29 -13 -42t-33 -13q-15 0 -27 6q-14 7 -21 13q-6 5 -18 13q-9 6 -20 6t-24 -7q-13 -8 -33 -30l-21 -24v-182q0 -59 1 -79q1 -29 6 -46q4 -17 15 -24t30 -12v-10h-217v10z" />
    <glyph glyph-name="uni0156" unicode="&#x156;" horiz-adv-x="731" 
d="M396 -125l-5 -2q-3 -5 -12 -13q-8 -7 -27 -7q-21 0 -37 14q-15 13 -15 38t18 40t41 15q26 0 47 -18t21 -58q0 -41 -25 -65q-26 -25 -70 -29l-4 9q40 7 57 26t17 35q0 14 -6 15zM14 8l-2 -5q21 6 33 15t18 36q5 24 7 80q2 70 2 142v183q0 107 -1 142q-2 56 -7 80
q-6 27 -18 36t-33 15v9h305q100 0 165 -13q69 -14 108 -37q41 -24 59 -57t18 -73q0 -51 -27 -87t-72 -60q-44 -23 -103 -34q-61 -11 -123 -11h-26q38 -4 75 -17q33 -12 63 -35q28 -22 49 -57q22 -36 35 -84q10 -31 23 -65q12 -30 27 -51t33 -33t41 -12q25 0 38 9t24 21l7 -6
q-3 -5 -14 -16q-8 -9 -22 -16q-11 -6 -33 -13q-19 -6 -45 -6q-42 0 -77 9q-34 9 -63 32q-28 22 -49 63q-20 39 -34 102q-13 60 -27 97t-31 54t-40 22q-25 5 -54 5h-35v-92q0 -72 2 -142q1 -49 8 -79q6 -27 18 -36t33 -15v-10h-255v10zM207 731l1 -348h138q193 0 193 167
q0 41 -10 72q-11 33 -36 57q-26 25 -69 38q-45 14 -111 14h-106z" />
    <glyph glyph-name="uni0157" unicode="&#x157;" horiz-adv-x="401" 
d="M151 -125l-5 -2q-3 -5 -12 -13q-8 -7 -27 -7q-21 0 -37 14q-15 13 -15 38t18 40t41 15q26 0 47 -18t21 -58q0 -41 -25 -65q-26 -25 -70 -29l-4 9q40 7 57 26t17 35q0 14 -6 15zM12 8l1 1q17 5 26 12q10 8 14 24t6 47q1 20 1 80v76q0 58 -1 76q-1 26 -6 40t-15 17
q-11 3 -28 6v11l167 86v-114l20 23q26 30 42 44q19 17 35 26t30 12t27 3q29 0 42 -13q14 -14 14 -36q0 -29 -13 -42t-33 -13q-15 0 -27 6q-14 7 -21 13q-6 5 -18 13q-9 6 -20 6t-24 -7t-33 -30l-21 -24v-182q0 -59 1 -79q1 -29 6 -46q4 -16 15 -24t30 -12v-10h-217v10z" />
    <glyph glyph-name="Rcaron" unicode="&#x158;" horiz-adv-x="731" 
d="M221 926l137 -45l137 45l4 -9l-141 -128l-141 128zM19 10l-2 -5q21 6 33 15t18 36q5 24 7 80q2 70 2 142v183q0 107 -1 142q-2 56 -7 80q-6 27 -18 36t-33 15v9h305q100 0 165 -13q69 -14 108 -37q41 -24 59 -57t18 -73q0 -51 -27 -87t-72 -60q-44 -23 -103 -34
q-61 -11 -123 -11h-26q38 -4 75 -17q33 -12 63 -35q28 -22 49 -57q22 -36 35 -84q10 -31 23 -65q12 -30 27 -51t33 -33t41 -12q24 0 38 9t24 21l7 -6q-3 -5 -14 -16q-9 -9 -22 -16q-11 -6 -33 -13q-20 -6 -45 -6q-43 0 -77 9t-63 32q-28 22 -49 63q-20 39 -34 102
q-13 60 -27 97t-31 54q-18 17 -40 22q-25 5 -54 5h-35v-92q0 -72 2 -142q1 -49 8 -79q6 -27 18 -36t33 -15v-10h-255v10zM212 733l1 -348h138q193 0 193 167q0 41 -10 72q-10 33 -36 57q-26 25 -69 38q-45 14 -111 14h-106z" />
    <glyph glyph-name="rcaron" unicode="&#x159;" horiz-adv-x="401" 
d="M102 715l116 -76l116 76l9 -6l-125 -182l-124 182zM17 10l1 1q17 5 26 12q10 8 14 24t6 47q1 20 1 80v76q0 58 -1 76q-1 26 -6 40t-15 17q-11 3 -28 6v11l167 86v-114l20 23q26 30 42 44q19 17 35 26q17 9 30 12t27 3q29 0 42 -13q14 -14 14 -36q0 -29 -13 -42t-33 -13
q-15 0 -27 6q-13 7 -21 13q-6 5 -18 13q-9 6 -20 6t-24 -7q-14 -7 -33 -30l-21 -24v-182q0 -59 1 -79q1 -29 6 -46q5 -16 15 -24t30 -12v-10h-217v10z" />
    <glyph glyph-name="Sacute" unicode="&#x15a;" horiz-adv-x="634" 
d="M317 -11l-4 -9q-54 0 -90 9q-32 8 -61 20l-47 20q-21 9 -46 9q-23 0 -30 -22h-12v193h12q6 -47 27 -88q21 -40 56 -69t83 -44t108 -15q95 0 141 39q47 39 47 111q0 33 -11 60q-10 25 -36 46t-66 39q-43 19 -101 38q-53 17 -101 38q-45 20 -78 45t-51 60t-18 81
q0 39 17 78q16 37 50 66q33 29 79 45q48 17 105 17q48 0 77 -7t56 -17l42 -17q17 -7 35 -7q26 0 32 22h12v-155h-12q-19 77 -83 124q-62 46 -159 46q-85 0 -126 -35t-41 -93q0 -23 10 -42q11 -21 34 -38q24 -18 63 -36q38 -17 95 -36q53 -16 108 -38q49 -19 87 -45
q39 -26 59 -61q21 -36 21 -85q0 -57 -23 -105q-22 -46 -62 -78q-39 -31 -90 -48q-49 -16 -108 -16zM212 784l132 100q11 8 26 15q14 6 29 6q20 0 32 -15t12 -31q0 -21 -13 -37q-14 -16 -51 -21l-164 -27z" />
    <glyph glyph-name="sacute" unicode="&#x15b;" horiz-adv-x="424" 
d="M138 526l85 127q17 24 30 36t33 12q21 0 33 -12t12 -32q0 -21 -12 -35t-31 -24l-143 -79zM203 2l-1 -7q30 0 54 8q22 7 36 21t20 30t6 36q0 40 -30 60q-31 20 -103 35q-38 7 -70 18q-31 10 -52 27t-33 40q-12 24 -12 58q0 32 14 60t37 45q25 19 56 29q33 11 69 11
q29 0 48 -4q23 -5 37 -10l30 -10q12 -4 27 -4t18 16h12v-112h-12q-21 55 -60 84q-40 29 -99 29q-52 0 -82 -21t-30 -60q0 -19 9 -33q8 -13 27 -22q18 -9 42 -15q22 -6 56 -12q47 -10 75 -19q33 -10 57 -27q24 -16 36 -41q12 -24 12 -60q0 -35 -15 -65t-40 -52t-61 -34
t-78 -12q-31 0 -54 6q-25 7 -41 12t-31 12q-14 6 -25 6q-17 0 -20 -17h-13v130h12q19 -62 60 -99q40 -37 112 -37z" />
    <glyph glyph-name="Scircumflex" unicode="&#x15c;" horiz-adv-x="634" 
d="M309 918l141 -128l-4 -9l-137 44l-137 -44l-4 9zM317 -11l-4 -9q-54 0 -90 9q-32 8 -61 20l-47 20q-21 9 -46 9q-23 0 -30 -22h-12v193h12q6 -47 27 -88q21 -40 56 -69t83 -44t108 -15q95 0 141 39q47 39 47 111q0 33 -11 60q-10 25 -36 46t-66 39q-43 19 -101 38
q-53 17 -101 38q-45 20 -78 45t-51 60t-18 81q0 39 17 78q16 37 50 66q33 29 79 45q48 17 105 17q48 0 77 -7t56 -17l42 -17q17 -7 35 -7q26 0 32 22h12v-155h-12q-19 77 -83 124q-62 46 -159 46q-85 0 -126 -35t-41 -93q0 -23 10 -42q11 -21 34 -38q24 -18 63 -36
q38 -17 95 -36q53 -16 108 -38q49 -19 87 -45q39 -26 59 -61q21 -36 21 -85q0 -57 -23 -105q-22 -46 -62 -78q-39 -31 -90 -48q-49 -16 -108 -16z" />
    <glyph glyph-name="scircumflex" unicode="&#x15d;" horiz-adv-x="424" 
d="M205 705l125 -182l-9 -6l-116 76l-116 -76l-8 6zM206 3l-1 -7q30 0 54 8q23 8 36 21q14 14 20 30q6 17 6 36q0 41 -30 60q-31 20 -103 35q-38 7 -70 18q-31 10 -52 27t-33 40q-12 24 -12 58q0 32 14 60t37 45q25 19 56 29q33 11 69 11q29 0 48 -4q23 -5 37 -10l30 -10
q12 -4 27 -4t18 16h12v-112h-12q-21 56 -60 84q-40 29 -99 29q-52 0 -82 -21t-30 -60q0 -20 9 -33t27 -22t42 -15q22 -6 56 -12q47 -10 75 -19q33 -11 57 -27t36 -41q12 -24 12 -60q0 -35 -15 -65t-40 -52t-61 -34t-78 -12q-32 0 -54 6q-25 7 -41 12t-31 12q-14 6 -25 6
q-17 0 -20 -17h-13v130h12q20 -61 60 -99q40 -37 112 -37z" />
    <glyph glyph-name="uni015E" unicode="&#x15e;" horiz-adv-x="634" 
d="M293 -2l-30 -46q43 -6 70 -27t27 -49q0 -43 -44 -63q-43 -19 -128 -21l-2 11q47 8 72 19q27 12 27 29t-18 26q-19 10 -50 11l-4 5l32 53l32 52h16zM316 -10l-4 -9q-54 0 -90 9q-32 8 -61 20l-47 20q-21 9 -46 9q-23 0 -30 -22h-12v193h12q6 -47 27 -88q21 -40 56 -69
t83 -44t108 -15q94 0 141 39t47 111q0 33 -11 60q-10 25 -36 46q-25 21 -66 39q-43 19 -101 38q-53 17 -101 38q-45 19 -78 45t-51 60t-18 81q0 39 17 78q16 37 50 66q33 29 79 45q48 17 105 17q48 0 77 -7t56 -17q12 -4 42 -17q17 -7 35 -7q26 0 32 22h12v-155h-12
q-19 77 -83 124q-62 46 -159 46q-85 0 -126 -35t-41 -93q0 -23 10 -42q11 -21 34 -38q24 -18 63 -36q38 -17 95 -36q53 -16 108 -38q50 -20 87 -45q39 -26 59 -61q21 -36 21 -85q0 -57 -23 -105q-22 -46 -62 -78q-39 -32 -90 -48q-49 -16 -108 -16z" />
    <glyph glyph-name="uni015F" unicode="&#x15f;" horiz-adv-x="424" 
d="M204 -2l-29 -47q43 -6 69 -27t26 -48q0 -43 -44 -63q-43 -19 -128 -21l-1 11q46 8 71 19q27 12 27 29t-18 26q-19 10 -50 11l-3 5l64 105h16zM206 3l-1 -7q30 0 54 8q23 8 36 21q14 14 20 30q6 17 6 36q0 41 -30 60q-31 20 -103 35q-38 7 -70 18q-31 10 -52 27t-33 40
q-12 24 -12 58q0 32 14 60t37 45q25 19 56 29q33 11 69 11q29 0 48 -4q23 -5 37 -10l30 -10q12 -4 27 -4t18 16h12v-112h-12q-21 56 -60 84q-40 29 -99 29q-52 0 -82 -21t-30 -60q0 -20 9 -33t27 -22t42 -15q22 -6 56 -12q47 -10 75 -19q33 -11 57 -27t36 -41q12 -24 12 -60
q0 -35 -15 -65t-40 -52t-61 -34t-78 -12q-32 0 -54 6q-25 7 -41 12t-31 12q-14 6 -25 6q-17 0 -20 -17h-13v130h12q20 -61 60 -99q40 -37 112 -37z" />
    <glyph glyph-name="Scaron" unicode="&#x160;" horiz-adv-x="634" 
d="M171 926l137 -45l137 45l4 -9l-141 -128l-141 128zM317 -11l-4 -9q-54 0 -90 9q-32 8 -61 20l-47 20q-21 9 -46 9q-23 0 -30 -22h-12v193h12q6 -47 27 -88q21 -40 56 -69t83 -44t108 -15q95 0 141 39q47 39 47 111q0 33 -11 60q-10 25 -36 46t-66 39q-43 19 -101 38
q-53 17 -101 38q-45 20 -78 45t-51 60t-18 81q0 39 17 78q16 37 50 66q33 29 79 45q48 17 105 17q48 0 77 -7t56 -17l42 -17q17 -7 35 -7q26 0 32 22h12v-155h-12q-19 77 -83 124q-62 46 -159 46q-85 0 -126 -35t-41 -93q0 -23 10 -42q11 -21 34 -38q24 -18 63 -36
q38 -17 95 -36q53 -16 108 -38q49 -19 87 -45q39 -26 59 -61q21 -36 21 -85q0 -57 -23 -105q-22 -46 -62 -78q-39 -31 -90 -48q-49 -16 -108 -16z" />
    <glyph glyph-name="scaron" unicode="&#x161;" horiz-adv-x="424" 
d="M88 715l116 -76l116 76l9 -6l-125 -182l-124 182zM206 3l-1 -7q30 0 54 8q23 8 36 21q14 14 20 30q6 17 6 36q0 41 -30 60q-31 20 -103 35q-38 7 -70 18q-31 10 -52 27t-33 40q-12 24 -12 58q0 32 14 60t37 45q25 19 56 29q33 11 69 11q29 0 48 -4q23 -5 37 -10l30 -10
q12 -4 27 -4t18 16h12v-112h-12q-21 56 -60 84q-40 29 -99 29q-52 0 -82 -21t-30 -60q0 -20 9 -33t27 -22t42 -15q22 -6 56 -12q47 -10 75 -19q33 -11 57 -27t36 -41q12 -24 12 -60q0 -35 -15 -65t-40 -52t-61 -34t-78 -12q-32 0 -54 6q-25 7 -41 12t-31 12q-14 6 -25 6
q-17 0 -20 -17h-13v130h12q20 -61 60 -99q40 -37 112 -37z" />
    <glyph glyph-name="Tcommaaccent" unicode="&#x162;" horiz-adv-x="745" 
d="M402 -125l-5 -2q-3 -5 -12 -13q-8 -7 -27 -7q-21 0 -37 14q-15 13 -15 38t18 40t41 15q26 0 47 -18t21 -58q0 -41 -25 -65q-26 -25 -70 -29l-4 9q40 7 57 26t17 35q0 14 -6 15zM239 8l-2 -2q21 6 33 15t18 36q7 30 8 80q2 70 2 142v454h-36q-55 0 -98 -5q-39 -4 -66 -21
q-26 -16 -43 -48q-15 -29 -28 -86h-15l16 148q1 17 5 21q3 3 14 3h636q11 0 15 -3t6 -21l18 -148h-14q-14 53 -30 84q-17 32 -43 48q-28 17 -66 23q-39 6 -96 6h-39v-454q0 -72 2 -142q2 -55 7 -79q6 -27 18 -36t33 -15v-10h-255v10z" />
    <glyph glyph-name="tcommaaccent" unicode="&#x163;" horiz-adv-x="315" 
d="M211 -125l-5 -2q-3 -5 -12 -13q-8 -7 -27 -7q-21 0 -37 14q-15 13 -15 38t18 40t41 15q26 0 47 -18t21 -58q0 -41 -25 -65q-26 -25 -70 -29l-4 9q40 7 57 26t17 35q0 14 -6 15zM193 -12l-1 -2q-68 0 -99 33q-31 32 -31 79v355h-41v12q22 3 44 15t42 35q19 23 36 54
q16 30 25 72h11v-173h107v-14h-107v-338q0 -56 9 -81t45 -25q18 0 32 8q13 8 24 18l8 -8q-3 -4 -12 -13q-6 -6 -20 -13q-10 -5 -30 -10q-16 -4 -42 -4z" />
    <glyph glyph-name="Tcaron" unicode="&#x164;" horiz-adv-x="745" 
d="M237 926l137 -45l137 45l4 -9l-141 -128l-141 128zM244 10l-2 -2q21 6 33 15t18 36q7 30 8 80q2 70 2 142v454h-36q-55 0 -98 -5q-39 -4 -66 -21q-26 -16 -43 -48q-15 -29 -28 -86h-15l16 148q1 17 5 21q3 3 14 3h636q10 0 15 -3t6 -21l18 -148h-14q-13 53 -30 84
q-17 32 -43 48q-28 17 -66 23q-39 6 -96 6h-39v-454q0 -72 2 -142q2 -55 7 -79q6 -27 18 -36t33 -15v-10h-255v10z" />
    <glyph glyph-name="tcaron" unicode="&#x165;" horiz-adv-x="315" 
d="M227 528l8 138q2 40 12 56q11 17 33 17q40 0 40 -43q0 -12 -4 -23q-5 -13 -12 -23l-68 -124zM200 -11l-1 -2q-67 0 -99 33q-31 32 -31 79v355h-41v12q22 3 44 15t42 35q20 22 36 54q16 30 25 72h11v-173h107v-14h-107v-338q0 -55 9 -81q9 -25 45 -25q18 0 32 8
q14 7 24 18l8 -8q-3 -4 -12 -13q-6 -6 -20 -13q-10 -5 -30 -10q-16 -4 -42 -4z" />
    <glyph glyph-name="Tbar" unicode="&#x166;" horiz-adv-x="745" 
d="M151 428h442v-12h-442v12zM244 10l-2 -2q21 6 33 15t18 36q7 30 8 80q2 70 2 142v454h-36q-55 0 -98 -5q-39 -4 -66 -21q-26 -16 -43 -48q-15 -29 -28 -86h-15l16 148q1 17 5 21q3 3 14 3h636q10 0 15 -3t6 -21l18 -148h-14q-13 53 -30 84q-17 32 -43 48q-28 17 -66 23
q-39 6 -96 6h-39v-454q0 -72 2 -142q2 -55 7 -79q6 -27 18 -36t33 -15v-10h-255v10z" />
    <glyph glyph-name="tbar" unicode="&#x167;" horiz-adv-x="315" 
d="M28 312h260v-13h-260v13zM198 -10l-1 -2q-67 0 -99 33q-31 32 -31 79v355h-41v12q22 3 44 15t42 35t36 54q16 30 25 72h11v-173h107v-14h-107v-338q0 -56 9 -81t45 -25q18 0 32 8t24 18l8 -8q-3 -4 -12 -13q-6 -6 -20 -13q-10 -5 -30 -10q-16 -4 -42 -4z" />
    <glyph glyph-name="Utilde" unicode="&#x168;" horiz-adv-x="780" 
d="M413 -13l-5 -5q-80 0 -141 19q-63 19 -108 57q-45 37 -69 95q-24 57 -24 133v177q0 107 -1 142q-2 56 -7 80q-6 28 -16 36q-10 9 -30 15v9h250v-9q-21 -6 -33 -15t-18 -36q-5 -24 -7 -79q-1 -35 -1 -142v-207q0 -68 7 -113q8 -48 30 -81q22 -32 63 -49q39 -16 106 -16
q63 0 116 14q50 13 87 47q35 32 55 87q19 53 19 133v192q0 102 -1 135q-1 46 -8 76q-6 26 -20 39q-13 12 -38 21v9h142v-9q-21 -9 -33 -21t-18 -39q-5 -24 -7 -76q-1 -33 -1 -135v-192q0 -80 -20 -137q-20 -56 -57 -90q-38 -35 -91 -50q-54 -15 -121 -15zM388 883l-2 2
q21 0 33 -1l36 -3q18 -1 33 -3q10 -1 26 -1t32 9t33 35l8 -3q-11 -52 -33 -83q-23 -32 -52 -32q-28 0 -64 3t-61 3q-13 0 -29 -8q-14 -7 -31 -35l-9 3q15 60 36 87t44 27z" />
    <glyph glyph-name="utilde" unicode="&#x169;" horiz-adv-x="555" 
d="M195 -8l-2 -2q-24 0 -48 6q-23 6 -43 21q-18 14 -31 41q-12 26 -12 66v136q0 52 -1 68q-2 24 -6 36t-14 15q-9 3 -27 6v11l166 86v-386q0 -43 17 -62q16 -18 42 -18t58 23t72 60l11 11v150q0 52 -1 68q-2 24 -6 36t-14 15q-9 3 -27 6v11l166 86v-312v-79q0 -28 5 -46
q4 -17 15 -24q11 -8 28 -12v-10h-166v96l-11 -11l-36 -33q-18 -17 -39 -30t-45 -21q-26 -8 -51 -8zM247 644l-2 -1q33 0 63 -6t56 -6q14 0 26 9t29 35l9 -5q-12 -47 -31 -79q-19 -33 -48 -33q-30 0 -58 6t-58 6q-12 0 -25 -8q-12 -8 -30 -33l-9 5q18 52 36 81t42 29z" />
    <glyph glyph-name="Umacron" unicode="&#x16a;" horiz-adv-x="780" 
d="M413 -13l-5 -5q-80 0 -141 19q-63 19 -108 57q-45 37 -69 95q-24 57 -24 133v177q0 107 -1 142q-2 56 -7 80q-6 28 -16 36q-10 9 -30 15v9h250v-9q-21 -6 -33 -15t-18 -36q-5 -24 -7 -79q-1 -35 -1 -142v-207q0 -68 7 -113q8 -48 30 -81q22 -32 63 -49q39 -16 106 -16
q63 0 116 14q50 13 87 47q35 32 55 87q19 53 19 133v192q0 102 -1 135q-1 46 -8 76q-6 26 -20 39q-13 12 -38 21v9h142v-9q-21 -9 -33 -21t-18 -39q-5 -24 -7 -76q-1 -33 -1 -135v-192q0 -80 -20 -137q-20 -56 -57 -90q-38 -35 -91 -50q-54 -15 -121 -15zM559 801h-241v51
h241v-51z" />
    <glyph glyph-name="umacron" unicode="&#x16b;" horiz-adv-x="555" 
d="M195 -8l-2 -2q-24 0 -48 6q-23 6 -43 21q-18 14 -31 41q-12 26 -12 66v136q0 52 -1 68q-2 24 -6 36t-14 15q-9 3 -27 6v11l166 86v-386q0 -43 17 -62q16 -18 42 -18t58 23t72 60l11 11v150q0 52 -1 68q-2 24 -6 36t-14 15q-9 3 -27 6v11l166 86v-312v-79q0 -28 5 -46
q4 -17 15 -24q11 -8 28 -12v-10h-166v96l-11 -11l-36 -33q-18 -17 -39 -30t-45 -21q-26 -8 -51 -8zM407 613v-49h-226v49h226z" />
    <glyph glyph-name="Ubreve" unicode="&#x16c;" horiz-adv-x="780" 
d="M413 -13l-5 -5q-80 0 -141 19q-63 19 -108 57q-45 37 -69 95q-24 57 -24 133v177q0 107 -1 142q-2 56 -7 80q-6 28 -16 36q-10 9 -30 15v9h250v-9q-21 -6 -33 -15t-18 -36q-5 -24 -7 -79q-1 -35 -1 -142v-207q0 -68 7 -113q8 -48 30 -81q22 -32 63 -49q39 -16 106 -16
q63 0 116 14q50 13 87 47q35 32 55 87q19 53 19 133v192q0 102 -1 135q-1 46 -8 76q-6 26 -20 39q-13 12 -38 21v9h142v-9q-21 -9 -33 -21t-18 -39q-5 -24 -7 -76q-1 -33 -1 -135v-192q0 -80 -20 -137q-20 -56 -57 -90q-38 -35 -91 -50q-54 -15 -121 -15zM439 855l2 2
q44 0 67 14q22 13 34 39h13q-1 -26 -9 -48q-7 -22 -21 -40q-13 -17 -35 -28q-20 -10 -49 -10q-30 0 -50 10q-22 11 -35 27q-14 17 -21 39t-9 50h12q10 -25 33 -40t68 -15z" />
    <glyph glyph-name="ubreve" unicode="&#x16d;" horiz-adv-x="555" 
d="M195 -8l-2 -2q-24 0 -48 6q-23 6 -43 21q-18 14 -31 41q-12 26 -12 66v136q0 52 -1 68q-2 24 -6 36t-14 15q-9 3 -27 6v11l166 86v-386q0 -43 17 -62q16 -18 42 -18t58 23t72 60l11 11v150q0 52 -1 68q-2 24 -6 36t-14 15q-9 3 -27 6v11l166 86v-312v-79q0 -28 5 -46
q4 -17 15 -24q11 -8 28 -12v-10h-166v96l-11 -11l-36 -33q-18 -17 -39 -30t-45 -21q-26 -8 -51 -8zM294 601l4 -1q43 0 63 19q21 19 30 45h12q0 -24 -6 -48q-6 -25 -19 -42q-14 -18 -34 -30q-21 -12 -48 -12q-28 0 -49 12q-20 12 -34 30q-13 17 -19 42q-6 24 -6 50h12
q7 -25 29 -45t65 -20z" />
    <glyph glyph-name="Uring" unicode="&#x16e;" horiz-adv-x="780" 
d="M413 -13l-5 -5q-80 0 -141 19q-63 19 -108 57q-45 37 -69 95q-24 57 -24 133v177q0 107 -1 142q-2 56 -7 80q-6 28 -16 36q-10 9 -30 15v9h250v-9q-21 -6 -33 -15t-18 -36q-5 -24 -7 -79q-1 -35 -1 -142v-207q0 -68 7 -113q8 -48 30 -81q22 -32 63 -49q39 -16 106 -16
q63 0 116 14q50 13 87 47q35 32 55 87q19 53 19 133v192q0 102 -1 135q-1 46 -8 76q-6 26 -20 39q-13 12 -38 21v9h142v-9q-21 -9 -33 -21t-18 -39q-5 -24 -7 -76q-1 -33 -1 -135v-192q0 -80 -20 -137q-20 -56 -57 -90q-38 -35 -91 -50q-54 -15 -121 -15zM359 824h-3
q0 35 25 57t63 22q39 0 62 -22q24 -23 24 -57q0 -36 -24 -58q-23 -22 -61 -22t-62 21t-24 59zM399 824v-1q0 -68 44 -68t44 68q0 32 -12 50t-32 18q-44 0 -44 -67z" />
    <glyph glyph-name="uring" unicode="&#x16f;" horiz-adv-x="555" 
d="M211 610h-4q0 35 25 57t63 22t63 -22t25 -57q0 -36 -24 -58q-23 -22 -62 -22q-38 0 -62 21t-24 59zM250 610q0 -68 44 -68t44 68q0 67 -44 67t-44 -67zM191 -8l-2 -2q-24 0 -48 6q-23 6 -43 21q-18 14 -31 41q-12 26 -12 66v136q0 52 -1 68q-2 24 -6 36t-14 15
q-9 3 -27 6v11l166 86v-386q0 -43 17 -62q16 -18 42 -18t58 23t72 60l11 11v150q0 52 -1 68q-2 24 -6 36t-14 15q-9 3 -27 6v11l166 86v-312v-79q0 -28 5 -46q4 -17 15 -24q11 -8 28 -12v-10h-166v96l-11 -11l-36 -33q-18 -17 -39 -30t-45 -21q-26 -8 -51 -8z" />
    <glyph glyph-name="Uhungarumlaut" unicode="&#x170;" horiz-adv-x="780" 
d="M488 810l61 79q14 19 29 36q12 14 32 14t29 -13q9 -14 9 -24q0 -16 -12 -27q-13 -11 -31 -21l-111 -52zM337 808l59 79q14 19 29 36q12 14 32 14t29 -13q9 -14 9 -24q0 -16 -11 -27q-10 -11 -30 -21l-110 -52zM411 -17l-5 -5q-80 0 -141 19q-63 19 -108 57q-45 37 -69 95
q-24 57 -24 133v177q0 107 -1 142q-2 56 -7 80q-6 28 -16 36q-10 9 -30 15v9h250v-9q-21 -6 -33 -15t-18 -36q-5 -24 -7 -79q-1 -35 -1 -142v-207q0 -68 7 -113q8 -48 30 -81q22 -32 63 -49q39 -16 106 -16q63 0 116 14q50 13 87 47q35 32 55 87q19 53 19 133v192
q0 102 -1 135q-1 46 -8 76q-6 26 -20 39q-13 12 -38 21v9h142v-9q-21 -9 -33 -21t-18 -39q-5 -24 -7 -76q-1 -33 -1 -135v-192q0 -80 -20 -137q-20 -56 -57 -90q-38 -35 -91 -50q-54 -15 -121 -15z" />
    <glyph glyph-name="uhungarumlaut" unicode="&#x171;" horiz-adv-x="555" 
d="M195 -8l-2 -2q-24 0 -48 6q-23 6 -43 21q-18 14 -31 41q-12 26 -12 66v136q0 52 -1 68q-2 24 -6 36t-14 15q-9 3 -27 6v11l166 86v-386q0 -43 17 -62q16 -18 42 -18t58 23t72 60l11 11v150q0 52 -1 68q-2 24 -6 36t-14 15q-9 3 -27 6v11l166 86v-312v-79q0 -28 5 -46
q4 -17 15 -24q11 -8 28 -12v-10h-166v96l-11 -11l-36 -33q-18 -17 -39 -30t-45 -21q-26 -8 -51 -8zM335 538l35 135q6 26 16 40q10 15 33 15q20 0 29 -12t9 -30q0 -22 -21 -45l-93 -106zM199 538l34 135q7 23 17 40q9 15 32 15q20 0 29 -12t9 -30q0 -22 -21 -45l-93 -106z
" />
    <glyph glyph-name="Uogonek" unicode="&#x172;" horiz-adv-x="780" 
d="M446 -172l-6 -10q-40 0 -69 18t-29 48q0 19 11 36q10 15 29 28q18 12 42 21q23 9 50 15q-12 -2 -38 -4q-12 -1 -30 -1q-80 0 -141 19q-63 20 -108 57t-69 95q-24 57 -24 133v177q0 107 -1 142q-2 56 -7 80q-6 28 -16 36q-10 9 -30 15v9h250v-9q-21 -6 -33 -15t-18 -36
q-5 -24 -7 -79q-1 -35 -1 -142v-207q0 -68 7 -113q8 -48 30 -81q22 -32 63 -49q39 -16 106 -16q63 0 116 14q50 13 87 47q35 32 55 87q19 53 19 133v192q0 102 -1 135q-1 46 -8 76q-6 26 -20 39q-13 12 -38 21v9h142v-9q-21 -9 -33 -21t-18 -39q-5 -24 -7 -76
q-1 -33 -1 -135v-192q0 -58 -11 -105q-11 -45 -30 -78t-48 -54q-27 -20 -63 -34q-20 -7 -40 -15q-18 -8 -30 -18q-12 -11 -18 -25q-6 -15 -6 -37t12 -37t34 -15q11 0 18 4q8 4 15 12l6 -8l-10 -10q-5 -5 -17 -12t-27 -11q-18 -5 -39 -5z" />
    <glyph glyph-name="uogonek" unicode="&#x173;" horiz-adv-x="555" 
d="M195 -8l-7 -4q-24 0 -48 6q-23 6 -43 21q-18 14 -31 41q-12 26 -12 66v136q0 52 -1 68q-1 24 -6 36q-4 12 -14 15q-9 3 -27 6v11l166 86v-386q0 -43 17 -62q17 -18 42 -18q26 0 58 23q31 23 72 60l11 11v150q0 52 -1 68q-1 24 -6 36q-4 12 -14 15q-9 3 -27 6v11l166 86
v-312v-79q0 -28 5 -46q5 -17 15 -24q11 -8 28 -12v-10h-150q-13 -17 -23 -33q-12 -20 -12 -54q0 -24 12 -38t33 -14q19 0 34 15l6 -8l-10 -10q-5 -5 -17 -12t-27 -11q-18 -5 -39 -5q-40 0 -69 17q-28 16 -28 50q0 23 15 41q14 17 36 31q21 14 42 21l36 12v96l-11 -11
l-36 -33q-18 -17 -39 -30t-45 -21q-26 -8 -51 -8z" />
    <glyph glyph-name="Wcircumflex" unicode="&#x174;" horiz-adv-x="1061" 
d="M571 918l141 -128l-4 -9l-137 44l-137 -44l-4 9zM95 623l-4 -4l-18 47q-7 20 -15 33q-8 14 -18 23q-11 9 -25 15v10h221v-10q-10 -3 -18 -9t-9 -16q-1 -9 2 -27q3 -14 14 -42l202 -497l98 243l-95 232q-14 37 -19 47q-9 20 -18 33q-10 15 -18 23q-10 10 -21 14v10h216
v-10q-11 -3 -19 -9t-9 -16t3 -28q5 -18 15 -45l50 -123l44 104q20 51 20 78q0 28 -35 39v10h113v-10q-14 -5 -21 -10q-9 -6 -18 -18q-7 -10 -19 -33l-25 -55l-51 -121l145 -358l186 478q8 20 13 42q5 20 2 34q-3 15 -13 25q-11 11 -33 17v10h127v-10q-14 -5 -21 -10
q-9 -6 -18 -18q-8 -10 -19 -33t-24 -55l-245 -629h-28l-156 379l-154 -379h-29z" />
    <glyph glyph-name="wcircumflex" unicode="&#x175;" horiz-adv-x="736" 
d="M364 705l125 -182l-9 -6l-116 76l-116 -76l-8 6zM71 355l-9 -3q-19 47 -22 53q-10 21 -16 30q-8 11 -13 15q-7 5 -14 8v10h186v-10q-11 -2 -17 -6t-6 -15t6 -30t18 -51l98 -243l76 163l-30 77q-20 47 -22 51q-10 21 -16 30q-8 10 -15 15q-10 6 -16 8v10h188v-10
q-11 -2 -17 -6t-7 -16q-1 -11 5 -30q6 -18 18 -48l94 -239l91 217q15 37 21 60t3 36q-3 14 -14 20q-12 7 -27 8v10h116v-10q-9 -3 -18 -8q-8 -5 -17 -17q-10 -13 -20 -35q-11 -23 -27 -63l-144 -342h-28l-106 268l-126 -268h-27z" />
    <glyph glyph-name="Ycircumflex" unicode="&#x176;" horiz-adv-x="735" 
d="M243 10l-2 -4q21 6 33 15t18 36q5 24 7 80q2 70 2 142v70l-186 285q-28 41 -46 63q-21 25 -56 39v9h253v-9q-24 -8 -30 -28t23 -66l170 -262l158 239q37 55 38 80q1 13 -9 22.5t-30 15.5v9h133v-9q-14 -6 -22 -10q-11 -5 -25 -18q-14 -12 -30 -33t-39 -54l-167 -252v-88
q0 -72 2 -142q1 -49 8 -79q6 -27 18 -36t33 -15v-10h-254v10zM428 914l141 -128l-4 -9l-137 44l-137 -44l-4 9z" />
    <glyph glyph-name="ycircumflex" unicode="&#x177;" horiz-adv-x="507" 
d="M120 -169l1 -6q-29 0 -42 12q-14 12 -14 32q0 19 11 30q10 10 26 10q12 0 24 -5q9 -4 18 -11q10 -8 15 -11q8 -5 17 -5q8 0 15 3q6 2 16 14t20 30q12 22 24 49l3 6l-179 374l-24 51q-8 18 -17 30q-8 10 -15 15q-6 4 -16 7v10h201v-10q-10 -2 -18 -6t-9 -15q-2 -11 3 -29
q5 -19 18 -47l117 -243l98 219q16 39 21 62q4 23 0 36q-5 14 -16 18q-15 6 -27 8v10h116v-10q-11 -1 -18 -6q-6 -4 -16 -17q-9 -12 -21 -36l-30 -63l-160 -358q-16 -37 -35 -69q-16 -27 -33 -46q-15 -17 -35 -25q-19 -8 -39 -8zM290 699l125 -182l-9 -6l-116 76l-116 -76
l-8 6z" />
    <glyph glyph-name="Ydieresis" unicode="&#x178;" horiz-adv-x="735" 
d="M243 10l-2 -4q21 6 33 15t18 36q5 24 7 80q2 70 2 142v70l-186 285q-28 41 -46 63q-21 25 -56 39v9h253v-9q-24 -8 -30 -28t23 -66l170 -262l158 239q37 55 38 80q1 13 -9 22.5t-30 15.5v9h133v-9q-14 -6 -22 -10q-11 -5 -25 -18q-14 -12 -30 -33t-39 -54l-167 -252v-88
q0 -72 2 -142q1 -49 8 -79q6 -27 18 -36t33 -15v-10h-254v10zM527 787l-1 -1q-26 0 -44 18t-18 47q0 25 18 43t44 18t44 -18t18 -43q0 -28 -18 -46t-43 -18zM329 786v-1q-26 0 -44 18t-18 47q0 25 18 43t44 18t44 -18t18 -43q0 -28 -18 -46t-44 -18z" />
    <glyph glyph-name="Zacute" unicode="&#x179;" horiz-adv-x="723" 
d="M263 793l132 100q11 8 26 15q13 6 29 6q20 0 32 -15t12 -31q0 -21 -13 -37q-13 -17 -51 -21l-164 -27zM507 739l-205 -2q-57 0 -100 -8q-40 -7 -67 -24q-28 -17 -45 -40q-19 -25 -33 -55h-12l27 140h599l-489 -738h257q64 0 107 8q40 7 66 26q26 18 42 48q17 31 33 76h11
l-22 -169h-650z" />
    <glyph glyph-name="zacute" unicode="&#x17a;" horiz-adv-x="469" 
d="M179 526l85 127q16 24 30 36t33 12q21 0 33 -12t12 -32q0 -21 -12 -35t-31 -24l-143 -79zM425 -12l-1 -4q-10 4 -16 6q-7 2 -24 4q-20 2 -39 2h-60h-279l306 458h-93q-53 0 -84 -6t-51 -20t-30 -33t-21 -45h-11l24 129q9 -3 21 -6q9 -2 27 -4q10 -1 38 -1h54h263
l-310 -459h107q55 0 84 7q32 8 51 22q20 15 30 37l24 54h11z" />
    <glyph glyph-name="Zdotaccent" unicode="&#x17b;" horiz-adv-x="723" 
d="M508 738l-205 -2q-57 0 -100 -8q-40 -7 -67 -24q-28 -17 -45 -40q-19 -25 -33 -55h-12l27 140h599l-489 -738h257q64 0 107 8q40 7 66 26q25 18 42 48q17 31 33 76h11l-22 -169h-650zM359 787v-2q-28 0 -48 20q-19 19 -19 48q0 27 19 46t48 19t48 -18t19 -45
q0 -29 -19 -48q-20 -20 -48 -20z" />
    <glyph glyph-name="zdotaccent" unicode="&#x17c;" horiz-adv-x="469" 
d="M428 -11l-1 -4q-10 4 -16 6q-7 2 -24 4q-20 2 -39 2h-60h-279l306 458h-93q-52 0 -84 -6q-31 -6 -51 -20q-19 -13 -30 -33t-21 -45h-11l24 129q9 -3 21 -6q9 -2 27 -4q10 -1 38 -1h54h263l-310 -459h107q55 0 84 7q32 8 51 22q20 15 30 37l24 54h11zM249 534v-2
q-29 0 -48 19t-19 46q0 28 19 47q20 20 48 20q29 0 48 -19t19 -46t-19 -46t-48 -19z" />
    <glyph glyph-name="Zcaron" unicode="&#x17d;" horiz-adv-x="723" 
d="M219 926l137 -45l137 45l4 -9l-141 -128l-141 128zM508 738l-205 -2q-57 0 -100 -8q-40 -7 -67 -24q-28 -17 -45 -40q-19 -25 -33 -55h-12l27 140h599l-489 -738h257q64 0 107 8q40 7 66 26q25 18 42 48q17 31 33 76h11l-22 -169h-650z" />
    <glyph glyph-name="zcaron" unicode="&#x17e;" horiz-adv-x="469" 
d="M132 715l116 -76l116 76l9 -6l-125 -182l-124 182zM428 -11l-1 -4q-10 4 -16 6q-7 2 -24 4q-20 2 -39 2h-60h-279l306 458h-93q-52 0 -84 -6q-31 -6 -51 -20q-19 -13 -30 -33t-21 -45h-11l24 129q9 -3 21 -6q9 -2 27 -4q10 -1 38 -1h54h263l-310 -459h107q55 0 84 7
q32 8 51 22q20 15 30 37l24 54h11z" />
    <glyph glyph-name="uni0192" unicode="&#x192;" horiz-adv-x="454" 
d="M88 470l76 -3l18 101q10 53 30 91q19 37 44 60q24 22 53 33q27 10 57 10q48 0 77 -16q30 -16 30 -49q0 -12 -9 -24t-32 -12q-24 0 -33 11q-8 10 -13 33q-5 29 -9 38q-5 9 -18 9q-11 0 -18 -6q-8 -6 -14 -20q-6 -13 -12 -38t-12 -58l-27 -161h99v-14h-102l-54 -318
q-23 -137 -73 -196q-51 -60 -121 -60q-24 0 -43 4q-20 4 -37 12q-16 7 -27 20q-10 11 -10 29q0 14 9 26t32 12q24 0 33 -12q10 -13 14 -35q5 -26 12 -35q8 -9 24 -9q14 0 23 10q8 9 16 38q6 21 16 77l23 129l56 309h-78v14z" />
    <glyph glyph-name="Aringacute" unicode="&#x1fa;" horiz-adv-x="808" 
d="M15 9l1 1q13 5 23 12t22 22q10 13 25 39q12 22 30 62l221 511l-10 24q-15 37 -30 47t-35 15v9h160q8 0 11 -3q4 -4 8 -14l266 -605q21 -48 39 -78q18 -29 48 -40v-11h-241v11q32 8 38 27t-14 66l-57 130h-352l-39 -91q-10 -21 -16 -43q-6 -21 -3 -39q3 -17 15 -31t37 -21
v-9h-147v9zM515 247l-172 392l-169 -392h341zM266 968l132 100q11 8 26 15q14 6 29 6q20 0 32 -15t12 -31q0 -21 -13 -37q-14 -16 -51 -21l-164 -27zM274 864h-3q0 35 25 57t63 22q39 0 62 -22q24 -23 24 -57q0 -36 -24 -58q-23 -22 -61 -22t-62 21t-24 59zM314 864v-1
q0 -68 44 -68t44 68q0 32 -12 50t-32 18q-44 0 -44 -67z" />
    <glyph glyph-name="aringacute" unicode="&#x1fb;" horiz-adv-x="484" 
d="M162 -9l-10 -2q-64 0 -102 30t-38 80q0 26 11 45q10 17 32 33q23 16 51 29l71 30l50 21q35 15 54 32q18 17 18 39v66q0 20 -7 33q-8 14 -19 21q-14 8 -25 11q-14 3 -29 3q-17 0 -29 -3q-13 -3 -20 -10q-10 -10 -14 -16q-6 -9 -12 -21q-12 -20 -22 -33q-12 -15 -36 -15
q-20 0 -32 12t-12 29q0 16 14 30t38 23q26 10 57 14q37 5 72 5q28 0 66 -5q36 -5 63 -19q29 -15 48 -40t19 -66v-234q0 -25 2 -51q1 -20 6 -30q5 -11 12 -14t18 -3q6 0 14 2q4 1 12 5l3 -9q-8 -5 -24 -12q-15 -7 -48 -7q-52 0 -76 18t-30 51l-18 -16q-22 -22 -53 -39
t-75 -17zM129 117l-2 -3q0 -47 17 -75q16 -27 51 -27q23 0 45 15t39 30l17 16v214q-8 -11 -24 -21q-18 -11 -46 -24l-25 -11q-42 -17 -57 -42t-15 -72zM136 605h-4q0 35 25 57t63 22t63 -22t25 -57t-24 -58q-23 -22 -62 -22q-38 0 -62 21t-24 59zM175 605q0 -68 44 -68
t44 68q0 67 -44 67t-44 -67zM124 715l132 100q11 8 26 15q13 6 29 6q20 0 32 -15t12 -31q0 -21 -13 -37q-14 -17 -51 -21l-164 -27z" />
    <glyph glyph-name="AEacute" unicode="&#x1fc;" horiz-adv-x="1114" 
d="M695 793l132 100q11 8 26 15q13 6 29 6q20 0 32 -15t12 -31q0 -21 -13 -37q-13 -17 -51 -21l-164 -27zM1023 751l-4 -7q9 0 14 -3t9 -21l19 -110h-12q-15 37 -32 62q-17 24 -44 38t-70 18q-48 5 -111 5h-129v-315h61q48 0 72 7q26 8 39 19q13 12 18 29q3 11 9 35h11v-190
h-11q-6 24 -9 35q-5 17 -18 29q-13 11 -39 19q-24 7 -72 7h-61v-399h150q74 0 113 4q44 5 71 18q27 14 44 41q18 29 32 72h12l-13 -123q-2 -17 -6 -20t-15 -3h-579v10q20 6 32 15t18 32q7 25 8 66q2 58 2 119h-315l-76 -115q-13 -18 -22 -37q-8 -17 -10 -33q-1 -14 8 -27
q9 -12 31 -19v-9h-133v9q7 3 21 11q11 6 23 20q20 22 29 34q14 18 37 54l364 550q23 35 12 47q-11 13 -42 17v9h564zM525 248v463l-307 -463h307z" />
    <glyph glyph-name="aeacute" unicode="&#x1fd;" horiz-adv-x="778" 
d="M356 526l85 127q17 24 30 36t33 12q21 0 33 -12t12 -32q0 -21 -12 -35t-31 -24l-143 -79zM161 -10l-2 -5q-66 0 -105 30t-39 80q0 26 11 45q10 17 32 33q19 14 51 28l71 30l50 20q35 15 54 32q18 17 18 39v69q0 20 -7 33q-8 14 -19 21q-14 8 -25 11q-14 3 -29 3
q-17 0 -29 -3q-13 -3 -20 -10q-10 -10 -14 -16q-6 -9 -12 -21q-12 -20 -22 -33q-12 -15 -36 -15q-20 0 -32 12t-12 29q0 16 14 30t38 23q26 10 57 14q37 5 72 5q24 0 48 -3q26 -3 45 -10q23 -8 39 -19q18 -12 30 -30q38 32 80 47t77 15q51 0 87 -13q39 -14 63 -34
q26 -22 41 -48q16 -28 17 -55h-321q-4 -20 -6 -42q-1 -15 -1 -48q0 -50 12 -90q12 -42 34 -69q22 -28 56 -45q32 -16 77 -16q46 0 77 14q29 13 54 35l9 -8q-28 -25 -71 -46q-39 -19 -108 -19q-31 0 -63 6q-33 6 -60 19q-28 13 -54 33t-45 48l-45 -41q-28 -26 -61 -46
q-32 -19 -76 -19zM544 461l-1 -1q-37 0 -67 -30q-29 -29 -43 -96h209q-3 27 -9 51q-7 26 -16 41q-11 18 -28 26q-18 9 -45 9zM133 113l-3 -3q0 -47 18 -74t52 -27q24 0 47 16q26 18 47 36l39 36q-15 25 -24 59q-9 33 -9 73v52q-8 -11 -24 -21q-18 -11 -46 -24l-25 -10
q-42 -18 -57 -42t-15 -71z" />
    <glyph glyph-name="Oslashacute" unicode="&#x1fe;" horiz-adv-x="865" 
d="M432 -15q-52 0 -102 15q-47 14 -94 41l-58 -100l-12 7l59 100q-41 26 -75 60t-60 77q-26 42 -39 90q-13 46 -13 101q0 80 33 150t87 123q55 53 125 83q71 30 147 30q49 0 95 -12t89 -35l54 92l12 -6l-54 -93q44 -26 81 -60q36 -33 64 -78q27 -44 42 -93t15 -102
q0 -81 -33 -153t-88 -124q-57 -54 -127 -83q-72 -30 -148 -30zM186 376h-2q0 -97 18 -166t49 -115l339 580q-35 39 -76 57q-42 18 -84 18q-44 0 -89 -20q-43 -19 -78 -65t-56 -116q-21 -71 -21 -173zM430 -3l-2 1q49 0 94 21q44 21 79 66q34 44 55 117q21 72 21 174t-21 173
q-21 70 -56 116l-340 -581q34 -45 78 -66t92 -21zM341 794l132 100q11 8 26 15q13 6 29 6q20 0 32 -15t12 -31q0 -21 -13 -37t-51 -21l-164 -27z" />
    <glyph glyph-name="oslashacute" unicode="&#x1ff;" horiz-adv-x="563" 
d="M380 409l-4 1q-18 32 -44 47t-54 15q-29 0 -52 -13q-24 -13 -42 -42q-17 -28 -28 -73q-10 -43 -10 -109q0 -53 8 -96q8 -41 21 -69zM105 -64l-12 1l50 82q-25 13 -48 33t-39 45t-27 59q-10 31 -10 72q0 64 26 111t65 77t84 45t83 15q31 0 60 -7q31 -7 63 -24l45 75l11 -7
l-45 -74q24 -14 48 -35q23 -20 39 -45t27 -57q10 -30 10 -69q0 -64 -26 -111q-25 -45 -65 -76q-38 -29 -84 -43q-47 -14 -83 -14q-29 0 -58 7q-31 8 -63 24zM383 390l-205 -340q17 -30 44 -43q26 -12 54 -12q29 0 53 12t42 39q19 28 29 72q11 47 11 111q0 57 -7 93
q-8 40 -21 68zM223 519l85 127q16 24 30 36t33 12q21 0 33 -12t12 -32q0 -22 -12 -35q-12 -14 -31 -24l-143 -79z" />
    <glyph glyph-name="uni0218" unicode="&#x218;" horiz-adv-x="634" 
d="M327 -125l-5 -2q-3 -5 -12 -13q-8 -7 -27 -7q-21 0 -37 14q-15 13 -15 38t18 40t41 15q26 0 47 -18t21 -58q0 -41 -25 -65q-26 -25 -70 -29l-4 9q40 7 57 26t17 35q0 14 -6 15zM312 -13l-4 -9q-54 0 -90 9q-32 8 -61 20l-47 20q-21 9 -46 9q-23 0 -30 -22h-12v193h12
q6 -47 27 -88q21 -40 56 -69t83 -44t108 -15q94 0 141 39t47 111q0 33 -11 60q-10 25 -36 46q-25 21 -66 39q-43 19 -101 38q-53 17 -101 38q-45 20 -78 45t-51 60t-18 81q0 39 17 78q16 37 50 66q33 29 79 45q48 17 105 17q48 0 77 -7t56 -17q12 -4 42 -17q17 -7 35 -7
q26 0 32 22h12v-155h-12q-19 77 -83 124q-62 46 -159 46q-85 0 -126 -35t-41 -93q0 -23 10 -42q11 -21 34 -38q24 -18 63 -36q38 -17 95 -36q53 -16 108 -38q50 -19 87 -45q39 -26 59 -61q21 -36 21 -85q0 -57 -23 -105q-22 -46 -62 -78q-39 -31 -90 -48q-49 -16 -108 -16z
" />
    <glyph glyph-name="uni0219" unicode="&#x219;" horiz-adv-x="424" 
d="M226 -125l-5 -2q-3 -5 -12 -13q-8 -7 -27 -7q-21 0 -37 14q-15 13 -15 38t18 40t41 15q26 0 47 -18t21 -58q0 -41 -25 -65q-26 -25 -70 -29l-4 9q40 7 57 26t17 35q0 14 -6 15zM201 1l-1 -7q30 0 54 8q22 8 36 21q14 14 20 30q6 17 6 36q0 41 -30 60q-31 20 -103 35
q-38 7 -70 18q-31 10 -52 27t-33 40q-12 24 -12 58q0 32 14 60t37 45q25 19 56 29q33 11 69 11q29 0 48 -4q23 -5 37 -10l30 -10q12 -4 27 -4t18 16h12v-112h-12q-21 56 -60 84q-40 29 -99 29q-52 0 -82 -21t-30 -60q0 -20 9 -33q8 -13 27 -22q18 -9 42 -15q22 -6 56 -12
q47 -10 75 -19q33 -11 57 -27t36 -41q12 -24 12 -60q0 -35 -15 -65t-40 -52t-61 -34t-78 -12q-31 0 -54 6q-25 7 -41 12t-31 12q-14 6 -25 6q-17 0 -20 -17h-13v130h12q19 -61 60 -99q40 -37 112 -37z" />
    <glyph glyph-name="uni021A" unicode="&#x21a;" horiz-adv-x="745" 
d="M402 -125l-5 -2q-3 -5 -12 -13q-8 -7 -27 -7q-21 0 -37 14q-15 13 -15 38t18 40t41 15q26 0 47 -18t21 -58q0 -41 -25 -65q-26 -25 -70 -29l-4 9q40 7 57 26t17 35q0 14 -6 15zM239 8l-2 -2q21 6 33 15t18 36q7 30 8 80q2 70 2 142v454h-36q-55 0 -98 -5q-39 -4 -66 -21
q-26 -16 -43 -48q-15 -29 -28 -86h-15l16 148q1 17 5 21q3 3 14 3h636q11 0 15 -3t6 -21l18 -148h-14q-14 53 -30 84q-17 32 -43 48q-28 17 -66 23q-39 6 -96 6h-39v-454q0 -72 2 -142q2 -55 7 -79q6 -27 18 -36t33 -15v-10h-255v10z" />
    <glyph glyph-name="uni021B" unicode="&#x21b;" horiz-adv-x="315" 
d="M211 -125l-5 -2q-3 -5 -12 -13q-8 -7 -27 -7q-21 0 -37 14q-15 13 -15 38t18 40t41 15q26 0 47 -18t21 -58q0 -41 -25 -65q-26 -25 -70 -29l-4 9q40 7 57 26t17 35q0 14 -6 15zM193 -12l-1 -2q-68 0 -99 33q-31 32 -31 79v355h-41v12q22 3 44 15t42 35q19 23 36 54
q16 30 25 72h11v-173h107v-14h-107v-338q0 -56 9 -81t45 -25q18 0 32 8q13 8 24 18l8 -8q-3 -4 -12 -13q-6 -6 -20 -13q-10 -5 -30 -10q-16 -4 -42 -4z" />
    <glyph glyph-name="uni0237" unicode="&#x237;" horiz-adv-x="247" 
d="M-29 -145v-2q-20 0 -36 11q-15 10 -15 33q0 20 11 29t27 9q14 0 24 -7q11 -7 20 -17l17 -17q7 -7 17 -7q6 0 11 4q6 6 8 10q2 5 4 18q2 16 2 31v48v250v74q0 25 -5 40q-4 14 -15 18q-9 4 -28 7v11l165 86v-388q0 -58 -22 -106q-22 -49 -84 -94q-34 -24 -55 -32
q-24 -9 -46 -9z" />
    <glyph glyph-name="circumflex" unicode="&#x2c6;" horiz-adv-x="446" 
d="M228 705l125 -182l-9 -6l-116 76l-116 -76l-8 6z" />
    <glyph glyph-name="caron" unicode="&#x2c7;" horiz-adv-x="446" 
d="M112 715l116 -76l116 76l9 -6l-125 -182l-124 182z" />
    <glyph glyph-name="breve" unicode="&#x2d8;" horiz-adv-x="446" 
d="M223 603l4 -1q43 0 63 19q21 19 30 45h12q0 -24 -6 -48q-6 -25 -19 -42q-14 -18 -34 -30q-21 -12 -48 -12q-28 0 -49 12q-20 12 -34 30q-13 17 -19 42q-6 24 -6 50h12q7 -25 29 -45t65 -20z" />
    <glyph glyph-name="dotaccent" unicode="&#x2d9;" horiz-adv-x="446" 
d="M223 538v-2q-29 0 -48 19t-19 46q0 28 19 47q20 20 48 20q29 0 48 -19t19 -46t-19 -46t-48 -19z" />
    <glyph glyph-name="ring" unicode="&#x2da;" horiz-adv-x="446" 
d="M144 610h-4q0 35 25 57t63 22t63 -22t25 -57q0 -36 -24 -58q-23 -22 -62 -22q-38 0 -62 21t-24 59zM183 610q0 -68 44 -68t44 68q0 67 -44 67t-44 -67z" />
    <glyph glyph-name="ogonek" unicode="&#x2db;" horiz-adv-x="446" 
d="M225 -172l-2 -4q-41 0 -69 18q-29 18 -29 49q0 24 15 42q14 17 36 31q21 14 45 21q27 8 41 11h15q-16 -14 -29 -31q-15 -19 -15 -55q0 -24 12 -38t34 -14q11 0 18 4t15 12l6 -8l-10 -10q-5 -5 -17 -12t-27 -11q-18 -5 -39 -5z" />
    <glyph glyph-name="tilde" unicode="&#x2dc;" horiz-adv-x="446" 
d="M167 646l-2 -1q33 0 63 -6t56 -6q14 0 26 9t29 35l9 -5q-12 -47 -31 -79q-19 -33 -48 -33t-58 6q-28 6 -58 6q-12 0 -25 -8q-12 -8 -30 -33l-9 5q18 52 36 81t42 29z" />
    <glyph glyph-name="hungarumlaut" unicode="&#x2dd;" horiz-adv-x="446" 
d="M243 540l35 135q6 26 16 40q10 15 33 15q20 0 29 -12t9 -30q0 -22 -21 -45l-93 -106zM107 540l34 135q7 23 17 40q9 15 32 15q20 0 29 -12t9 -30q0 -22 -21 -45l-93 -106z" />
    <glyph glyph-name="Wgrave" unicode="&#x1e80;" horiz-adv-x="1061" 
d="M495 810v-2q-37 4 -51 21q-13 16 -13 37q0 17 12 32t33 15q14 0 27 -6t27 -15l133 -99l-4 -10zM95 621l-4 -4l-18 47q-7 20 -15 33q-8 14 -18 23q-11 9 -25 15v10h221v-10q-10 -3 -18 -9t-9 -16q-1 -9 2 -27q3 -14 14 -42l202 -497l98 243l-95 232q-14 37 -19 47
q-9 20 -18 33q-10 15 -18 23q-10 10 -21 14v10h216v-10q-11 -3 -19 -9t-9 -16t3 -28q5 -18 15 -45l50 -123l44 104q20 51 20 78q0 28 -35 39v10h113v-10q-14 -5 -21 -10q-9 -6 -18 -18q-7 -10 -19 -33l-25 -55l-51 -121l145 -358l186 478q8 20 13 42q5 20 2 34q-3 15 -13 25
q-11 11 -33 17v10h127v-10q-14 -5 -21 -10q-9 -6 -18 -18q-8 -10 -19 -33t-24 -55l-245 -629h-28l-156 379l-154 -379h-29z" />
    <glyph glyph-name="wgrave" unicode="&#x1e81;" horiz-adv-x="736" 
d="M71 355l-9 -3q-19 47 -22 53q-10 21 -16 30q-8 11 -13 15q-7 5 -14 8v10h186v-10q-11 -2 -17 -6t-6 -15t6 -30t18 -51l98 -243l76 163l-30 77q-20 47 -22 51q-10 21 -16 30q-8 10 -15 15q-10 6 -16 8v10h188v-10q-11 -2 -17 -6t-7 -16q-1 -11 5 -30q6 -18 18 -48l94 -239
l91 217q15 37 21 60t3 36q-3 14 -14 20q-12 7 -27 8v10h116v-10q-9 -3 -18 -8q-8 -5 -17 -17q-10 -13 -20 -35q-11 -23 -27 -63l-144 -342h-28l-106 268l-126 -268h-27zM287 595l-3 1q-19 10 -31 24t-12 35q0 20 12 32t33 12q20 0 33 -12t30 -36l88 -128l-7 -7z" />
    <glyph glyph-name="Wacute" unicode="&#x1e82;" horiz-adv-x="1061" 
d="M467 793l132 100q11 8 26 15q13 6 29 6q20 0 32 -15t12 -31q0 -21 -13 -37q-13 -17 -51 -21l-164 -27zM94 624l-4 -4l-18 47q-8 19 -15 33q-8 14 -18 23q-11 9 -25 15v10h221v-10q-11 -3 -18 -9q-8 -6 -9 -16q-1 -9 2 -27q3 -14 14 -42l202 -497l98 243l-95 232
q-14 37 -19 47q-9 19 -18 33q-10 15 -18 23q-10 10 -21 14v10h216v-10q-11 -3 -19 -9t-9 -16t3 -28t15 -45l50 -123l44 104q20 51 20 78q0 28 -35 39v10h113v-10q-14 -5 -21 -10q-9 -6 -18 -18q-8 -10 -19 -33l-25 -55l-51 -121l145 -358l186 478q8 20 13 42q5 20 2 34
q-3 15 -13 25q-11 11 -33 17v10h127v-10q-14 -5 -21 -10q-9 -6 -18 -18q-7 -10 -19 -33q-11 -23 -24 -55l-245 -629h-28l-156 379l-154 -379h-29z" />
    <glyph glyph-name="wacute" unicode="&#x1e83;" horiz-adv-x="736" 
d="M287 526l85 127q16 24 30 36t33 12q21 0 33 -12t12 -32q0 -21 -12 -35t-31 -24l-143 -79zM68 354l-9 -3q-19 47 -22 53q-10 21 -16 30q-8 11 -13 15q-7 5 -14 8v10h186v-10q-11 -2 -17 -6q-6 -5 -6 -15t6 -30t18 -51l98 -243l76 163l-30 77q-20 47 -22 51q-10 21 -16 30
q-7 11 -15 15q-10 6 -16 8v10h188v-10q-11 -2 -17 -6t-7 -16q-1 -11 5 -30q6 -18 18 -48l94 -239l91 217q15 38 21 60t3 36t-14 20q-12 7 -27 8v10h116v-10q-9 -3 -18 -8q-8 -5 -17 -17q-10 -13 -20 -35t-27 -63l-144 -342h-28l-106 268l-126 -268h-27z" />
    <glyph glyph-name="Wdieresis" unicode="&#x1e84;" horiz-adv-x="1061" 
d="M669 791l-1 -1q-26 0 -44 18t-18 47q0 25 18 43t44 18t44 -18t18 -43q0 -28 -18 -46t-43 -18zM471 790v-1q-26 0 -44 18t-18 47q0 25 18 43t44 18t44 -18t18 -43q0 -28 -18 -46t-44 -18zM94 621l-4 -4l-18 47q-8 20 -15 33q-8 14 -18 23q-11 9 -25 15v10h221v-10
q-11 -3 -18 -9q-8 -6 -9 -16q-1 -9 2 -27q3 -14 14 -42l202 -497l98 243l-95 232q-14 37 -19 47q-9 20 -18 33q-10 15 -18 23q-10 10 -21 14v10h216v-10q-11 -3 -19 -9t-9 -16t3 -28t15 -45l50 -123l44 104q20 51 20 78q0 28 -35 39v10h113v-10q-14 -5 -21 -10
q-9 -6 -18 -18q-8 -10 -19 -33l-25 -55l-51 -121l145 -358l186 478q8 20 13 42q5 20 2 34q-3 15 -13 25q-11 11 -33 17v10h127v-10q-14 -5 -21 -10q-9 -6 -18 -18q-7 -10 -19 -33q-11 -23 -24 -55l-245 -629h-28l-156 379l-154 -379h-29z" />
    <glyph glyph-name="wdieresis" unicode="&#x1e85;" horiz-adv-x="736" 
d="M455 540h-1q-27 0 -45 18t-18 47q0 25 18 43t45 18q26 0 44 -18t18 -43q0 -29 -18 -47t-43 -18zM270 540h-1q-25 0 -43 18t-18 47q0 25 18 43t44 18q28 0 46 -18t18 -43q0 -29 -18 -47t-46 -18zM69 355l-9 -3q-19 47 -22 53q-10 21 -16 30q-8 11 -13 15q-7 5 -14 8v10
h186v-10q-11 -2 -17 -6t-6 -15t6 -30t18 -51l98 -243l76 163l-30 77q-20 47 -22 51q-10 21 -16 30q-8 10 -15 15q-10 6 -16 8v10h188v-10q-11 -2 -17 -6t-7 -16q-1 -11 5 -30q6 -18 18 -48l94 -239l91 217q15 37 21 60t3 36q-3 14 -14 20q-12 7 -27 8v10h116v-10
q-9 -3 -18 -8q-8 -5 -17 -17q-10 -13 -20 -35q-11 -23 -27 -63l-144 -342h-28l-106 268l-126 -268h-27z" />
    <glyph glyph-name="Ygrave" unicode="&#x1ef2;" horiz-adv-x="735" 
d="M243 10l-2 -4q21 6 33 15t18 36q5 24 7 80q2 70 2 142v70l-186 285q-28 41 -46 63q-21 25 -56 39v9h253v-9q-24 -8 -30 -28t23 -66l170 -262l158 239q37 55 38 80q1 13 -9 22.5t-30 15.5v9h133v-9q-14 -6 -22 -10q-11 -5 -25 -18q-14 -12 -30 -33t-39 -54l-167 -252v-88
q0 -72 2 -142q1 -49 8 -79q6 -27 18 -36t33 -15v-10h-254v10zM361 806v-2q-37 4 -51 21q-13 16 -13 37q0 17 12 32t33 15q14 0 27 -6t27 -15l133 -99l-4 -10z" />
    <glyph glyph-name="ygrave" unicode="&#x1ef3;" horiz-adv-x="507" 
d="M120 -169l1 -6q-29 0 -42 12q-14 12 -14 32q0 19 11 30q10 10 26 10q12 0 24 -5q9 -4 18 -11q10 -8 15 -11q8 -5 17 -5q8 0 15 3q6 2 16 14t20 30q12 22 24 49l3 6l-179 374l-24 51q-8 18 -17 30q-8 10 -15 15q-6 4 -16 7v10h201v-10q-10 -2 -18 -6t-9 -15q-2 -11 3 -29
q5 -19 18 -47l117 -243l98 219q16 39 21 62q4 23 0 36q-5 14 -16 18q-15 6 -27 8v10h116v-10q-11 -1 -18 -6q-6 -4 -16 -17q-9 -12 -21 -36l-30 -63l-160 -358q-16 -37 -35 -69q-16 -27 -33 -46q-15 -17 -35 -25q-19 -8 -39 -8zM218 592l-3 1q-19 10 -31 24q-12 13 -12 35
q0 20 12 32t33 12q19 0 33 -12t30 -36l88 -128l-7 -7z" />
    <glyph glyph-name="uni2009" unicode="&#x2009;" horiz-adv-x="88" 
 />
    <glyph glyph-name="endash" unicode="&#x2013;" horiz-adv-x="551" 
d="M42 289h467v-16h-467v16z" />
    <glyph glyph-name="emdash" unicode="&#x2014;" horiz-adv-x="941" 
d="M42 289h857v-16h-857v16z" />
    <glyph glyph-name="quoteleft" unicode="&#x2018;" horiz-adv-x="249" 
d="M95 648l2 -3q5 9 15 15t27 6q22 0 39 -17q16 -16 16 -42q0 -29 -19 -45t-45 -16q-12 0 -27 5q-13 5 -24 15q-11 11 -17 27q-6 17 -6 39q0 52 30 90t77 59l5 -8q-38 -22 -61 -48q-22 -25 -22 -51q0 -10 3 -16t7 -10z" />
    <glyph glyph-name="quoteright" unicode="&#x2019;" horiz-adv-x="249" 
d="M153 666h-2q-5 -9 -15 -15t-27 -6q-22 0 -39 17q-16 16 -16 42q0 30 20 47t45 17q13 0 25 -4q14 -4 24 -15t18 -27q7 -15 7 -39q0 -53 -31 -91q-32 -39 -78 -60l-5 8q41 22 63 48q22 25 22 51q0 18 -11 27z" />
    <glyph glyph-name="quotesinglbase" unicode="&#x201a;" horiz-adv-x="249" 
d="M153 9h-2q-5 -9 -15 -15t-27 -6q-22 0 -39 17q-16 16 -16 42q0 30 20 47t45 17q13 0 25 -4q14 -5 24 -15t18 -27q7 -15 7 -39q0 -53 -31 -91q-32 -39 -78 -60l-5 8q41 23 63 48t22 51q0 18 -11 27z" />
    <glyph glyph-name="quotedblleft" unicode="&#x201c;" horiz-adv-x="420" 
d="M95 648l2 -3q5 9 15 15t27 6q22 0 39 -17q16 -16 16 -42q0 -29 -19 -45t-45 -16q-12 0 -27 5q-13 5 -24 15q-11 11 -17 27q-6 17 -6 39q0 52 30 90t77 59l5 -8q-38 -22 -61 -48q-22 -25 -22 -51q0 -10 3 -16t7 -10zM268 645l-1 -3q5 9 15 15q11 6 29 6q22 0 39 -17
t17 -42q0 -29 -19 -45t-45 -16q-10 0 -25 5q-14 4 -24 15t-18 27q-7 15 -7 39q0 53 30 90q30 38 77 59l5 -8q-40 -22 -61 -48t-21 -51q0 -10 3 -16q2 -4 6 -10z" />
    <glyph glyph-name="quotedblright" unicode="&#x201d;" horiz-adv-x="420" 
d="M324 666l-4 -1q-4 -9 -15 -15t-27 -6q-22 0 -39 17q-16 16 -16 42q0 31 19 47q20 17 45 17q15 0 27 -4q14 -5 24 -15t18 -27q7 -15 7 -39q0 -52 -30 -91t-76 -60l-6 8q41 23 62 48t21 51q0 11 -3 17q-4 8 -7 11zM149 665h-2q-5 -9 -15 -15t-27 -6q-22 0 -39 17
q-16 16 -16 42q0 30 20 47t45 17q13 0 25 -4q14 -5 24 -15t18 -27q7 -15 7 -39q0 -53 -31 -91q-32 -39 -78 -60l-5 8q41 23 63 48t22 51q0 18 -11 27z" />
    <glyph glyph-name="quotedblbase" unicode="&#x201e;" horiz-adv-x="420" 
d="M323 9l-4 -1q-5 -9 -15 -15t-27 -6q-22 0 -39 17q-16 16 -16 42q0 31 19 47q20 17 45 17q15 0 27 -4q13 -4 24 -15t18 -27q7 -15 7 -39q0 -52 -30 -91t-76 -60l-6 8q41 23 62 48q21 26 21 51q0 11 -3 17q-4 8 -7 11zM148 8h-2q-4 -9 -15 -15t-27 -6q-22 0 -39 17
q-16 16 -16 42q0 30 20 47t45 17q13 0 25 -4q13 -4 24 -15t18 -27q7 -15 7 -39q0 -53 -31 -91q-31 -39 -78 -60l-5 8q40 22 63 48q22 25 22 51q0 18 -11 27z" />
    <glyph glyph-name="dagger" unicode="&#x2020;" horiz-adv-x="432" 
d="M212 -2l-6 -1q-3 70 -10 129q-9 82 -16 128l-16 103q-9 52 -10 56q20 23 36 57q17 36 17 74q-14 0 -30 -8q-10 -5 -30 -17t-30 -17q-16 -8 -32 -8q-28 0 -45 17q-16 16 -16 39t16 39q17 17 45 17q16 0 32 -8q15 -8 30 -18t30 -18q16 -8 30 -8q0 15 -9 33q-12 24 -19 36
t-19 36q-9 18 -9 35q0 25 17 44q16 18 44 18q26 0 42 -18q17 -19 17 -44q0 -17 -9 -35l-18 -36l-18 -36q-9 -18 -9 -33q15 0 29 8q11 6 28 18q15 10 30 18q16 8 32 8q29 0 44 -17t15 -39t-15 -39t-44 -17q-16 0 -32 8q-14 7 -29 17q-18 12 -27 17q-14 8 -27 8q0 -40 16 -73
q17 -35 36 -57q-2 -6 -10 -54q-8 -45 -15 -103q-8 -60 -15 -129q-8 -69 -9 -130h-12z" />
    <glyph glyph-name="daggerdbl" unicode="&#x2021;" horiz-adv-x="433" 
d="M217 -8l-9 -3q-27 0 -43 19t-16 45q0 16 9 34q12 24 19 36q4 7 11 20.5t8 14.5q9 16 9 33q-14 0 -30 -8q-14 -7 -28 -18q-13 -10 -29 -18t-31 -8q-31 0 -46 17q-15 16 -15 39t15 39q15 17 47 17q17 0 31 -7q10 -5 30 -17t30 -17q14 -7 30 -7q0 19 -6 42t-15 45
q-10 25 -19 43q-9 19 -21 37q9 15 21 38q12 24 20 44q9 22 15 45t6 42q-14 0 -30 -8q-10 -5 -30 -17t-30 -17q-16 -8 -31 -8q-31 0 -46 17q-15 16 -15 39t15 39q15 17 47 17q16 0 32 -8t29 -18t29 -18t30 -8q0 15 -9 33q-12 24 -19 36t-19 36q-9 18 -9 35q0 25 17 44
q17 18 44 18q25 0 42 -18q17 -19 17 -44q0 -17 -9 -35l-18 -36l-18 -36q-9 -18 -9 -33q15 0 29 8q13 7 27 18q13 10 29 18t32 8q30 0 45 -17q15 -16 15 -39t-15 -39q-15 -17 -45 -17q-16 0 -32 8q-10 5 -30 17q-3 2 -13 8l-15 9q-14 8 -28 8q0 -17 5 -42q4 -20 14 -45
q12 -30 19 -44q9 -19 21 -37q-12 -18 -21 -37q-9 -18 -19 -43q-8 -20 -13 -45t-5 -42q15 0 29 8l15 9t13 8q20 12 30 17q16 8 32 8q30 0 45 -17t15 -39t-15 -39t-45 -17q-16 0 -32 8t-29 18q-14 10 -27 18q-14 8 -29 8q0 -16 9 -33q6 -11 18 -35l18 -36q9 -18 9 -34
q0 -25 -17 -45q-16 -19 -42 -19z" />
    <glyph glyph-name="bullet" unicode="&#x2022;" horiz-adv-x="397" 
d="M199 426l-4 -4q32 0 56 -10q25 -10 44 -29t29 -44q11 -27 11 -55q0 -31 -10 -55q-10 -25 -29 -45q-18 -19 -44 -30q-24 -10 -55 -10q-28 0 -55 11q-26 11 -45 30t-30 45q-10 24 -10 56q0 29 11 56q11 26 30 44q20 19 45 29q27 11 56 11z" />
    <glyph glyph-name="ellipsis" unicode="&#x2026;" horiz-adv-x="756" 
d="M631 -13q-30 0 -50 19q-21 20 -21 51t21 51q22 20 50 20t50 -20q21 -20 21 -51t-21 -51q-20 -19 -50 -19zM377 -14q-30 0 -50 19q-21 19 -21 51t21 51q22 20 50 20t50 -20q21 -19 21 -51t-21 -51q-20 -19 -50 -19zM123 -14q-30 0 -50 19q-21 19 -21 51t21 51q22 20 50 20
t50 -20q21 -19 21 -51t-21 -51q-20 -19 -50 -19z" />
    <glyph glyph-name="perthousand" unicode="&#x2030;" horiz-adv-x="1217" 
d="M209 379h-1q-32 0 -62 13q-32 14 -57 37q-25 24 -42 59q-17 36 -17 80t17 80q17 35 42 59t57 36q31 12 62 12q30 0 63 -12q34 -12 59 -36t42 -59q17 -36 17 -80t-17 -80q-17 -35 -42 -59q-25 -23 -58 -37q-32 -13 -63 -13zM118 9l544 745l15 -11l-544 -744zM208 391
q16 0 33 9t30 30q14 21 21 55q8 37 8 84t-8 84q-7 34 -21 55q-13 21 -30 30t-33 9q-14 0 -31 -9t-30 -30q-14 -21 -21 -55q-8 -37 -8 -84t8 -84q7 -32 20 -55q12 -21 29 -30t33 -9zM592 -6h-3q-31 0 -63 13q-33 14 -58 37q-25 24 -42 59q-17 36 -17 80t17 80q17 35 42 59
t59 36q33 12 63 12t62 -12t59 -36t44 -59q17 -36 17 -80t-17 -80t-43 -59t-58 -37q-30 -13 -62 -13zM1003 -6h-3q-31 0 -63 13q-33 14 -58 37q-25 24 -42 59q-17 36 -17 80t17 80q17 35 42 59t59 36q33 12 63 12q31 0 62 -12q32 -12 59 -36t44 -59q17 -36 17 -80t-17 -80
t-43 -59t-58 -37q-30 -13 -62 -13zM586 6q16 0 33 9t30 30q14 21 21 55q8 37 8 84q0 50 -9 84q-9 35 -22 55q-13 21 -30 30t-31 9t-31 -9t-30 -30q-13 -20 -22 -55q-9 -34 -9 -84q0 -47 8 -84q7 -34 21 -55q13 -21 30 -30t33 -9zM1000 6q16 0 33 9t30 30q14 21 21 55
q8 37 8 84q0 50 -9 84q-9 35 -22 55q-13 21 -30 30t-31 9t-31 -9t-30 -30q-13 -20 -22 -55q-9 -34 -9 -84q0 -47 8 -84q7 -34 21 -55q13 -21 30 -30t33 -9z" />
    <glyph glyph-name="uni2032" unicode="&#x2032;" horiz-adv-x="177" 
d="M42 548q5 42 5 72v66q0 35 15 53t40 18q23 0 35 -13q12 -14 12 -36q0 -15 -11 -37q-9 -18 -29 -43l-29 -37q-14 -20 -28 -46z" />
    <glyph glyph-name="uni2033" unicode="&#x2033;" horiz-adv-x="308" 
d="M174 548q5 42 5 72v66q0 35 15 53t40 18q23 0 35 -13q12 -14 12 -36q0 -15 -11 -37q-9 -18 -29 -43l-29 -37q-14 -20 -28 -46zM42 548q5 42 5 72v66q0 35 15 53t40 18q23 0 35 -13q12 -14 12 -36q0 -15 -11 -37q-9 -18 -29 -43l-29 -37q-14 -20 -28 -46z" />
    <glyph glyph-name="guilsinglleft" unicode="&#x2039;" horiz-adv-x="266" 
d="M43 224v12l177 161l8 -6l-82 -161l83 -161l-8 -6z" />
    <glyph glyph-name="guilsinglright" unicode="&#x203a;" horiz-adv-x="266" 
d="M33 69l84 161l-83 161l8 6l176 -161v-12l-177 -161z" />
    <glyph glyph-name="fraction" unicode="&#x2044;" horiz-adv-x="503" 
d="M50 380h403v-10h-403v10z" />
    <glyph glyph-name="Euro" unicode="&#x20ac;" horiz-adv-x="701" 
d="M15 340l78 -5q-1 5 -1 15v16q0 28 3 53h-81v14h83q10 79 45 139q34 60 82 100q47 40 105 61q57 21 114 21q58 0 99 -10q44 -11 74 -27q29 -16 46 -39q16 -22 16 -48q0 -22 -18 -38q-19 -17 -46 -17q-53 0 -68 61q-2 9 -10 42q-4 20 -15 33q-11 15 -28 23q-18 9 -50 9
q-88 0 -144 -77q-55 -76 -63 -231h214v-14h-214q-1 -6 -1 -18v-19v-23q0 -15 1 -22h214v-14h-213q4 -78 23 -138q18 -57 47 -96q29 -38 66 -56t81 -18q40 0 72 9t56 24q23 14 42 35q22 24 33 37l10 -9q-12 -18 -33 -40q-20 -21 -48 -39q-29 -18 -67 -30q-39 -12 -88 -12
q-75 0 -132 28q-59 28 -102 75q-44 47 -69 106q-25 60 -33 125h-80v14z" />
    </font>
</defs>
</svg>
