<svg xmlns="http://www.w3.org/2000/svg" width="61.283" height="33.282" viewBox="0 0 61.283 33.282">
  <g id="Grupo_266" data-name="Grupo 266" transform="translate(-1665.759 -2441.718)">
    <g id="Grupo_260" data-name="Grupo 260">
      <path id="Trazado_154" data-name="Trazado 154" d="M1714.879,2443.218l10.664,30.282h-58.284l10.664-30.282h36.956m0-1.5h-36.956a1.5,1.5,0,0,0-1.415,1L1665.844,2473a1.5,1.5,0,0,0,1.415,2h58.284a1.5,1.5,0,0,0,1.415-2l-10.664-30.282a1.5,1.5,0,0,0-1.415-1Z" fill="#ef0600"/>
    </g>
    <g id="Grupo_263" data-name="Grupo 263">
      <g id="Grupo_261" data-name="Grupo 261">
        <path id="Trazado_155" data-name="Trazado 155" d="M1708.007,2474.25a.749.749,0,0,1-.733-.6l-6.249-30.281a.75.75,0,1,1,1.469-.3l6.248,30.281a.749.749,0,0,1-.583.886A.707.707,0,0,1,1708.007,2474.25Z" fill="#ef0600"/>
      </g>
      <g id="Grupo_262" data-name="Grupo 262">
        <path id="Trazado_156" data-name="Trazado 156" d="M1684.8,2474.25a.7.7,0,0,1-.152-.016.749.749,0,0,1-.583-.886l6.248-30.281a.75.75,0,1,1,1.469.3l-6.249,30.281A.749.749,0,0,1,1684.8,2474.25Z" fill="#ef0600"/>
      </g>
    </g>
    <g id="Grupo_264" data-name="Grupo 264">
      <path id="Trazado_157" data-name="Trazado 157" d="M1718,2453.411h-43.226a.75.75,0,1,1,0-1.5H1718a.75.75,0,0,1,0,1.5Z" fill="#ef0600"/>
    </g>
    <g id="Grupo_265" data-name="Grupo 265">
      <path id="Trazado_158" data-name="Trazado 158" d="M1721.42,2463.248h-50.877a.75.75,0,0,1,0-1.5h50.877a.75.75,0,0,1,0,1.5Z" fill="#ef0600"/>
    </g>
  </g>
</svg>
