<svg xmlns="http://www.w3.org/2000/svg" width="52.771" height="52.814" viewBox="0 0 52.771 52.814">
  <g id="Grupo_305" data-name="Grupo 305" transform="translate(-508.958 -1697.696)">
    <path id="Trazado_113" data-name="Trazado 113" d="M5202.375,1710.21a26.4,26.4,0,1,0,.251,27.382l-1.571-.852a24.623,24.623,0,1,1,.208-24.922l.24.416-8.285-2.2-.463,1.763,10.808,2.841,2.725-10.809-1.765-.464-1.9,7.24Z" transform="translate(-4644.559)"/>
    <path id="Trazado_114" data-name="Trazado 114" d="M5185.72,1724.651a9.733,9.733,0,0,0-4.556-1.992l-.267,0v-5.636l.231.036a8.767,8.767,0,0,1,3.877,1.505l1.575-2.159a10.868,10.868,0,0,0-5.494-1.88l-.189-.01v-1.347h-1.6v1.372a6.662,6.662,0,0,0-4.065,1.627,4.914,4.914,0,0,0-1.628,3.8,4.147,4.147,0,0,0,1.389,3.46,10.358,10.358,0,0,0,4.3,1.85v5.723a9.547,9.547,0,0,1-4.633-2.281l-1.772,2.078a11.415,11.415,0,0,0,6.4,2.856v2.045h1.6v-2.019l.188-.01a6.869,6.869,0,0,0,4.4-1.644,4.912,4.912,0,0,0,1.628-3.805A4.243,4.243,0,0,0,5185.72,1724.651Zm-8.609-3.3a2.34,2.34,0,0,1-.624-1.607,2.3,2.3,0,0,1,.73-1.726,3.883,3.883,0,0,1,2.084-.839v5.232A5.549,5.549,0,0,1,5177.111,1721.355Zm6.251,9.061a4.223,4.223,0,0,1-2.126.834l-.231.035V1725.8l.258.077a7.053,7.053,0,0,1,2.324,1.054l.038.039a2.649,2.649,0,0,1,.6,1.705A2.034,2.034,0,0,1,5183.362,1730.416Z" transform="translate(-4644.559)"/>
  </g>
</svg>
