<svg xmlns="http://www.w3.org/2000/svg" width="52.645" height="92" viewBox="0 0 52.645 92">
  <g id="Grupo_240" data-name="Grupo 240" transform="translate(-1601.059 -5158.436)">
    <g id="Grupo_239" data-name="Grupo 239">
      <g id="Grupo_234" data-name="Grupo 234">
        <g id="Grupo_233" data-name="Grupo 233">
          <path id="Trazado_139" data-name="Trazado 139" d="M1620.467,5169.73c.038.138.082.275.125.413a26.209,26.209,0,0,0,2.7,5.4,37.357,37.357,0,0,0,3.014,3.8,26.353,26.353,0,0,0,27.36,6.793c.024-.456.036-.914.036-1.375a26.323,26.323,0,0,0-26.323-26.322c-.188,0-.376,0-.563.007C1622.224,5159.847,1618.615,5162.985,1620.467,5169.73Z" fill="#f70f0f"/>
        </g>
      </g>
      <g id="Grupo_236" data-name="Grupo 236">
        <g id="Grupo_235" data-name="Grupo 235">
          <path id="Trazado_140" data-name="Trazado 140" d="M1634.171,5238.729a26.2,26.2,0,0,0-2.7-5.4,37.31,37.31,0,0,0-3.013-3.8,26.357,26.357,0,0,0-27.361-6.793q-.034.683-.035,1.374a26.323,26.323,0,0,0,26.322,26.323c.189,0,.376,0,.564-.007,4.593-1.4,8.2-4.542,6.351-11.287C1634.258,5239,1634.213,5238.867,1634.171,5238.729Z" fill="#f70f0f"/>
        </g>
      </g>
      <g id="Grupo_238" data-name="Grupo 238">
        <g id="Grupo_237" data-name="Grupo 237">
          <path id="Trazado_141" data-name="Trazado 141" d="M1648.328,5208.173a49.773,49.773,0,0,0-3.2-4.122c-10.683-12.446-27.906-22.151-31-33.415-1.856-6.762,1.738-10.032,6.348-11.431a26.354,26.354,0,0,0-18.791,31.159,30.365,30.365,0,0,0,4.745,10.191,49.6,49.6,0,0,0,3.2,4.121c10.683,12.446,27.905,22.151,31,33.415,1.653,6.021-1.054,9.394-4.919,11a26.35,26.35,0,0,0,17.362-30.726A30.349,30.349,0,0,0,1648.328,5208.173Z" fill="#f70f0f"/>
        </g>
      </g>
    </g>
  </g>
</svg>
