<svg xmlns="http://www.w3.org/2000/svg" width="45.547" height="53.515" viewBox="0 0 45.547 53.515">
  <g id="Grupo_304" data-name="Grupo 304" transform="translate(-88.875 -1697.363)">
    <path id="Trazado_106" data-name="Trazado 106" d="M4733.435,1722.336q0,1.125.02,2.25a24.1,24.1,0,0,0,5.7,15.63c4.232,5,9.768,8.472,16.923,10.614l.16.048v-.05a2.028,2.028,0,0,0,.315-.066,35.721,35.721,0,0,0,10.8-5.169c7.813-5.5,11.613-12.572,11.617-21.629v-5.446q0-6.408.012-12.817v-.088l-.083-.029c-2.76-1-5.483-1.99-8.195-2.976l-3.471-1.261q-5.465-1.988-10.933-3.968l-.042-.016-.041.015c-3.492,1.233-6.939,2.487-10.273,3.7l-1.171.426q-5.626,2.044-11.253,4.081l-.083.029v.089c.013,2.378.012,4.724.011,6.992l-.008,5.658C4733.435,1719.679,4733.431,1721.008,4733.435,1722.336Zm1.975-7.894v-.192q.006-2.99,0-5.981a1.659,1.659,0,0,1,1.185-1.7l8.466-3.069q5.191-1.885,10.388-3.764a2.263,2.263,0,0,1,.755-.125,2.337,2.337,0,0,1,.782.131q4.562,1.644,9.116,3.3,4.8,1.742,9.61,3.476a1.775,1.775,0,0,1,1.291,1.85c-.019,2-.017,4.037-.014,6.006l0,3.455h-.115l0,.126c.006.6.016,1.207.025,1.812v.068c.033,2.136.066,4.344-.067,6.523a22.21,22.21,0,0,1-8.059,15.734,32.4,32.4,0,0,1-11.716,6.463,2.461,2.461,0,0,1-1.49.048c-6.862-2.254-12-5.755-15.712-10.7a21.92,21.92,0,0,1-4.418-13.164C4735.4,1721.311,4735.4,1717.819,4735.41,1714.442Z" transform="translate(-4644.559)" fill="#262626"/>
    <path id="Trazado_107" data-name="Trazado 107" d="M4752.148,1733.4l15.776-15.734.088-.089-1.515-1.526-14.445,14.52-6.224-6.352-.088-.089-1.426,1.406,7.746,7.775Z" transform="translate(-4644.559)" fill="#262626"/>
  </g>
</svg>
