<svg xmlns="http://www.w3.org/2000/svg" width="61.284" height="42.887" viewBox="0 0 61.284 42.887">
  <g id="Grupo_255" data-name="Grupo 255" transform="translate(-1977.432 -2432.113)">
    <g id="Grupo_250" data-name="Grupo 250">
      <path id="Trazado_148" data-name="Trazado 148" d="M2031.2,2465.168a.75.75,0,0,1-.75-.75v-3.78a22.378,22.378,0,1,0-44.755,0v3.78a.75.75,0,0,1-1.5,0v-3.78a23.878,23.878,0,1,1,47.755,0v3.78A.75.75,0,0,1,2031.2,2465.168Z" fill="#ef0600"/>
    </g>
    <g id="Grupo_253" data-name="Grupo 253">
      <g id="Grupo_251" data-name="Grupo 251">
        <path id="Trazado_149" data-name="Trazado 149" d="M2002.166,2465.006a.75.75,0,0,1-.748-.806l2.281-30.643a.75.75,0,0,1,.748-.694h7.253a.75.75,0,0,1,.748.694l2.282,30.643a.752.752,0,0,1-.748.806Z" fill="#fff"/>
      </g>
      <g id="Grupo_252" data-name="Grupo 252">
        <path id="Trazado_150" data-name="Trazado 150" d="M2011.7,2433.613l2.281,30.642h-11.816l2.281-30.642h7.254m0-1.5h-7.254a1.5,1.5,0,0,0-1.5,1.388l-2.281,30.643a1.5,1.5,0,0,0,1.5,1.611h11.816a1.5,1.5,0,0,0,1.495-1.611L2013.2,2433.5a1.5,1.5,0,0,0-1.495-1.388Z" fill="#ef0600"/>
      </g>
    </g>
    <g id="Grupo_254" data-name="Grupo 254">
      <path id="Trazado_151" data-name="Trazado 151" d="M2037.216,2465.725v7.775h-58.284v-7.775h58.284m0-1.5h-58.284a1.5,1.5,0,0,0-1.5,1.5v7.775a1.5,1.5,0,0,0,1.5,1.5h58.284a1.5,1.5,0,0,0,1.5-1.5v-7.775a1.5,1.5,0,0,0-1.5-1.5Z" fill="#ef0600"/>
    </g>
  </g>
</svg>
