<svg xmlns="http://www.w3.org/2000/svg" width="53.463" height="53.464" viewBox="0 0 53.463 53.464">
  <g id="Grupo_303" data-name="Grupo 303" transform="translate(-85.875 -945.838)">
    <path id="Trazado_31" data-name="Trazado 31" d="M7789.209,954.489a18.122,18.122,0,1,0,18.123,18.123A18.144,18.144,0,0,0,7789.209,954.489Zm0,34.342a16.219,16.219,0,1,1,16.22-16.219A16.237,16.237,0,0,1,7789.209,988.831Z" transform="translate(-7676.668)" fill="#262626"/>
    <path id="Trazado_32" data-name="Trazado 32" d="M7789.275,951.936a.978.978,0,0,0,.976-.977v-4.144a.977.977,0,1,0-1.953,0v4.144A.979.979,0,0,0,7789.275,951.936Z" transform="translate(-7676.668)" fill="#262626"/>
    <path id="Trazado_33" data-name="Trazado 33" d="M7789.275,993.2a.979.979,0,0,0-.977.977v4.144a.977.977,0,1,0,1.953,0V994.18A.978.978,0,0,0,7789.275,993.2Z" transform="translate(-7676.668)" fill="#262626"/>
    <path id="Trazado_34" data-name="Trazado 34" d="M7767.664,971.593h-4.144a.977.977,0,1,0,0,1.953h4.144a.977.977,0,1,0,0-1.953Z" transform="translate(-7676.668)" fill="#262626"/>
    <path id="Trazado_35" data-name="Trazado 35" d="M7815.028,971.593h-4.143a.977.977,0,1,0,0,1.953h4.143a.977.977,0,1,0,0-1.953Z" transform="translate(-7676.668)" fill="#262626"/>
    <path id="Trazado_36" data-name="Trazado 36" d="M7774.069,986.829h0a.963.963,0,0,0-.688.286l-2.933,2.931a.977.977,0,0,0,1.381,1.382l2.93-2.931a.977.977,0,0,0,0-1.38A.974.974,0,0,0,7774.069,986.829Z" transform="translate(-7676.668)" fill="#262626"/>
    <path id="Trazado_37" data-name="Trazado 37" d="M7807.561,953.353h0a1.007,1.007,0,0,0-.549.156v-.029l-3.068,3.072a.974.974,0,0,0,0,1.38.983.983,0,0,0,.694.282.962.962,0,0,0,.685-.28l2.93-2.928a.98.98,0,0,0,0-1.383A.981.981,0,0,0,7807.561,953.353Z" transform="translate(-7676.668)" fill="#262626"/>
    <path id="Trazado_38" data-name="Trazado 38" d="M7805.321,987.116a1,1,0,0,0-1.379,0,.974.974,0,0,0,0,1.38l2.929,2.934a.983.983,0,0,0,.693.275.973.973,0,0,0,.686-.275.977.977,0,0,0,0-1.383Z" transform="translate(-7676.668)" fill="#262626"/>
    <path id="Trazado_39" data-name="Trazado 39" d="M7773.38,957.934a.989.989,0,0,0,1.378,0,.977.977,0,0,0,0-1.38l-2.93-2.931a1.006,1.006,0,0,0-1.384,0,.971.971,0,0,0-.284.691.952.952,0,0,0,.285.689Z" transform="translate(-7676.668)" fill="#262626"/>
  </g>
</svg>
