<svg xmlns="http://www.w3.org/2000/svg" width="54.907" height="54.908" viewBox="0 0 54.907 54.908">
  <g id="Grupo_187" data-name="Grupo 187" transform="translate(-4047.174 -2390.365)">
    <path id="Trazado_117" data-name="Trazado 117" d="M4101.365,2416.8h-14.932l4.452-4.451a.712.712,0,0,0,0-1,.723.723,0,0,0-1.01,0l-5.664,5.664a.717.717,0,0,0,0,1l5.664,5.664a.708.708,0,0,0,1.01,0,.724.724,0,0,0,0-1.009l-4.452-4.443h14.932a.713.713,0,1,0,0-1.425Z" fill="#fff"/>
    <path id="Trazado_118" data-name="Trazado 118" d="M4059.381,2411.345a.714.714,0,0,0-1.01,1.009l4.451,4.443h-14.931a.712.712,0,1,0,0,1.424h14.931l-4.451,4.452a.717.717,0,0,0,0,1,.708.708,0,0,0,1.01,0l5.664-5.664a.717.717,0,0,0,0-1Z" fill="#fff"/>
    <path id="Trazado_119" data-name="Trazado 119" d="M4079.782,2401.563l-4.442,4.451v-14.932a.713.713,0,1,0-1.425,0v14.933l-4.451-4.452a.7.7,0,0,0-.5-.206h0a.71.71,0,0,0-.5,1.214l5.665,5.664a.7.7,0,0,0,.5.2h0a.7.7,0,0,0,.5-.2l5.664-5.664a.705.705,0,0,0,0-1.008A.722.722,0,0,0,4079.782,2401.563Z" fill="#fff"/>
    <path id="Trazado_120" data-name="Trazado 120" d="M4075.128,2427.4a.7.7,0,0,0-.5-.205h0a.7.7,0,0,0-.5.205l-5.665,5.664a.708.708,0,0,0,0,1.009.72.72,0,0,0,1.01,0l4.443-4.451v14.932a.712.712,0,1,0,1.424,0v-14.933l4.452,4.452a.694.694,0,0,0,.5.205h0a.7.7,0,0,0,.5-.205.707.707,0,0,0,0-1.009Z" fill="#fff"/>
  </g>
</svg>
