<svg xmlns="http://www.w3.org/2000/svg" width="43.153" height="53.214" viewBox="0 0 43.153 53.214">
  <g id="Grupo_268" data-name="Grupo 268" transform="translate(-2288.266 -2421.786)">
    <g id="Grupo_267" data-name="Grupo 267">
      <path id="Trazado_160" data-name="Trazado 160" d="M2320.711,2423.286h.005m-.005,0-10.655,17.6h19.863l-30.752,32.614,8.788-24.559h-18.189l14.115-25.655h16.83m.005-1.5h-16.835a1.5,1.5,0,0,0-1.314.777l-14.115,25.655a1.5,1.5,0,0,0,1.314,2.223h16.059l-8.07,22.554a1.5,1.5,0,0,0,2.5,1.534l30.752-32.613a1.5,1.5,0,0,0-1.091-2.53h-17.2l9.242-15.264a1.5,1.5,0,0,0-1.243-2.336Zm-.005,3h0Z" fill="#ef0600"/>
    </g>
  </g>
</svg>
