<svg xmlns="http://www.w3.org/2000/svg" width="61.284" height="37.938" viewBox="0 0 61.284 37.938">
  <g id="Grupo_259" data-name="Grupo 259" transform="translate(-2599.561 -2437.062)">
    <g id="Grupo_258" data-name="Grupo 258">
      <path id="Trazado_153" data-name="Trazado 153" d="M2635.493,2438.562a12.6,12.6,0,0,1,12.191,15.772,10.472,10.472,0,0,1,1.32-.087,10.341,10.341,0,0,1,10.341,10.341c0,5.71-4.63,8.912-10.341,8.912l-38.292-.025c-5.389-.356-9.651-3.409-9.651-8.887a10.34,10.34,0,0,1,14.471-9.48c-.01-.154-.016-.309-.016-.466a7.381,7.381,0,0,1,7.381-7.381c.205,0,.407.011.608.027a12.6,12.6,0,0,1,11.988-8.726m0-1.5a14.053,14.053,0,0,0-13.029,8.71,8.9,8.9,0,0,0-8.309,7.3,11.847,11.847,0,0,0-14.594,11.518c0,5.865,4.338,9.941,11.052,10.383.032,0,.065,0,.1,0L2649,2475c6.973,0,11.842-4.282,11.842-10.412a11.854,11.854,0,0,0-11.347-11.83,14.1,14.1,0,0,0-14.005-15.7Z" fill="#ef0600"/>
    </g>
  </g>
</svg>
