<svg xmlns="http://www.w3.org/2000/svg" width="53.47" height="53.465" viewBox="0 0 53.47 53.465">
  <g id="Grupo_306" data-name="Grupo 306" transform="translate(-88.875 -2025.969)">
    <path id="Trazado_111" data-name="Trazado 111" d="M4769.868,2026.239a21.107,21.107,0,0,0-3.317-.27,19.354,19.354,0,0,0-9.428,2.458,20.174,20.174,0,0,0-8.235,27.123,1.415,1.415,0,0,1-.28,1.846q-3.291,3.276-6.573,6.561l-7.029,7.022a4.944,4.944,0,0,0-1.568,3.4,4.876,4.876,0,0,0,2.83,4.628l.026.01a4.963,4.963,0,0,0,5.568-1.112l.757-.756c4.362-4.357,8.628-8.622,12.873-12.882a1.373,1.373,0,0,1,1.8-.3,20.429,20.429,0,0,0,10.251,2.36,19.19,19.19,0,0,0,12.625-5.182,19.506,19.506,0,0,0,6.276-19.143A20.105,20.105,0,0,0,4769.868,2026.239Zm-20.47,41.719v0c-.168.191-.251.284-.337.372l-2.084,2.087q-3.122,3.125-6.252,6.244a3.572,3.572,0,0,1-2.5,1.113,3,3,0,0,1-.429-.032,3.18,3.18,0,0,1-2.315-1.691,3.1,3.1,0,0,1,.62-3.773c.665-.685,1.354-1.371,2.019-2.034l7.286-7.291,4.489,4.454Zm1.773-1.911-4.29-4.317,3.313-3.337,4.322,4.332Zm15.571-1.383h-.043a18.565,18.565,0,0,1-18.483-18.462,18.6,18.6,0,0,1,18.494-18.569h.047a18.627,18.627,0,0,1,18.491,18.542A18.581,18.581,0,0,1,4766.742,2064.664Z" transform="translate(-4644.559)" fill="#262626"/>
    <path id="Trazado_112" data-name="Trazado 112" d="M4766.74,2032.425h-.045a13.737,13.737,0,0,0-.014,27.474h.109a13.518,13.518,0,0,0,9.57-3.982,13.715,13.715,0,0,0-9.62-23.493Zm.065,25.783h-.13a12.116,12.116,0,0,1-8.595-3.668,11.829,11.829,0,0,1-3.408-8.467,12.111,12.111,0,0,1,12.012-11.962h.153a12.049,12.049,0,0,1-.032,24.1Z" transform="translate(-4644.559)" fill="#262626"/>
  </g>
</svg>
