<svg xmlns="http://www.w3.org/2000/svg" width="61.284" height="32.731" viewBox="0 0 61.284 32.731">
  <g id="Grupo_186" data-name="Grupo 186" transform="translate(-4047.174 -2167.453)">
    <path id="Trazado_115" data-name="Trazado 115" d="M4062.88,2168.092a8.005,8.005,0,0,0-6.555,3.192c-1.7,2.128-2.724,5.321-3.107,9.619a12.8,12.8,0,0,1,3.533-2.213,11.088,11.088,0,0,1,4.512-.894,16.054,16.054,0,0,1,4.979.766,13.417,13.417,0,0,1,4.172,2.171,10.958,10.958,0,0,1,2.894,3.363,9.134,9.134,0,0,1,1.064,4.469,9.558,9.558,0,0,1-1.191,4.767,12.993,12.993,0,0,1-3.065,3.7,14,14,0,0,1-4.086,2.341,12.4,12.4,0,0,1-4.341.808,13.317,13.317,0,0,1-4.938-1.021,14.809,14.809,0,0,1-4.682-2.98,16.025,16.025,0,0,1-3.49-4.979,16.408,16.408,0,0,1-1.405-7.023,16.059,16.059,0,0,1,1.447-7.023,17.484,17.484,0,0,1,3.746-5.235,16.474,16.474,0,0,1,5.107-3.32,14.446,14.446,0,0,1,5.491-1.15,20.311,20.311,0,0,1,4.129.384,12.648,12.648,0,0,1,3.107,1.021,6.02,6.02,0,0,1,1.958,1.447,2.567,2.567,0,0,1,.681,1.7,2,2,0,0,1-.638,1.575,2.061,2.061,0,0,1-1.448.552,2.886,2.886,0,0,1-1.915-.638,4.015,4.015,0,0,1-1.149-2.17,6.588,6.588,0,0,0-.511-1.618,2.613,2.613,0,0,0-.894-1.022,4.17,4.17,0,0,0-1.32-.595,8.162,8.162,0,0,0-1.914-.17Zm-9.832,16.216a32.968,32.968,0,0,0,.638,6.938,15.092,15.092,0,0,0,1.788,4.767,7.72,7.72,0,0,0,2.724,2.767,6.94,6.94,0,0,0,3.448.894,5.549,5.549,0,0,0,5.15-2.81q1.659-2.808,1.66-8.3a17.558,17.558,0,0,0-.6-4.852,8.652,8.652,0,0,0-1.618-3.193,5.753,5.753,0,0,0-2.341-1.745,7.833,7.833,0,0,0-2.809-.511,10.174,10.174,0,0,0-4.511.937,3.189,3.189,0,0,0-3.491,3.7v1.362Z" fill="#fff"/>
    <path id="Trazado_116" data-name="Trazado 116" d="M4084.452,2183.542a6.681,6.681,0,0,1-2.639-.553,8.21,8.21,0,0,1-2.426-1.575,8.352,8.352,0,0,1-1.787-2.511,8.368,8.368,0,0,1,0-6.81,8.337,8.337,0,0,1,1.787-2.511,7.308,7.308,0,0,1,2.426-1.533,7.426,7.426,0,0,1,2.639-.51,7.832,7.832,0,0,1,2.682.51,7.257,7.257,0,0,1,2.511,1.533,8.378,8.378,0,0,1,1.788,2.511,8.381,8.381,0,0,1,0,6.81,8.394,8.394,0,0,1-1.788,2.511,7.888,7.888,0,0,1-2.469,1.575,7.033,7.033,0,0,1-2.682.553Zm19.324-15.961.638.468-23.154,31.667-.638-.425Zm-17.92,15.067a3.644,3.644,0,0,0,1.278-1.276,7.089,7.089,0,0,0,.894-2.341,18.98,18.98,0,0,0,0-7.151,7.085,7.085,0,0,0-.894-2.341,3.65,3.65,0,0,0-1.278-1.277,2.908,2.908,0,0,0-1.4-.383,2.742,2.742,0,0,0-1.32.383,3.662,3.662,0,0,0-1.276,1.277,7.085,7.085,0,0,0-.894,2.341,18.98,18.98,0,0,0,0,7.151,8.242,8.242,0,0,0,.851,2.341,3.255,3.255,0,0,0,1.235,1.276,2.764,2.764,0,0,0,2.808,0Zm14.813,17.281a7.04,7.04,0,0,1-2.682-.553,7.882,7.882,0,0,1-2.468-1.575,8.369,8.369,0,0,1-1.788-2.511,8.37,8.37,0,0,1,0-6.81,8.374,8.374,0,0,1,1.788-2.512,7.257,7.257,0,0,1,2.511-1.532,7.852,7.852,0,0,1,2.681-.511,7.446,7.446,0,0,1,2.639.511,8.142,8.142,0,0,1,2.511,1.532,8.146,8.146,0,0,1,1.873,9.322,7.8,7.8,0,0,1-1.83,2.511,8.986,8.986,0,0,1-2.469,1.575,6.675,6.675,0,0,1-2.639.553Zm1.4-.894a3.641,3.641,0,0,0,1.277-1.277,7.1,7.1,0,0,0,.894-2.341,16.961,16.961,0,0,0,.341-3.575,14.329,14.329,0,0,0-.384-3.575,8.114,8.114,0,0,0-.936-2.341,3.649,3.649,0,0,0-1.277-1.277,2.465,2.465,0,0,0-2.639,0,3.657,3.657,0,0,0-1.277,1.277,8.1,8.1,0,0,0-.936,2.341,14.354,14.354,0,0,0-.383,3.575,17.033,17.033,0,0,0,.34,3.575,7.1,7.1,0,0,0,.894,2.341,3.646,3.646,0,0,0,1.277,1.277,2.767,2.767,0,0,0,2.809,0Z" fill="#fff"/>
  </g>
</svg>
