<svg xmlns="http://www.w3.org/2000/svg" width="96.788" height="23.684" viewBox="0 0 96.788 23.684">
  <g id="Grupo_302" data-name="Grupo 302" transform="translate(-1601.559 -4019.158)">
    <g id="Grupo_301" data-name="Grupo 301">
      <rect id="Rectángulo_75" data-name="Rectángulo 75" width="8.838" height="4.671" transform="translate(1641.486 4028.45)" fill="#262626"/>
      <path id="Trazado_186" data-name="Trazado 186" d="M1638.525,4019.983h-8.356v17.4l-8.2-17.4h-9.852l-10.56,22.415h9.088l1.2-2.833h10.4l1.2,2.833h26.882v-6.1h-11.8Zm-24.3,14.01,2.627-6.058h.384l2.626,6.058Z" fill="#262626"/>
      <path id="Trazado_187" data-name="Trazado 187" d="M1685.8,4019.158c-6.926,0-12.542,5.3-12.542,11.842a11.283,11.283,0,0,0,1.742,6.022l-6.783-6.617.016-.021,8.624-10.4h-9.745l-5.612,7.162h-.455v-7.162h-8.318V4042.4h8.356v-7.337h.491l7.943,7.337h9.821l.779-.84a13.1,13.1,0,0,0,5.683,1.284c6.926,0,12.543-5.3,12.543-11.842S1692.73,4019.158,1685.8,4019.158Zm0,16.871a5.029,5.029,0,1,1,5.029-5.029A5.03,5.03,0,0,1,1685.8,4036.029Z" fill="#262626"/>
    </g>
  </g>
</svg>
