<svg xmlns="http://www.w3.org/2000/svg" width="22.195" height="22.197" viewBox="0 0 22.195 22.197">
  <path id="Trazado_184" data-name="Trazado 184" d="M2309.485,5327.056a5.932,5.932,0,0,0-.263-1.752,5.511,5.511,0,0,0-5.334-3.861c-3.656-.008-7.312-.014-10.967.01a5.889,5.889,0,0,0-1.752.266,5.5,5.5,0,0,0-3.855,5.312c-.01,3.672-.015,7.345.01,11.017a5.658,5.658,0,0,0,.277,1.749,5.511,5.511,0,0,0,5.406,3.829h5.4c1.807,0,3.615.022,5.421-.012a6.332,6.332,0,0,0,1.825-.273A5.5,5.5,0,0,0,2309.5,5338C2309.5,5334.351,2309.508,5330.7,2309.485,5327.056Zm-11.092,10.1a4.618,4.618,0,1,1,4.63-4.627A4.626,4.626,0,0,1,2298.393,5337.152Zm6-9.249a1.38,1.38,0,1,1,1.4-1.341A1.373,1.373,0,0,1,2304.394,5327.9Z" transform="translate(-2287.306 -5321.436)"/>
</svg>
