<svg xmlns="http://www.w3.org/2000/svg" width="34.367" height="53.464" viewBox="0 0 34.367 53.464">
  <path id="Trazado_109" data-name="Trazado 109" d="M5168.237,2045.052l-.134-.011v-6.459l.339.186a.981.981,0,0,1,.2.12,3.232,3.232,0,0,0,2.983.651,11.439,11.439,0,0,0,7.876-6.016,16.173,16.173,0,0,0,1.579-6.477,1.084,1.084,0,0,0-.23-.892.975.975,0,0,0-.838-.163l-.4.053a23.616,23.616,0,0,0-2.422.423,12.414,12.414,0,0,0-6.886,4.023,14.393,14.393,0,0,0-2.338,4.058l-.033.085-1.278.123-.059-.111a.764.764,0,0,1-.084-.165c-1.822-4.85-5.451-7.6-11.1-8.413-.855-.122-1.337-.087-1.565.119-.252.229-.224.751-.184,1.472l0,.074a14.733,14.733,0,0,0,1.649,6.382,11.091,11.091,0,0,0,5.064,4.578c2.289,1.139,4.184,1.533,6-.257l.247-.245v6.859l-.133.011a17.174,17.174,0,0,0-12.263,6.135,16.8,16.8,0,0,0-3.918,13.116,17.187,17.187,0,0,0,16.617,15.117c.151,0,.3.005.455.005a17.27,17.27,0,0,0,16.945-14.5,16.546,16.546,0,0,0-2.352-11.689A17.142,17.142,0,0,0,5168.237,2045.052Zm.893-8.495c.153-3.1,3.081-8.3,10.287-9.022l.177-.017-.021.179c-.317,2.81-1.013,5.981-3.776,8.185a8.4,8.4,0,0,1-5.177,2.3l-.194,0-.271-.358.429-.371c.183-.155.372-.316.544-.49.837-.823,1.57-1.56,2.24-2.251a1.016,1.016,0,0,0,.335-.682.688.688,0,0,0-.222-.489c-.292-.289-.743-.232-1.126.144-.692.686-1.382,1.379-2.109,2.112l-1.134,1.142Zm-3.851.6-.076.223-3.528-3.535a2.655,2.655,0,0,0-.318-.3.686.686,0,0,0-.959,0,.656.656,0,0,0-.06.98c.3.352.639.686.965,1.009l.535.535c.547.549,1.166,1.17,1.727,1.828l.252.293-.384-.054a9.616,9.616,0,0,1-6.078-3.632c-1.638-1.941-1.993-4.295-2.237-6.737l-.014-.149.15-.011c2.973-.254,6.619,2.276,8.558,4.777C5165.2,2034.163,5165.718,2035.859,5165.279,2037.156Zm5.751,10.669c3.165,1.667,6.733,7.622,6.793,13.5l0,.149H5173.3l-.007-.14c-.225-4.827-.565-9.161-2.459-13.323l-.177-.389Zm-4.564-.893a1.118,1.118,0,0,1,1.777-.052,6.7,6.7,0,0,1,1.773,2.961,31.134,31.134,0,0,1,1.678,8.652c.048.621.076,1.229.1,1.872l.055,1.111h-8.983l.048-.955c.026-.582.051-1.1.092-1.638a29.936,29.936,0,0,1,2.017-9.8A8.646,8.646,0,0,1,5166.466,2046.932Zm-2.876.882.435-.333-.212.5c-1.852,4.412-2.233,9.019-2.369,13.34l0,.143h-4.608l.015-.158C5157.323,2055.338,5159.529,2050.924,5163.59,2047.814Zm-3.022.33.491-.137-.344.376a19.858,19.858,0,0,0-5.3,12.953l-.007.14h-3.591l-.024-.119C5150.979,2057.262,5156.23,2049.357,5160.568,2048.144Zm.045,28.22a15.336,15.336,0,0,1-8.863-13.239v-.147h3.645l.008.138a19.975,19.975,0,0,0,5.381,13.017l.48.521Zm2.983.255c-4.05-3.071-6.26-7.48-6.753-13.479l-.015-.16h4.484l.225,2.209c.145,1.467.31,3.13.517,4.714a25.594,25.594,0,0,0,1.765,6.544l.207.5Zm3.785,1.342v.125l-.007-.125a1.768,1.768,0,0,1-1.278-.788,10.893,10.893,0,0,1-1.927-4.218,41.58,41.58,0,0,1-1.274-9.506,1.51,1.51,0,0,1,.015-.231l.02-.244h8.868v.146c0,.166,0,.333.005.5.007.36.014.73-.012,1.1a40.39,40.39,0,0,1-1.079,7.664,12.344,12.344,0,0,1-2.08,4.8A1.728,1.728,0,0,1,5167.381,2077.961Zm3.6-1.236-.424.265.215-.45a21.97,21.97,0,0,0,1.919-6.637c.209-1.571.348-3.095.5-4.708l.014-.155c.059-.637.119-1.275.181-1.919l.014-.133h4.358l.008.139C5177.989,2066.892,5175.522,2073.887,5170.978,2076.725Zm12.012-13.6a15.259,15.259,0,0,1-8.694,13.122l-.615.274.447-.5a20.449,20.449,0,0,0,5.2-12.9l.007-.139h3.658Zm.062-1.643h-3.719l-.006-.139a20.241,20.241,0,0,0-5.313-12.971l-.441-.487.606.254a15.426,15.426,0,0,1,8.866,13.189Z" transform="translate(-5150.192 -2025.969)" fill="#262626"/>
</svg>
