<svg xmlns="http://www.w3.org/2000/svg" width="54.757" height="54.204" viewBox="0 0 54.757 54.204">
  <path id="Trazado_121" data-name="Trazado 121" d="M4101.931,2330.191l-17.948-17.947,6.107-10.466a1.543,1.543,0,0,0,.009-1.746,1.7,1.7,0,0,0-1.542-.643h-8.593l21.415-21.414-.991-.991-20.738,20.739,1.386-4.166q2.2-6.6,4.4-13.194a1.85,1.85,0,0,0-.079-1.709,1.829,1.829,0,0,0-1.581-.613H4072.65a1.612,1.612,0,0,0-1.88,1.319q-2.465,7.374-4.923,14.748l-16.645-16.645-.99.99,17.14,17.14q-1.952,5.845-3.9,11.69a1.685,1.685,0,0,0,.107,1.584,1.749,1.749,0,0,0,1.531.622h4.794l-20.708,20.708.99.99,21.592-21.591c0,.053,0,.108,0,.158l-.008.061,1.066,19.385a1.507,1.507,0,0,0,1.488,1.631,1.52,1.52,0,0,0,1.257-.74c.134-.2.253-.407.37-.612l9.328-15.985,17.687,17.687Zm-13.361-29.4c.3,0,.376.034.4.07a.477.477,0,0,1-.085.214l-5.922,10.147-7.413-7.413,3.018-3.018ZM4072.1,2279.8c.089-.264.157-.313.113-.332a1.529,1.529,0,0,1,.44-.032h11.121a1.56,1.56,0,0,1,.423.047,1.516,1.516,0,0,1-.092.433q-2.19,6.6-4.394,13.193l-2.27,6.82-2.882,2.883-7.6-7.6Q4069.525,2287.509,4072.1,2279.8Zm-9.009,28.284c-.241,0-.368-.04-.374-.009a.949.949,0,0,1,.064-.355q1.837-5.514,3.68-11.025l7.108,7.107-4.283,4.283Zm9.743,20.485-.12.211c-.1.178-.2.355-.317.525-.057.087-.1.122-.177.089a.288.288,0,0,1-.007-.13l0-.049-1.064-19.365a4.237,4.237,0,0,0,.006-.439l-.007-1.212,3.407-3.407,7.674,7.674Z" transform="translate(-4047.174 -2276.984)" fill="#fff"/>
</svg>
