<svg xmlns="http://www.w3.org/2000/svg" width="43.402" height="53.464" viewBox="0 0 43.402 53.464">
  <path id="Trazado_108" data-name="Trazado 108" d="M5574.574,1726.275h15.882l-8.011,22.387a1.625,1.625,0,0,0,2.712,1.663l30.752-32.614a1.623,1.623,0,0,0-1.182-2.739h-16.98l9.123-15.071a1.609,1.609,0,0,0,.277-.905,1.626,1.626,0,0,0-1.622-1.625H5588.69a1.623,1.623,0,0,0-1.424.841l-14.114,25.655a1.623,1.623,0,0,0,1.422,2.408Zm14.19-27.154H5605.3l-10.54,17.411-.115.19h19.794l-30.142,31.967,8.587-24,.06-.167h-18.156Z" transform="translate(-5572.951 -1697.371)" fill="#262626"/>
</svg>
