<svg xmlns="http://www.w3.org/2000/svg" width="41.591" height="41.596" viewBox="0 0 41.591 41.596">
  <path id="Trazado_135" data-name="Trazado 135" d="M168.7,852.258a11.105,11.105,0,0,0-.493-3.283,10.33,10.33,0,0,0-9.995-7.235c-6.851-.015-13.7-.026-20.551.018a11.08,11.08,0,0,0-3.283.5,10.308,10.308,0,0,0-7.224,9.954c-.019,6.881-.027,13.762.018,20.644a10.6,10.6,0,0,0,.521,3.277,10.323,10.323,0,0,0,10.129,7.175q5.057,0,10.113,0c3.387,0,6.774.042,10.159-.023a11.889,11.889,0,0,0,3.419-.51,10.308,10.308,0,0,0,7.206-10.013C168.727,865.928,168.741,859.093,168.7,852.258Zm-20.784,18.919a8.655,8.655,0,1,1,8.675-8.669A8.667,8.667,0,0,1,147.913,871.177Zm11.9-16.881a3.274,3.274,0,1,1,3.319-3.182A3.259,3.259,0,0,1,159.816,854.3Z" transform="translate(-127.136 -841.727)" fill="#fff"/>
</svg>
