<svg xmlns="http://www.w3.org/2000/svg" width="18.344" height="18.346" viewBox="0 0 18.344 18.346">
  <path id="Trazado_167" data-name="Trazado 167" d="M1577.887,169.655a4.891,4.891,0,0,0-.217-1.449,4.557,4.557,0,0,0-4.409-3.191c-3.021-.006-6.042-.011-9.064.009a4.881,4.881,0,0,0-1.447.22,4.546,4.546,0,0,0-3.187,4.39c-.008,3.035-.012,6.07.008,9.1a4.684,4.684,0,0,0,.23,1.446,4.553,4.553,0,0,0,4.467,3.164h4.461c1.494,0,2.988.018,4.481-.011a5.216,5.216,0,0,0,1.508-.225,4.545,4.545,0,0,0,3.178-4.416C1577.9,175.684,1577.907,172.669,1577.887,169.655ZM1568.72,178a3.818,3.818,0,1,1,3.826-3.824A3.823,3.823,0,0,1,1568.72,178Zm4.96-7.644a1.14,1.14,0,1,1,1.156-1.108A1.135,1.135,0,0,1,1573.68,170.355Z" transform="translate(-1559.557 -165.01)"/>
</svg>
