<svg xmlns="http://www.w3.org/2000/svg" width="58.926" height="53.465" viewBox="0 0 58.926 53.465">
  <path id="Trazado_110" data-name="Trazado 110" d="M5631.593,2064.58c-.218-.222-.439-.438-.662-.656l-.665-.658.009-.009-6.993-6.834,4.127-4.158a3.644,3.644,0,0,0,.886-3.671,3.99,3.99,0,0,0-2.92-2.932l-.316-.1.068-.324c.694-3.252-.056-4.71-2.972-5.777l-.241-.088,0-.257c.041-3.5-.414-4.252-3.251-5.393l-.286-.117.066-.3a4.092,4.092,0,0,0-5.822-4.8l-.234.1-.178-.184a6.85,6.85,0,0,0-4.781-2.387c-2.763-.089-5.683-.075-8.03-.065l-1.742.007c-.579,0-.9.16-.905.994-.006.674,0,1.353,0,2.032v1.4l-.454-.118a3.967,3.967,0,0,0-4.053.914,4.012,4.012,0,0,0-1.106,4.148l.086.342-.337.1a4.2,4.2,0,0,0-3.192,5.331l.077.342-.338.09a4.074,4.074,0,0,0-2.98,5.634l.1.258-.253.188a.572.572,0,0,1-.138.088l-.322.121a3.909,3.909,0,0,0-2.667,3.36,3.87,3.87,0,0,0,1.21,3.38l2.549,2.558-.545.486c-.13.112-.242.21-.345.312l-10.629,10.631a2.691,2.691,0,0,0-.285.307.8.8,0,0,0-.164.616.816.816,0,0,0,.385.531c.258.164.588.282,1.248-.377l1.035-1.03c3.111-3.1,6.451-6.441,9.791-9.8a1.151,1.151,0,0,1,1.416-.3,3.926,3.926,0,0,0,3.33-.142,4.009,4.009,0,0,0,2.057-2.7c.044-.2.073-.4.1-.617l.122-.8.32,0a4.142,4.142,0,0,0,2.945-1.175,3.982,3.982,0,0,0,1.192-2.98l.005-.331.331-.025c2.614-.207,4.011-1.595,4.272-4.244l.031-.324.326,0a4.173,4.173,0,0,0,3.7-2.262,4.114,4.114,0,0,0-.424-4.364l-.167-.234.287-.333a3.423,3.423,0,0,1,.259-.29q3.587-3.6,7.193-7.2a2.732,2.732,0,0,1,1.921-.847,2.353,2.353,0,0,1,1.671.72,2.433,2.433,0,0,1-.15,3.54c-.58.6-1.18,1.189-1.761,1.765l-1.547,1.536c-.719.708-1.268,1.258-1.779,1.78a.8.8,0,0,0-.079,1.173.817.817,0,0,0,1.174,0,4.547,4.547,0,0,0,.363-.347l3.6-3.633a2.443,2.443,0,0,1,2.306-.8,2.328,2.328,0,0,1,1.849,1.623,2.406,2.406,0,0,1-.622,2.508l-3.907,3.906c-.487.485-.554.927-.194,1.314a.718.718,0,0,0,.5.255h.016a1.386,1.386,0,0,0,.819-.433c.443-.437.88-.876,1.319-1.316s.879-.878,1.321-1.316a2.426,2.426,0,1,1,3.406,3.426q-.686.7-1.378,1.382l-.132.132c-.392.391-.783.779-1.171,1.173a.859.859,0,0,0-.134,1.266c.346.356.805.313,1.259-.112.221-.207.434-.422.651-.64s.411-.419.625-.622a2.644,2.644,0,0,1,1.79-.749,2.326,2.326,0,0,1,1.643.693,2.387,2.387,0,0,1,.735,1.687,2.528,2.528,0,0,1-.781,1.793l-3.006,3.026c-2.812,2.835-5.719,5.766-8.633,8.595a15.742,15.742,0,0,1-10.094,4.368,2.008,2.008,0,0,0-1.156.518c-2.715,2.677-5.387,5.361-7.89,7.879l-2.049,2.058a2.682,2.682,0,0,0-.282.293.839.839,0,0,0,.041,1.1.75.75,0,0,0,.538.237.881.881,0,0,0,.507-.176,2.516,2.516,0,0,0,.325-.294l7.707-7.624.242.143a11.392,11.392,0,0,0,5.794,1.647,1.929,1.929,0,0,1,1.21.51c1.288,1.25,2.54,2.495,3.926,3.877l1.33,1.325.044.043a3.1,3.1,0,0,0,.4.364.771.771,0,0,0,.693.128.809.809,0,0,0,.514-.539c.124-.37-.042-.629-.392-.978l-1.793-1.787c-1.314-1.31-2.674-2.665-3.99-4.015a1.756,1.756,0,0,0-1.593-.6,7.422,7.422,0,0,1-4.841-1.2l-.427-.28.532-.411a2.658,2.658,0,0,1,1.29-.674,16.486,16.486,0,0,0,9.931-4.267c2.684-2.539,5.271-5.117,6.984-6.835l.256-.257,8.346,8.192a.806.806,0,0,0,1.141-.035A.753.753,0,0,0,5631.593,2064.58Zm-41.11-8.766-.009.022a2.5,2.5,0,0,1-2.464,1.393l-.1,0-.089-.047c-.057-.03-.131-.063-.237-.109a3.65,3.65,0,0,1-1-.6c-1.052-.969-2.061-2.013-3.037-3.022l-.042-.044a2.408,2.408,0,0,1-.024-3.485,2.325,2.325,0,0,1,1.647-.676,2.518,2.518,0,0,1,1.744.716c1.189,1.146,2.33,2.327,3.194,3.227A2.264,2.264,0,0,1,5590.483,2055.814Zm4.1-3.87a2.369,2.369,0,0,1-1.7.743,2.416,2.416,0,0,1-1.678-.7c-1.743-1.686-3.481-3.457-4.8-4.811a2.246,2.246,0,0,1-.435-2.617,2.512,2.512,0,0,1,2.454-1.439l.1-.006.085.045a1.637,1.637,0,0,0,.168.076l.06.026a3.263,3.263,0,0,1,1.034.6c1.584,1.511,3.121,3.06,4.685,4.646A2.408,2.408,0,0,1,5594.578,2051.944Zm4.536-4.534a2.358,2.358,0,0,1-1.657.7,2.6,2.6,0,0,1-1.822-.8c-1.783-1.768-3.66-3.647-5.737-5.746a2.346,2.346,0,0,1-.524-2.734,2.6,2.6,0,0,1,2.491-1.431l.1-.005.086.045c.045.024.1.049.163.077l.051.021a3.048,3.048,0,0,1,.965.568c1.8,1.744,3.666,3.589,5.863,5.811a2.526,2.526,0,0,1,.761,1.794A2.392,2.392,0,0,1,5599.114,2047.41Zm5.383-6.291a2.662,2.662,0,0,1-1.407,2.156,2.352,2.352,0,0,1-2.507-.192,3.994,3.994,0,0,1-.553-.48l-2.369-2.371q-2.081-2.082-4.167-4.157a2.519,2.519,0,0,1-.829-2.562,2.428,2.428,0,0,1,1.7-1.74,2.3,2.3,0,0,1,2.228.573c2.5,2.407,4.934,4.88,7.2,7.193a2.625,2.625,0,0,1,.525.98,3.927,3.927,0,0,0,.155.4l.044.095Zm-.754-4.137-3.817-3.746,2.057,0c.258,0,.517.005.777.009.637.008,1.3.017,1.947-.017.927-.047.95-.539.961-.748a.817.817,0,0,0-.183-.619.935.935,0,0,0-.685-.245c-.581-.014-1.174-.007-1.748,0l-.265,0c-.325,0-.652.007-.98.007a3.438,3.438,0,0,1-2.524-1.017,3.521,3.521,0,0,1-.916-2.632l.012-.3.435-.059a2.034,2.034,0,0,1,.35-.04l1.916,0c1.866,0,3.735,0,5.6,0a5.675,5.675,0,0,1,4.176,1.783l.248.256Z" transform="translate(-5572.95 -2025.97)" fill="#262626"/>
</svg>
